<?xml version="1.0" encoding="utf-8"?>
<!-- Generator: Adobe Illustrator 24.1.2, SVG Export Plug-In . SVG Version: 6.00 Build 0)  -->
<svg version="1.1" id="Layer_1" xmlns="http://www.w3.org/2000/svg" xmlns:xlink="http://www.w3.org/1999/xlink" x="0px" y="0px"
	 viewBox="0 0 1920 1080" style="enable-background:new 0 0 1920 1080;" xml:space="preserve">
<style type="text/css">
	.st0{fill:#FAFAC6;}
</style>
<g>
	<path class="st0" d="M978.02,512.58c-0.29-0.48-0.82-0.78-1.38-0.78h-21.37c-0.7,0-1.33,0.46-1.54,1.13l-9.44,29.81
		c-0.16,0.49-0.07,1.03,0.24,1.44c0.3,0.42,0.79,0.66,1.3,0.66h6.42l-6,25.85c-0.17,0.73,0.18,1.47,0.85,1.81
		c0.23,0.12,0.48,0.17,0.72,0.17c0.46,0,0.92-0.2,1.23-0.57l27.33-32.3c0.41-0.48,0.5-1.15,0.23-1.72s-0.84-0.94-1.46-0.94h-9.24
		l12.16-22.97C978.32,513.67,978.31,513.07,978.02,512.58z"/>
	<path class="st0" d="M980.79,495.62c-22.29-10.43-48.44-2.76-61.68,17.37l-0.76-3.47c-0.26-1.2-1.45-1.96-2.66-1.7
		c-1.2,0.26-1.96,1.45-1.7,2.66l1.86,8.44c0.23,1.04,1.15,1.75,2.17,1.75c0.16,0,0.32-0.02,0.48-0.05l8.44-1.86
		c1.2-0.26,1.96-1.45,1.7-2.66c-0.26-1.2-1.45-1.96-2.66-1.7l-2.89,0.63c12.11-17.99,35.68-24.8,55.79-15.39
		c19.54,9.14,29.72,30.89,24.21,51.7c-0.31,1.19,0.39,2.41,1.58,2.73c0.19,0.05,0.38,0.07,0.57,0.07c0.99,0,1.89-0.66,2.15-1.66
		C1013.48,529.6,1002.28,505.68,980.79,495.62z"/>
	<path class="st0" d="M1004.64,559.18c-0.33-1.09-1.41-1.73-2.5-1.54c-0.19,0.02-0.38,0.07-0.56,0.14l-7.99,2.41
		c-1.18,0.36-1.85,1.6-1.49,2.78c0.35,1.18,1.6,1.85,2.78,1.49l2.96-0.89c-11.74,18.88-36.07,26.46-56.7,16.81
		c-19.72-9.23-30-31.92-23.91-52.79c0.34-1.18-0.33-2.42-1.51-2.76c-1.18-0.35-2.42,0.33-2.76,1.52
		c-6.81,23.33,4.25,47.75,26.3,58.07c6.7,3.13,13.75,4.62,20.7,4.62c16.75,0,32.89-8.63,41.95-23.53l0.98,3.25
		c0.29,0.96,1.18,1.59,2.13,1.59c0.21,0,0.43-0.03,0.64-0.1c1.18-0.36,1.85-1.6,1.49-2.78L1004.64,559.18z"/>
</g>
</svg>
