<?xml version="1.0" encoding="utf-8"?>
<!-- Generator: Adobe Illustrator 24.1.2, SVG Export Plug-In . SVG Version: 6.00 Build 0)  -->
<svg version="1.1" id="Layer_1" xmlns="http://www.w3.org/2000/svg" xmlns:xlink="http://www.w3.org/1999/xlink" x="0px" y="0px"
	 viewBox="0 0 1920 1080" style="enable-background:new 0 0 1920 1080;" xml:space="preserve">
<style type="text/css">
	.st0{fill:#F45E39;}
</style>
<g>
	<path class="st0" d="M1004.57,562.89h-3.46c-0.94,0-1.87-0.16-2.75-0.47l-2.2-0.77c0.6-0.75,1.16-1.51,1.71-2.29
		c4.99-7.15,7.71-15.68,7.71-24.48c0-23.58-19.19-42.77-42.77-42.77c-23.58,0-42.77,19.19-42.77,42.77c0,8.51,2.54,16.66,7.09,23.55
		c0.58,0.89,1.2,1.75,1.85,2.6c-1.49-0.07-2.93,0.4-4.07,1.37c-1.14,0.96-1.85,2.3-2.03,3.77l-2.89-0.22
		c-0.03,0-0.13-0.01-0.16-0.01c-0.1-0.01-0.2-0.01-0.29-0.01c-0.11,0-0.2,0-0.29,0c-0.11,0.01-0.23,0.01-0.33,0.02
		c-0.09,0.01-0.17,0.02-0.25,0.03c-0.11,0.02-0.22,0.04-0.31,0.05c-0.09,0.02-0.17,0.04-0.27,0.06c-0.09,0.02-0.18,0.05-0.28,0.08
		c-0.09,0.03-0.19,0.06-0.25,0.08c-0.09,0.03-0.18,0.07-0.3,0.12c-0.08,0.03-0.16,0.07-0.24,0.11l-0.24,0.12
		c-0.08,0.04-0.15,0.08-0.24,0.14c-0.08,0.05-0.16,0.1-0.24,0.15c-0.08,0.05-0.16,0.1-0.21,0.15c-0.09,0.06-0.17,0.13-0.23,0.18
		c-0.07,0.06-0.14,0.12-0.21,0.17c-0.07,0.06-0.13,0.12-0.25,0.23l-0.17,0.17c-0.07,0.07-0.13,0.14-0.19,0.22
		c-0.06,0.07-0.11,0.13-0.18,0.22c-0.06,0.07-0.11,0.15-0.17,0.23c-0.05,0.08-0.11,0.16-0.16,0.25c-0.05,0.08-0.09,0.15-0.12,0.22
		c-0.05,0.1-0.11,0.19-0.16,0.3c-0.04,0.07-0.07,0.15-0.1,0.21c-0.05,0.11-0.09,0.21-0.14,0.33c-0.03,0.07-0.05,0.15-0.07,0.21
		c-0.04,0.12-0.07,0.23-0.09,0.29c-0.01,0.04-0.03,0.12-0.04,0.16c-0.02,0.06-0.03,0.12-0.03,0.15c-0.02,0.11-0.04,0.21-0.06,0.31
		c-0.02,0.1-0.03,0.21-0.04,0.27c-0.01,0.06-0.02,0.12-0.02,0.18c0,0.05,0,0.08,0,0.12c-0.01,0.11-0.01,0.22-0.01,0.34
		c0,0.08,0,0.17,0.01,0.26c0,0.11,0.01,0.21,0.02,0.32c0.01,0.09,0.02,0.18,0.03,0.26c0.01,0.1,0.03,0.19,0.05,0.3
		c0.02,0.09,0.04,0.18,0.06,0.29c0.02,0.08,0.05,0.17,0.07,0.24c0.03,0.1,0.06,0.21,0.09,0.29c0.03,0.08,0.06,0.16,0.09,0.24
		c0.04,0.1,0.08,0.2,0.13,0.3c0.04,0.07,0.07,0.15,0.11,0.22c0.05,0.09,0.1,0.19,0.15,0.27c0.05,0.08,0.09,0.15,0.15,0.23
		c0.05,0.08,0.11,0.16,0.15,0.22c0.05,0.07,0.11,0.15,0.21,0.27l0.14,0.16c0.07,0.08,0.14,0.16,0.21,0.23
		c0.06,0.07,0.13,0.13,0.18,0.17c0.08,0.07,0.15,0.14,0.24,0.21c0.06,0.05,0.13,0.11,0.2,0.16c0.08,0.06,0.16,0.12,0.24,0.17
		c0.08,0.05,0.15,0.1,0.22,0.15c0.09,0.06,0.18,0.11,0.26,0.15c0.08,0.05,0.17,0.09,0.26,0.14c0.08,0.04,0.17,0.08,0.23,0.1
		c0.11,0.05,0.21,0.09,0.3,0.12c0.09,0.03,0.18,0.07,0.25,0.09c0.1,0.03,0.21,0.06,0.28,0.08c0.04,0.01,0.12,0.03,0.16,0.04
		l37.58,8.94c3.2,0.76,6.47,0.91,9.73,0.46l22.17-0.02l13.21,1.02c0.05,0,0.1,0.01,0.14,0.01c0.94,0,1.74-0.72,1.81-1.68
		c0.08-1-0.67-1.88-1.67-1.95l-1.44-0.11l-6.43-0.5l-5.41-0.42c-0.05,0-0.09-0.01-0.14-0.01l-22.37,0.02
		c-0.09,0-0.17,0.01-0.26,0.02c-2.84,0.41-5.7,0.28-8.49-0.38l-37.49-8.91c-0.02-0.01-0.09-0.03-0.12-0.03l-0.14-0.04
		c-0.01,0-0.09-0.03-0.1-0.03l-0.09-0.04c-0.01,0-0.09-0.04-0.1-0.04l-0.11-0.06c0,0-0.08-0.05-0.09-0.05l-0.35-0.26
		c-0.01-0.01-0.07-0.07-0.07-0.07l-0.07-0.08c0,0-0.07-0.08-0.07-0.09l-0.33-0.56c0,0-0.04-0.09-0.04-0.09l-0.13-0.74l0-0.12
		c0-0.01,0-0.03,0-0.06c0-0.02,0.01-0.05,0.01-0.06l0.04-0.23c0-0.01,0.01-0.03,0.01-0.05c0.01-0.02,0.01-0.04,0.01-0.05l0.11-0.33
		c0,0,0.04-0.08,0.04-0.09l0.43-0.6c0,0,0.09-0.08,0.09-0.08c0,0,0.09-0.07,0.09-0.08l0.46-0.29l0.18-0.07
		c0.01,0,0.09-0.03,0.1-0.03l0.67-0.1l4.15,0.32l2.56,0.2l22.49,1.73c0.17,0.26,0.37,0.5,0.57,0.72l0.11,0.11
		c0.03,0.03,0.06,0.05,0.09,0.08c0.2,0.2,0.42,0.39,0.64,0.55l0.14,0.1c0.26,0.18,0.54,0.34,0.86,0.49l0.13,0.06
		c0.31,0.13,0.63,0.24,0.97,0.32c0.02,0,0.1,0.02,0.11,0.03c0.33,0.07,0.68,0.11,0.97,0.12c0.05,0.01,0.11,0.01,0.15,0.01l8.83,0.15
		l1.92,0.03l18,0.32c0.01,0,0.09,0,0.1,0c1,0,1.77-0.81,1.78-1.8c0-0.23-0.04-0.44-0.12-0.64c-0.26-0.69-0.93-1.18-1.7-1.2
		l-17.25-0.3l-1.9-0.03l-2.04-0.04l-7.46-0.13c-0.04,0-0.09-0.01-0.13-0.01c-0.14,0-0.27-0.02-0.46-0.06
		c-0.12-0.03-0.24-0.07-0.41-0.14c-0.11-0.05-0.22-0.11-0.38-0.22c-0.1-0.07-0.2-0.15-0.32-0.28c-0.09-0.09-0.17-0.19-0.26-0.34
		c-0.07-0.11-0.13-0.22-0.19-0.39c-0.04-0.1-0.08-0.21-0.09-0.25c0-0.01-0.01-0.05-0.02-0.09c-0.01-0.04-0.01-0.08-0.01-0.08
		c-0.02-0.13-0.03-0.26-0.03-0.4c0-0.01,0-0.03,0-0.04c0-0.14,0.02-0.27,0.06-0.45c0.03-0.12,0.07-0.25,0.14-0.42
		c0.01-0.02,0.02-0.04,0.03-0.05c0.68-0.71,1.97-1.49,4.45-1.76c6.3-0.7,20.48-3.86,22.87-4.4l8.63,1.1
		c0.14,0.05,0.28,0.08,0.42,0.13l9.25,3.26c0.89,0.31,1.82,0.51,2.76,0.61c0.4,0.04,0.8,0.07,1.21,0.07h1.57h1.89
		c1,0,1.82-0.81,1.82-1.82S1005.58,562.89,1004.57,562.89z M932.97,514.79c0-0.38,0.15-0.75,0.42-1.02
		c0.27-0.27,0.64-0.42,1.02-0.42c0,0,0,0,0,0l7.53,0c0.38,0,0.75,0.15,1.02,0.42c0.27,0.27,0.42,0.64,0.42,1.02l-0.15,37.64
		c0,0.38-0.15,0.75-0.42,1.01c-0.1,0.1-0.22,0.18-0.35,0.25c-0.2,0.11-0.43,0.17-0.66,0.17c0,0,0,0-0.01,0l-5.16-0.02l-2.3-0.01
		c-0.79,0-1.43-0.65-1.43-1.44l0.1-34.75L932.97,514.79z M991.11,537.7c0.01-2.15,1.76-3.9,3.91-3.9c0,0,0.01,0,0.02,0
		c2.16,0.01,3.91,1.77,3.9,3.93c0,1.05-0.42,2.03-1.16,2.76c-0.74,0.73-1.72,1.14-2.76,1.14c-0.01,0-0.01,0-0.02,0
		c-1.05,0-2.03-0.41-2.76-1.16C991.51,539.73,991.11,538.74,991.11,537.7z M994.29,527.67l-8.52,13.94
		c-0.26,0.43-0.72,0.67-1.2,0.67c-0.25,0-0.5-0.07-0.73-0.21c-0.66-0.4-0.87-1.27-0.46-1.93l8.52-13.94
		c0.4-0.66,1.27-0.87,1.93-0.47C994.48,526.15,994.69,527.01,994.29,527.67z M986.51,530.3c-0.01,2.15-1.76,3.9-3.91,3.9
		c0,0-0.01,0-0.02,0c-2.16-0.01-3.91-1.77-3.9-3.93c0-1.04,0.42-2.03,1.16-2.76c0.74-0.74,1.72-1.12,2.77-1.14
		C984.77,526.38,986.52,528.14,986.51,530.3C986.51,530.3,986.51,530.3,986.51,530.3z M975.5,537.01c-0.02,5.5-1.23,9.81-3.58,12.8
		c-2.43,3.08-5.96,4.64-10.52,4.64c-0.03,0-0.05,0-0.08,0c-4.53-0.02-8.07-1.58-10.5-4.63c-2.35-2.95-3.56-7.17-3.6-12.52l0.03-6.93
		c0.02-5.56,1.24-9.88,3.63-12.84c2.47-3.05,6.05-4.61,10.55-4.57c4.53,0.02,8.06,1.57,10.5,4.62c2.35,2.95,3.56,7.16,3.6,12.5
		L975.5,537.01z M926.5,566.44c0.1-0.49,0.35-0.94,0.74-1.27c0.41-0.34,0.91-0.53,1.44-0.53c0.06,0,0.13,0,0.19,0.01l3.54,0.3
		c0.72,0.73,1.46,1.44,2.24,2.12L926.5,566.44z"/>
	<path class="st0" d="M961.4,521.85c-0.01,0-0.01,0-0.02,0c-1.24,0-2.08,0.42-2.65,1.34c-0.7,1.12-1.08,3.01-1.14,5.61l-0.04,9.12
		c-0.01,2.8,0.34,4.87,1.04,6.14c0.58,1.04,1.43,1.51,2.76,1.51c0.01,0,0.02,0,0.02,0c1.3,0,2.13-0.43,2.68-1.41
		c0.69-1.21,1.06-3.18,1.1-5.87l0.04-8.92c0.01-3.54-0.56-5.26-1.05-6.08C963.57,522.31,962.69,521.85,961.4,521.85z"/>
	<path class="st0" d="M982.6,529.17C982.6,529.17,982.6,529.17,982.6,529.17c-0.3,0-0.58,0.11-0.79,0.32
		c-0.21,0.21-0.33,0.49-0.33,0.78c0,0.61,0.49,1.11,1.11,1.12c0,0,0,0,0,0c0.61,0,1.11-0.5,1.11-1.11
		C983.71,529.68,983.21,529.18,982.6,529.17z"/>
	<path class="st0" d="M995.03,538.82c0.3,0,0.57-0.11,0.78-0.32c0.21-0.21,0.33-0.49,0.33-0.78c0,0,0,0,0,0
		c0-0.61-0.49-1.11-1.11-1.12c0,0,0,0,0,0c-0.61,0-1.11,0.5-1.11,1.11c0,0.3,0.11,0.58,0.32,0.79
		C994.45,538.71,994.73,538.82,995.03,538.82C995.02,538.82,995.03,538.82,995.03,538.82z"/>
</g>
</svg>
