<?xml version="1.0" encoding="utf-8"?>
<!-- Generator: Adobe Illustrator 24.1.2, SVG Export Plug-In . SVG Version: 6.00 Build 0)  -->
<svg version="1.1" id="Layer_1" xmlns="http://www.w3.org/2000/svg" xmlns:xlink="http://www.w3.org/1999/xlink" x="0px" y="0px"
	 viewBox="0 0 1920 1080" style="enable-background:new 0 0 1920 1080;" xml:space="preserve">
<style type="text/css">
	.st0{fill:#F45E39;}
</style>
<g>
	<path class="st0" d="M1028.44,573.47h-16.27c2.57-1.97,4.44-4.81,5.11-8.1h5.23c1.1,0,2-0.9,2-2V546c0-4.53-3.3-8.3-7.62-9.05
		l-12.27-22.28c-0.35-0.64-1.02-1.04-1.75-1.04h-15v-9.1c0-1.1-0.9-2-2-2h-70.58h-23.73c-1.1,0-2,0.9-2,2v58.83c0,1.1,0.9,2,2,2
		h8.02c0.67,3.29,2.53,6.13,5.11,8.1h-12.65c-1.1,0-2,0.9-2,2s0.9,2,2,2h136.41c1.1,0,2-0.9,2-2S1029.55,573.47,1028.44,573.47z
		 M1005.2,524.02l7.04,12.79h-3.72l-7.25-12.65l-1.26-2.19c-0.55-0.96-1.77-1.29-2.73-0.74c-0.96,0.55-1.29,1.77-0.74,2.73l0.12,0.2
		l7.25,12.65h-2.48l-4.41-8c-0.53-0.97-1.75-1.32-2.72-0.79c-0.97,0.53-1.32,1.75-0.79,2.72l3.35,6.07h-9.01v-12.65v-4v-2.52h13.82
		l1.39,2.52L1005.2,524.02z M1020.52,561.37h-3.02c-0.3-3.25-1.74-6.17-3.92-8.35c-0.76-0.77-1.62-1.43-2.55-2
		c-1.96-1.2-4.23-1.92-6.67-2c-0.15,0-0.29-0.02-0.44-0.02s-0.29,0.02-0.44,0.02c-2.44,0.08-4.71,0.8-6.67,2
		c-0.93,0.57-1.79,1.23-2.55,2c-0.89,0.89-1.65,1.9-2.26,3.01c-0.43,0.77-0.79,1.59-1.06,2.45c-0.3,0.93-0.5,1.9-0.59,2.9h-0.72
		h-1.75v-4.38v-2.98v-0.99v-1.56v-0.44v-2v-8.21h12.39h13.37h1.69c0.11,0,0.21,0.02,0.31,0.03c0.72,0.04,1.39,0.23,2,0.54
		c1.7,0.85,2.88,2.6,2.88,4.62V561.37z M1013.16,565.37c-1.18,3.99-4.87,6.91-9.24,6.91s-8.06-2.92-9.24-6.91
		c-0.19-0.64-0.31-1.31-0.36-2c-0.02-0.24-0.04-0.49-0.04-0.73c0-0.43,0.04-0.85,0.09-1.27c0.6-4.57,4.42-8.14,9.11-8.35h0.89
		c4.68,0.21,8.5,3.78,9.11,8.35c0.05,0.42,0.09,0.84,0.09,1.27c0,0.25-0.02,0.49-0.04,0.73
		C1013.47,564.06,1013.35,564.73,1013.16,565.37z M949.71,561.37c-0.64-6.93-6.48-12.38-13.58-12.38c-4.9,0-9.19,2.6-11.59,6.49
		c-0.42,0.68-0.79,1.4-1.09,2.16c-0.46,1.17-0.77,2.42-0.89,3.72h-0.06h-5.2v-7.33v-2.2v-2.12v-43.18h66.58v9.1v23.17v10.73v1.47
		v0.62v2.14v7.59h-13.35h-0.12v-5.21v-3.13v-9.38c5.12-2.91,8.37-8.41,8.37-14.34c0-6.37-3.74-12.23-9.52-14.94
		c-0.62-0.29-1.34-0.24-1.92,0.12c-0.58,0.37-0.93,1-0.93,1.69v11.13h-8.27v-11.13c0-0.68-0.35-1.32-0.93-1.69
		c-0.58-0.37-1.3-0.41-1.92-0.12c-5.78,2.71-9.52,8.57-9.52,14.94c0,5.93,3.25,11.43,8.37,14.34v17.72H949.71z M945.37,565.37
		c-1.18,3.99-4.87,6.91-9.24,6.91s-8.06-2.92-9.24-6.91c-0.17-0.58-0.29-1.18-0.35-1.8c-0.01-0.06-0.01-0.13-0.01-0.2
		c-0.02-0.24-0.04-0.49-0.04-0.73c0-0.31,0.02-0.62,0.05-0.93c0.01-0.11,0.03-0.22,0.05-0.34c0.62-4.72,4.66-8.38,9.55-8.38
		s8.93,3.66,9.55,8.38c0.05,0.42,0.09,0.84,0.09,1.27c0,0.25-0.02,0.49-0.04,0.73C945.68,564.06,945.56,564.73,945.37,565.37z
		 M956.97,540.62c-4.38-2.05-7.22-6.5-7.22-11.32c0-3.67,1.65-7.13,4.37-9.47v9.47c0,1.1,0.9,2,2,2h12.27c1.1,0,2-0.9,2-2v-9.47
		c2.72,2.34,4.37,5.8,4.37,9.47c0,4.82-2.83,9.26-7.22,11.32c-0.7,0.33-1.15,1.04-1.15,1.81v18.86h-8.27v-18.86
		C958.13,541.66,957.68,540.95,956.97,540.62z M921.2,573.47c1.32-1.01,2.46-2.26,3.34-3.68c0.88,1.42,2.01,2.67,3.34,3.68H921.2z
		 M944.39,573.47c2.57-1.97,4.44-4.81,5.11-8.1h17.21c0.67,3.29,2.53,6.13,5.11,8.1H944.39z M988.33,573.47
		c1.49-1.14,2.75-2.57,3.66-4.22c0.92,1.65,2.17,3.08,3.66,4.22H988.33z"/>
	<path class="st0" d="M940.06,520.94h-11.72c-1.1,0-2,0.9-2,2v20.64c0,1.1,0.9,2,2,2s2-0.9,2-2v-8.46h8.32c1.1,0,2-0.9,2-2
		s-0.9-2-2-2h-8.32v-6.18h9.72c1.1,0,2-0.9,2-2S941.16,520.94,940.06,520.94z"/>
</g>
</svg>
