<?xml version="1.0" encoding="utf-8"?>
<!-- Generator: Adobe Illustrator 25.0.0, SVG Export Plug-In . SVG Version: 6.00 Build 0)  -->
<svg version="1.1" id="Layer_1" xmlns="http://www.w3.org/2000/svg" xmlns:xlink="http://www.w3.org/1999/xlink" x="0px" y="0px"
	 viewBox="0 0 444.1 1051.8" style="enable-background:new 0 0 444.1 1051.8;" xml:space="preserve">
<style type="text/css">
	.st0{fill:#F45E39;stroke:#FFCC33;stroke-width:3;stroke-miterlimit:10;}
	.st1{fill:#F45E39;stroke:#FFCC33;stroke-width:2.4248;stroke-miterlimit:10;}
	.st2{fill:#FAFAC6;stroke:#FAFAC6;stroke-width:1.7258;stroke-miterlimit:10;}
	.st3{fill:#FAFAC6;stroke:#FAFAC6;stroke-width:1.6593;stroke-miterlimit:10;}
	.st4{fill:#FAFAC6;stroke:#FAFAC6;stroke-width:1.6612;stroke-miterlimit:10;}
	.st5{clip-path:url(#SVGID_2_);}
	.st6{fill:#FF6666;stroke:#FAFAC6;stroke-width:1.7258;stroke-miterlimit:10;}
	.st7{fill:#FF6666;stroke:#FAFAC6;stroke-width:1.6585;stroke-miterlimit:10;}
	.st8{fill:#FF6666;stroke:#FFFFFF;stroke-width:1.7258;stroke-miterlimit:10;}
	.st9{fill:none;stroke:#FFCC33;stroke-width:2.4248;stroke-miterlimit:10;}
	.st10{clip-path:url(#SVGID_4_);}
	.st11{clip-path:url(#SVGID_6_);}
	.st12{clip-path:url(#SVGID_8_);}
	.st13{clip-path:url(#SVGID_10_);}
	.st14{clip-path:url(#SVGID_12_);}
	.st15{clip-path:url(#SVGID_14_);}
	.st16{clip-path:url(#SVGID_16_);}
	.st17{clip-path:url(#SVGID_18_);}
	.st18{clip-path:url(#SVGID_20_);}
	.st19{fill:#FAFAC6;stroke:#FAFAC6;stroke-width:1.724;stroke-miterlimit:10;}
	.st20{clip-path:url(#SVGID_22_);}
	.st21{fill:#FAFAC6;}
	.st22{fill:#F45E39;}
	.st23{clip-path:url(#SVGID_24_);}
	.st24{fill:#F45E39;stroke:#FAFAC6;stroke-width:1.5417;stroke-linecap:round;stroke-linejoin:round;stroke-miterlimit:10;}
	.st25{fill:#FAFAC6;stroke:#FAFAC6;stroke-width:1.5417;stroke-linecap:round;stroke-linejoin:round;stroke-miterlimit:10;}
	.st26{clip-path:url(#SVGID_26_);fill:none;stroke:#FAFAC6;stroke-width:2.1005;stroke-linejoin:round;stroke-miterlimit:10;}
	.st27{clip-path:url(#SVGID_28_);fill:none;stroke:#FAFAC6;stroke-width:2.1005;stroke-linejoin:round;stroke-miterlimit:10;}
	.st28{clip-path:url(#SVGID_30_);fill:none;stroke:#FAFAC6;stroke-width:2.1005;stroke-linejoin:round;stroke-miterlimit:10;}
	.st29{clip-path:url(#SVGID_32_);fill:#FAFAC6;stroke:#F45E39;stroke-width:2.1005;stroke-miterlimit:10;}
	.st30{clip-path:url(#SVGID_34_);fill:none;stroke:#FAFAC6;stroke-width:2.1005;stroke-linejoin:round;stroke-miterlimit:10;}
	.st31{clip-path:url(#SVGID_36_);fill:#FAFAC6;}
	.st32{opacity:0.5;clip-path:url(#SVGID_38_);fill:url(#SVGID_39_);enable-background:new    ;}
	.st33{clip-path:url(#SVGID_41_);}
	.st34{fill:#FAFAC6;stroke:#FAFAC6;stroke-width:2.1814;stroke-linecap:round;stroke-linejoin:round;stroke-miterlimit:10;}
	.st35{fill:#F45E39;stroke:#FAFAC6;stroke-width:2.1814;stroke-linecap:round;stroke-linejoin:round;stroke-miterlimit:10;}
</style>
<g>
	<path class="st0" d="M438.7,1046.8H5.5V117.9L438.7,6.2V1046.8z"/>
	<path class="st1" d="M122.9,461.5c-10.6,0-21.2,2-31.1,5.6c-11.3,4.1-20,11.1-32.5,11.1h-5v37h9.8v168.5"/>
	<path class="st1" d="M122.7,461.6c9.7,0,19.4,1.7,28.7,4.7c12,3.9,22,11.9,35,11.9h5v37h-9.8v168.1"/>
	<path class="st1" d="M117.3,476.7l-4.5-37.3h18.5l-3.8,37.3H117.3z"/>
	<path class="st1" d="M53.2,683.5h144.4v23.5H53.2V683.5z"/>
	<path class="st1" d="M322.5,192.3c-10.6,0-21.2,2-31.1,5.6c-11.3,4.1-20,11.1-32.5,11.1h-5v37h9.8v118.6"/>
	<path class="st1" d="M322.5,192.3c9.7,0,19.4,1.7,28.7,4.7c11.9,3.9,22,11.9,35,11.9h5v37h-9.8v118.2"/>
	<path class="st1" d="M316.8,207.5l-4.5-37.3h18.5l-3.8,37.3H316.8z"/>
	<path class="st1" d="M252.7,364.7h144.4v23.5H252.7L252.7,364.7z"/>
	<path class="st2" d="M278,277.9h87.5"/>
	<path class="st2" d="M278,286.8h87.5"/>
	<path class="st2" d="M278,295.7h87.5"/>
	<path class="st2" d="M278,304.6h87.5"/>
	<path class="st2" d="M278,313.5h87.5"/>
	<path class="st2" d="M278,322.4h87.5"/>
	<path class="st2" d="M278,331.3h87.5"/>
	<path class="st2" d="M278,340.1h87.5"/>
	<path class="st2" d="M278,349h87.5"/>
	<path class="st2" d="M278,357.9h87.5"/>
	<path class="st3" d="M288.1,273.5h28.5"/>
	<path class="st3" d="M288.1,282.4h28.5"/>
	<path class="st3" d="M288.1,291.3h28.5"/>
	<path class="st3" d="M288.1,300.2h28.5"/>
	<path class="st3" d="M288.1,309.1h28.5"/>
	<path class="st3" d="M288.1,318h28.5"/>
	<path class="st3" d="M288.1,326.8h28.5"/>
	<path class="st3" d="M288.1,335.7h28.5"/>
	<path class="st3" d="M288.1,344.6h28.5"/>
	<path class="st3" d="M288.1,353.5h28.5"/>
	<path class="st4" d="M326.7,273.5h28.6"/>
	<path class="st4" d="M326.7,282.4h28.6"/>
	<path class="st4" d="M326.7,291.3h28.6"/>
	<path class="st4" d="M326.7,300.2h28.6"/>
	<path class="st4" d="M326.7,309.1h28.6"/>
	<path class="st4" d="M326.7,318h28.6"/>
	<path class="st4" d="M326.7,326.8h28.6"/>
	<path class="st4" d="M326.7,335.7h28.6"/>
	<path class="st4" d="M326.7,344.6h28.6"/>
	<path class="st4" d="M326.7,353.5h28.6"/>
	<g>
		<defs>
			<path id="SVGID_1_" d="M322.5,207.8c-25.3,0-44.5,13.2-45.6,13.6V255h45.6h45.6v-33.6C366.9,221,347.7,207.8,322.5,207.8z"/>
		</defs>
		<clipPath id="SVGID_2_">
			<use xlink:href="#SVGID_1_"  style="overflow:visible;"/>
		</clipPath>
		<g class="st5">
			<path class="st2" d="M278,210h88.9"/>
			<path class="st6" d="M278,218.8h88.9"/>
			<path class="st6" d="M278,227.7h88.9"/>
			<path class="st6" d="M278,236.6h88.9"/>
			<path class="st2" d="M278,245.5h88.9"/>
			<g>
				<path class="st7" d="M288.1,249.7h28.6"/>
				<path class="st7" d="M288.1,223.3h28.6"/>
				<path class="st7" d="M288.1,232.2h28.6"/>
				<path class="st7" d="M288.1,241.1h28.6"/>
				<path class="st7" d="M326.7,249.7h28.6"/>
				<path class="st7" d="M326.7,223.3h28.6"/>
				<path class="st7" d="M326.7,232.2h28.6"/>
				<path class="st7" d="M326.7,241.1h28.6"/>
				<path class="st8" d="M278,277.9h87.5"/>
				<path class="st8" d="M278,286.8h87.5"/>
				<path class="st8" d="M278,295.7h87.5"/>
				<path class="st8" d="M278,304.6h87.5"/>
				<path class="st8" d="M278,313.5h87.5"/>
				<path class="st8" d="M278,322.4h87.5"/>
				<path class="st8" d="M278,331.3h87.5"/>
				<path class="st8" d="M278,340.1h87.5"/>
				<path class="st8" d="M278,349h87.5"/>
				<path class="st8" d="M278,357.9h87.5"/>
			</g>
		</g>
	</g>
	<path class="st9" d="M276.8,365.1v-96.1h89.7v95.4"/>
	<path class="st9" d="M322.5,207.8c-25.3,0-44.5,13.2-45.6,13.6V255h45.6h45.6v-33.6C366.9,221,347.7,207.8,322.5,207.8z"/>
	<path class="st1" d="M322.5,460c-10.6,0-21.2,2-31.1,5.6c-11.3,4.1-20,11.1-32.5,11.1h-5v37h9.8v169"/>
	<path class="st1" d="M322.5,460c9.7,0,19.4,1.7,28.7,4.7c11.9,3.9,22,11.9,35,11.9h5v37h-9.8v168.6"/>
	<path class="st1" d="M316.8,475.2l-4.5-37.3h18.5l-3.8,37.3L316.8,475.2z"/>
	<path class="st1" d="M252.7,683.5h144.4v23.5H252.7L252.7,683.5z"/>
	<path class="st9" d="M276.8,683.2V536.6h89.7v145.8"/>
	<path class="st9" d="M77.3,684.3V538.2H167v145.3"/>
	<path class="st2" d="M278,545.7h87.5"/>
	<path class="st2" d="M278,555.5h87.5"/>
	<path class="st2" d="M278,565.4h87.5"/>
	<path class="st2" d="M278,575.3h87.5"/>
	<path class="st2" d="M278,585.1h87.5"/>
	<path class="st2" d="M278,595h87.5"/>
	<path class="st2" d="M278,604.8h87.5"/>
	<path class="st2" d="M278,614.7h87.5"/>
	<path class="st2" d="M278,624.5h87.5"/>
	<path class="st2" d="M278,634.4h87.5"/>
	<path class="st2" d="M278,644.3h87.5"/>
	<path class="st2" d="M278,654.1h87.5"/>
	<path class="st2" d="M278,664h87.5"/>
	<path class="st2" d="M278,673.8h87.5"/>
	<g>
		<defs>
			<path id="SVGID_3_" d="M322.5,475.6c-25.3,0-44.5,13.2-45.6,13.6v33.6h45.6h45.6v-33.6C366.9,488.8,347.7,475.6,322.5,475.6
				L322.5,475.6z"/>
		</defs>
		<clipPath id="SVGID_4_">
			<use xlink:href="#SVGID_3_"  style="overflow:visible;"/>
		</clipPath>
		<g class="st10">
			<path class="st2" d="M278,485.1h88.9"/>
			<path class="st2" d="M278,494h88.9"/>
			<path class="st2" d="M278,502.8h88.9"/>
			<path class="st2" d="M278,511.7h88.9"/>
			<path class="st2" d="M278,520.6h88.9"/>
		</g>
	</g>
	<g>
		<defs>
			<path id="SVGID_5_" d="M322.5,475.6c-25.3,0-44.5,13.2-45.6,13.6v33.6h45.6h45.6v-33.6C366.9,488.8,347.7,475.6,322.5,475.6
				L322.5,475.6z"/>
		</defs>
		<clipPath id="SVGID_6_">
			<use xlink:href="#SVGID_5_"  style="overflow:visible;"/>
		</clipPath>
		<g class="st11">
			<path class="st2" d="M327.2,489.3h28.2"/>
			<path class="st2" d="M327.2,498.3h28.2"/>
			<path class="st2" d="M327.2,507.2h28.2"/>
			<path class="st2" d="M327.2,516.1h28.2"/>
		</g>
	</g>
	<g>
		<defs>
			<path id="SVGID_7_" d="M322.5,475.6c-25.3,0-44.5,13.2-45.6,13.6v33.6h45.6h45.6v-33.6C366.9,488.8,347.7,475.6,322.5,475.6
				L322.5,475.6z"/>
		</defs>
		<clipPath id="SVGID_8_">
			<use xlink:href="#SVGID_7_"  style="overflow:visible;"/>
		</clipPath>
		<g class="st12">
			<path class="st2" d="M288.2,489.3h28.2"/>
			<path class="st2" d="M288.2,498.3h28.2"/>
			<path class="st2" d="M288.2,507.2h28.2"/>
			<path class="st2" d="M288.2,516.1h28.2"/>
		</g>
	</g>
	<path class="st9" d="M322.5,475.6c-25.3,0-44.5,13.2-45.6,13.6v33.6h45.6h45.6v-33.6C366.9,488.8,347.7,475.6,322.5,475.6
		L322.5,475.6z"/>
	<g>
		<defs>
			<path id="SVGID_9_" d="M122.9,477.1c-25.3,0-44.5,13.2-45.6,13.6v33.6h45.6h45.6v-33.6C167.4,490.3,148.2,477.1,122.9,477.1
				L122.9,477.1z"/>
		</defs>
		<clipPath id="SVGID_10_">
			<use xlink:href="#SVGID_9_"  style="overflow:visible;"/>
		</clipPath>
		<g class="st13">
			<path class="st2" d="M78.4,486.6h88.9"/>
			<path class="st2" d="M78.4,495.5h88.9"/>
			<path class="st2" d="M78.4,504.4h88.9"/>
			<path class="st2" d="M78.4,513.3h88.9"/>
			<path class="st2" d="M78.4,522.2h88.9"/>
		</g>
	</g>
	<g>
		<defs>
			<path id="SVGID_11_" d="M122.9,477.1c-25.3,0-44.5,13.2-45.6,13.6v33.6h45.6h45.6v-33.6C167.4,490.3,148.2,477.1,122.9,477.1
				L122.9,477.1z"/>
		</defs>
		<clipPath id="SVGID_12_">
			<use xlink:href="#SVGID_11_"  style="overflow:visible;"/>
		</clipPath>
		<g class="st14">
			<path class="st2" d="M127.7,490.9h28.2"/>
			<path class="st2" d="M127.7,499.8h28.2"/>
			<path class="st2" d="M127.7,508.8h28.2"/>
			<path class="st2" d="M127.7,517.7h28.2"/>
		</g>
	</g>
	<g>
		<defs>
			<path id="SVGID_13_" d="M122.9,477.1c-25.3,0-44.5,13.2-45.6,13.6v33.6h45.6h45.6v-33.6C167.4,490.3,148.2,477.1,122.9,477.1
				L122.9,477.1z"/>
		</defs>
		<clipPath id="SVGID_14_">
			<use xlink:href="#SVGID_13_"  style="overflow:visible;"/>
		</clipPath>
		<g class="st15">
			<path class="st2" d="M88.7,490.9h28.2"/>
			<path class="st2" d="M88.7,499.8h28.2"/>
			<path class="st2" d="M88.7,508.8h28.2"/>
			<path class="st2" d="M88.7,517.7h28.2"/>
		</g>
	</g>
	<path class="st9" d="M122.9,477.1c-25.3,0-44.5,13.2-45.6,13.6v33.6h45.6h45.6v-33.6C167.4,490.3,148.2,477.1,122.9,477.1z"/>
	<path class="st1" d="M122.6,192.3c-10.6,0-21.2,2-31.1,5.6c-11.3,4.1-20,11.1-32.5,11.1h-5v37h9.8v118.6"/>
	<path class="st1" d="M122.6,192.3c9.7,0,19.4,1.7,28.7,4.7c12,3.9,22,11.9,35,11.9h5v37h-9.8v118.2"/>
	<path class="st1" d="M117,207.5l-4.5-37.3h18.5l-3.8,37.3H117z"/>
	<path class="st1" d="M52.9,364.7h144.4v23.5H52.9V364.7z"/>
	<path class="st2" d="M78.1,277.9h87.5"/>
	<path class="st2" d="M78.1,286.8h87.5"/>
	<path class="st2" d="M78.1,295.7h87.5"/>
	<path class="st2" d="M78.1,304.6h87.5"/>
	<path class="st2" d="M78.1,313.5h87.5"/>
	<path class="st2" d="M78.1,322.4h87.5"/>
	<path class="st2" d="M78.1,331.3h87.5"/>
	<path class="st2" d="M78.1,340.1h87.5"/>
	<path class="st2" d="M78.1,349h87.5"/>
	<path class="st2" d="M78.1,357.9h87.5"/>
	<path class="st3" d="M88.3,273.5h28.5"/>
	<path class="st3" d="M88.3,282.4h28.5"/>
	<path class="st3" d="M88.3,291.3h28.5"/>
	<path class="st3" d="M88.3,300.2h28.5"/>
	<path class="st3" d="M88.3,309.1h28.5"/>
	<path class="st3" d="M88.3,318h28.5"/>
	<path class="st3" d="M88.3,326.8h28.5"/>
	<path class="st3" d="M88.3,335.7h28.5"/>
	<path class="st3" d="M88.3,344.6h28.5"/>
	<path class="st3" d="M88.3,353.5h28.5"/>
	<path class="st4" d="M126.9,273.5h28.6"/>
	<path class="st4" d="M126.9,282.4h28.6"/>
	<path class="st4" d="M126.9,291.3h28.6"/>
	<path class="st4" d="M126.9,300.2h28.6"/>
	<path class="st4" d="M126.9,309.1h28.6"/>
	<path class="st4" d="M126.9,318h28.6"/>
	<path class="st4" d="M126.9,326.8h28.6"/>
	<path class="st4" d="M126.9,335.7h28.6"/>
	<path class="st4" d="M126.9,344.6h28.6"/>
	<path class="st4" d="M126.9,353.5h28.6"/>
	<g>
		<defs>
			<path id="SVGID_15_" d="M122.6,207.8c-25.3,0-44.5,13.2-45.6,13.6V255h45.6h45.6v-33.6C167.1,221,147.9,207.8,122.6,207.8z"/>
		</defs>
		<clipPath id="SVGID_16_">
			<use xlink:href="#SVGID_15_"  style="overflow:visible;"/>
		</clipPath>
		<g class="st16">
			<path class="st2" d="M78.1,210H167"/>
			<path class="st6" d="M78.1,218.8H167"/>
			<path class="st6" d="M78.1,227.7H167"/>
			<path class="st6" d="M78.1,236.6H167"/>
			<path class="st2" d="M78.1,245.5H167"/>
			<g>
				<path class="st7" d="M88.2,249.7h28.6"/>
				<path class="st7" d="M88.2,223.3h28.6"/>
				<path class="st7" d="M88.2,232.2h28.6"/>
				<path class="st7" d="M88.2,241.1h28.6"/>
				<path class="st7" d="M126.9,249.7h28.6"/>
				<path class="st7" d="M126.9,223.3h28.6"/>
				<path class="st7" d="M126.9,232.2h28.6"/>
				<path class="st7" d="M126.9,241.1h28.6"/>
				<path class="st8" d="M78.1,277.9h87.5"/>
				<path class="st8" d="M78.1,286.8h87.5"/>
				<path class="st8" d="M78.1,295.7h87.5"/>
				<path class="st8" d="M78.1,304.6h87.5"/>
				<path class="st8" d="M78.1,313.5h87.5"/>
				<path class="st8" d="M78.1,322.4h87.5"/>
				<path class="st8" d="M78.1,331.3h87.5"/>
				<path class="st8" d="M78.1,340.1h87.5"/>
				<path class="st8" d="M78.1,349h87.5"/>
				<path class="st8" d="M78.1,357.9h87.5"/>
			</g>
		</g>
	</g>
	<path class="st9" d="M77,365.1v-96.1h89.7v95.4"/>
	<path class="st9" d="M122.6,207.8c-25.3,0-44.5,13.2-45.6,13.6V255h45.6h45.6v-33.6C167.1,221,147.9,207.8,122.6,207.8z"/>
	<path class="st1" d="M322.5,781c-10.6,0-21.2,2-31.1,5.6c-11.3,4.1-20,11.1-32.5,11.1h-5v37h9.8v118.6"/>
	<path class="st1" d="M322.5,781c9.7,0,19.4,1.7,28.7,4.7c11.9,3.9,22,11.9,35,11.9h5v37h-9.8v118.2"/>
	<path class="st1" d="M316.8,796.2l-4.5-37.3h18.5l-3.8,37.3H316.8z"/>
	<path class="st1" d="M252.7,953.4h144.4v23.5H252.7L252.7,953.4z"/>
	<path class="st2" d="M278,866.7h87.5"/>
	<path class="st2" d="M278,875.5h87.5"/>
	<path class="st2" d="M278,884.4h87.5"/>
	<path class="st2" d="M278,893.3h87.5"/>
	<path class="st2" d="M278,902.2h87.5"/>
	<path class="st2" d="M278,911.1h87.5"/>
	<path class="st2" d="M278,920h87.5"/>
	<path class="st2" d="M278,928.8h87.5"/>
	<path class="st2" d="M278,937.7h87.5"/>
	<path class="st2" d="M278,946.6h87.5"/>
	<path class="st3" d="M288.1,862.2h28.5"/>
	<path class="st3" d="M288.1,871.1h28.5"/>
	<path class="st3" d="M288.1,880h28.5"/>
	<path class="st3" d="M288.1,888.9h28.5"/>
	<path class="st3" d="M288.1,897.8h28.5"/>
	<path class="st3" d="M288.1,906.7h28.5"/>
	<path class="st3" d="M288.1,915.5h28.5"/>
	<path class="st3" d="M288.1,924.4h28.5"/>
	<path class="st3" d="M288.1,933.3h28.5"/>
	<path class="st3" d="M288.1,942.2h28.5"/>
	<path class="st4" d="M326.7,862.2h28.6"/>
	<path class="st4" d="M326.7,871.1h28.6"/>
	<path class="st4" d="M326.7,880h28.6"/>
	<path class="st4" d="M326.7,888.9h28.6"/>
	<path class="st4" d="M326.7,897.8h28.6"/>
	<path class="st4" d="M326.7,906.7h28.6"/>
	<path class="st4" d="M326.7,915.5h28.6"/>
	<path class="st4" d="M326.7,924.4h28.6"/>
	<path class="st4" d="M326.7,933.3h28.6"/>
	<path class="st4" d="M326.7,942.2h28.6"/>
	<g>
		<defs>
			<path id="SVGID_17_" d="M322.5,796.5c-25.3,0-44.5,13.2-45.6,13.6v33.6h45.6h45.6v-33.6C366.9,809.7,347.7,796.5,322.5,796.5z"/>
		</defs>
		<clipPath id="SVGID_18_">
			<use xlink:href="#SVGID_17_"  style="overflow:visible;"/>
		</clipPath>
		<g class="st17">
			<path class="st2" d="M278,798.7h88.9"/>
			<path class="st6" d="M278,807.6h88.9"/>
			<path class="st6" d="M278,816.4h88.9"/>
			<path class="st6" d="M278,825.3h88.9"/>
			<path class="st2" d="M278,834.2h88.9"/>
			<g>
				<path class="st7" d="M288.1,838.4h28.6"/>
				<path class="st7" d="M288.1,812h28.6"/>
				<path class="st7" d="M288.1,820.9h28.6"/>
				<path class="st7" d="M288.1,829.8h28.6"/>
				<path class="st7" d="M326.7,838.4h28.6"/>
				<path class="st7" d="M326.7,812h28.6"/>
				<path class="st7" d="M326.7,820.9h28.6"/>
				<path class="st7" d="M326.7,829.8h28.6"/>
				<path class="st8" d="M278,866.7h87.5"/>
				<path class="st8" d="M278,875.5h87.5"/>
				<path class="st8" d="M278,884.4h87.5"/>
				<path class="st8" d="M278,893.3h87.5"/>
				<path class="st8" d="M278,902.2h87.5"/>
				<path class="st8" d="M278,911.1h87.5"/>
				<path class="st8" d="M278,920h87.5"/>
				<path class="st8" d="M278,928.8h87.5"/>
				<path class="st8" d="M278,937.7h87.5"/>
				<path class="st8" d="M278,946.6h87.5"/>
			</g>
		</g>
	</g>
	<path class="st9" d="M276.8,953.8v-96.2h89.7V953"/>
	<path class="st9" d="M322.5,796.5c-25.3,0-44.5,13.2-45.6,13.6v33.6h45.6h45.6v-33.6C366.9,809.7,347.7,796.5,322.5,796.5z"/>
	<path class="st1" d="M122.6,781c-10.6,0-21.2,2-31.1,5.6c-11.3,4.1-20,11.1-32.5,11.1h-5v37h9.8v118.6"/>
	<path class="st1" d="M122.6,781c9.7,0,19.4,1.7,28.7,4.7c12,3.9,22,11.9,35,11.9h5v37h-9.8v118.2"/>
	<path class="st1" d="M117,796.2l-4.5-37.3h18.5l-3.8,37.3H117z"/>
	<path class="st1" d="M52.9,953.4h144.4v23.5H52.9V953.4z"/>
	<path class="st2" d="M78.1,866.7h87.5"/>
	<path class="st2" d="M78.1,875.5h87.5"/>
	<path class="st2" d="M78.1,884.4h87.5"/>
	<path class="st2" d="M78.1,893.3h87.5"/>
	<path class="st2" d="M78.1,902.2h87.5"/>
	<path class="st2" d="M78.1,911.1h87.5"/>
	<path class="st2" d="M78.1,920h87.5"/>
	<path class="st2" d="M78.1,928.8h87.5"/>
	<path class="st2" d="M78.1,937.7h87.5"/>
	<path class="st2" d="M78.1,946.6h87.5"/>
	<path class="st3" d="M88.3,862.2h28.5"/>
	<path class="st3" d="M88.3,871.1h28.5"/>
	<path class="st3" d="M88.3,880h28.5"/>
	<path class="st3" d="M88.3,888.9h28.5"/>
	<path class="st3" d="M88.3,897.8h28.5"/>
	<path class="st3" d="M88.3,906.7h28.5"/>
	<path class="st3" d="M88.3,915.5h28.5"/>
	<path class="st3" d="M88.3,924.4h28.5"/>
	<path class="st3" d="M88.3,933.3h28.5"/>
	<path class="st3" d="M88.3,942.2h28.5"/>
	<path class="st4" d="M126.9,862.2h28.6"/>
	<path class="st4" d="M126.9,871.1h28.6"/>
	<path class="st4" d="M126.9,880h28.6"/>
	<path class="st4" d="M126.9,888.9h28.6"/>
	<path class="st4" d="M126.9,897.8h28.6"/>
	<path class="st4" d="M126.9,906.7h28.6"/>
	<path class="st4" d="M126.9,915.5h28.6"/>
	<path class="st4" d="M126.9,924.4h28.6"/>
	<path class="st4" d="M126.9,933.3h28.6"/>
	<path class="st4" d="M126.9,942.2h28.6"/>
	<g>
		<defs>
			<path id="SVGID_19_" d="M122.6,796.5c-25.3,0-44.5,13.2-45.6,13.6v33.6h45.6h45.6v-33.6C167.1,809.7,147.9,796.5,122.6,796.5z"/>
		</defs>
		<clipPath id="SVGID_20_">
			<use xlink:href="#SVGID_19_"  style="overflow:visible;"/>
		</clipPath>
		<g class="st18">
			<path class="st2" d="M78.1,798.7H167"/>
			<path class="st6" d="M78.1,807.6H167"/>
			<path class="st6" d="M78.1,816.4H167"/>
			<path class="st6" d="M78.1,825.3H167"/>
			<path class="st2" d="M78.1,834.2H167"/>
			<g>
				<path class="st7" d="M88.2,838.4h28.6"/>
				<path class="st7" d="M88.2,812h28.6"/>
				<path class="st7" d="M88.2,820.9h28.6"/>
				<path class="st7" d="M88.2,829.8h28.6"/>
				<path class="st7" d="M126.9,838.4h28.6"/>
				<path class="st7" d="M126.9,812h28.6"/>
				<path class="st7" d="M126.9,820.9h28.6"/>
				<path class="st7" d="M126.9,829.8h28.6"/>
				<path class="st8" d="M78.1,866.7h87.5"/>
				<path class="st8" d="M78.1,875.5h87.5"/>
				<path class="st8" d="M78.1,884.4h87.5"/>
				<path class="st8" d="M78.1,893.3h87.5"/>
				<path class="st8" d="M78.1,902.2h87.5"/>
				<path class="st8" d="M78.1,911.1h87.5"/>
				<path class="st8" d="M78.1,920h87.5"/>
				<path class="st8" d="M78.1,928.8h87.5"/>
				<path class="st8" d="M78.1,937.7h87.5"/>
				<path class="st8" d="M78.1,946.6h87.5"/>
			</g>
		</g>
	</g>
	<path class="st9" d="M77,953.8v-96.2h89.7V953"/>
	<path class="st9" d="M122.6,796.5c-25.3,0-44.5,13.2-45.6,13.6v33.6h45.6h45.6v-33.6C167.1,809.7,147.9,796.5,122.6,796.5z"/>
	<path class="st2" d="M327.1,540.7h28.2"/>
	<path class="st2" d="M327.1,550.5h28.2"/>
	<path class="st2" d="M327.1,560.4h28.2"/>
	<path class="st2" d="M327.1,570.2h28.2"/>
	<path class="st2" d="M327.1,580.1h28.2"/>
	<path class="st2" d="M327.1,590h28.2"/>
	<path class="st2" d="M327.1,599.8h28.2"/>
	<path class="st2" d="M327.1,609.7h28.2"/>
	<path class="st2" d="M327.1,619.5h28.2"/>
	<path class="st2" d="M327.1,629.4h28.2"/>
	<path class="st2" d="M327.1,639.2h28.2"/>
	<path class="st2" d="M327.1,649.1h28.2"/>
	<path class="st2" d="M327.1,659h28.2"/>
	<path class="st2" d="M327.1,668.8h28.2"/>
	<path class="st2" d="M327.1,678.7h28.2"/>
	<path class="st2" d="M288.5,540.7h28.2"/>
	<path class="st2" d="M288.5,550.5h28.2"/>
	<path class="st2" d="M288.5,560.4h28.2"/>
	<path class="st2" d="M288.5,570.2h28.2"/>
	<path class="st2" d="M288.5,580.1h28.2"/>
	<path class="st2" d="M288.5,590h28.2"/>
	<path class="st2" d="M288.5,599.8h28.2"/>
	<path class="st2" d="M288.5,609.7h28.2"/>
	<path class="st2" d="M288.5,619.5h28.2"/>
	<path class="st2" d="M288.5,629.4h28.2"/>
	<path class="st2" d="M288.5,639.2h28.2"/>
	<path class="st2" d="M288.5,649.1h28.2"/>
	<path class="st2" d="M288.5,659h28.2"/>
	<path class="st2" d="M288.5,668.8h28.2"/>
	<path class="st2" d="M288.5,678.7h28.2"/>
	<path class="st19" d="M78.5,545.3h87.3"/>
	<path class="st19" d="M78.5,555.2h87.3"/>
	<path class="st19" d="M78.5,565h87.3"/>
	<path class="st19" d="M127.6,540.3h28.2"/>
	<path class="st19" d="M127.6,550.2h28.2"/>
	<path class="st19" d="M127.6,560h28.2"/>
	<path class="st19" d="M89.1,540.3h28.2"/>
	<path class="st19" d="M89.1,550.2h28.2"/>
	<path class="st19" d="M89.1,560h28.2"/>
</g>
<g>
	<defs>
		<polyline id="SVGID_21_" points="71.6,682.5 71.6,530.6 165.9,530.6 165.9,682.2 		"/>
	</defs>
	<clipPath id="SVGID_22_">
		<use xlink:href="#SVGID_21_"  style="overflow:visible;"/>
	</clipPath>
	<g class="st20">
		<path class="st21" d="M91.4,572.5l7.7,27.1c0.2,0.8,0.8,1.4,1.5,1.7l4,2.2l-4.4,10.3l-9.8-6.1c-1.7-1-2.7-2.7-2.8-4.6l-2.1-30"/>
		<path class="st22" d="M100.6,615.5l-10.8-6.7c-1.9-1.1-3.2-3.2-3.3-5.5l-2.1-30l2.1-0.6l2.1,30.4c0.1,1.6,1,3,2.3,3.8l8.7,5.4
			l3.6-8.3l-3.2-1.8c-0.9-0.5-1.6-1.3-2-2.3l-7.8-27.6l2.1-0.1l7.7,27.1c0.1,0.5,0.5,0.8,0.9,1.1l4.9,2.7L100.6,615.5z"/>
	</g>
</g>
<g>
	<defs>
		<polyline id="SVGID_23_" points="71.6,682.5 71.6,530.6 165.9,530.6 165.9,682.2 		"/>
	</defs>
	<clipPath id="SVGID_24_">
		<use xlink:href="#SVGID_23_"  style="overflow:visible;"/>
	</clipPath>
	<g class="st23">
		<circle class="st24" cx="130" cy="593.6" r="12.2"/>
		<g>
			<path class="st25" d="M119.1,587.8c0,0,4.6-5.2,7.4-5.9c0,0,1.9,11.5,12.6,11.5c0,0,0.7,5.7-3.6,5.1l0.7,11
				c0,0,10.5,1.3,11.3-12.5c0.5-9.3-7.4-16.8-12.6-20.7c-3.5-2.6-7.8-3.8-12.1-3.1c-2.6,0.5-4.8,1.6-5.2,4.3
				C116.6,583.8,119.1,587.8,119.1,587.8L119.1,587.8z"/>
			<circle class="st25" cx="145.1" cy="578.7" r="7.5"/>
		</g>
	</g>
</g>
<g>
	<defs>
		<polyline id="SVGID_25_" points="71.6,682.5 71.6,530.6 165.9,530.6 165.9,682.2 		"/>
	</defs>
	<clipPath id="SVGID_26_">
		<use xlink:href="#SVGID_25_"  style="overflow:visible;"/>
	</clipPath>
	<path class="st26" d="M127.7,609.8c0.1,3.2,1.6,5,4.3,4.9s4.2-2.2,4.1-5.3l7.2-0.1c3,0,5.9,1.1,8.1,3.1l11.2,10.5l-8.3,13.3
		l-4.2-4.3l3.1,22.9l-31.6,4.2l-2.4-29.7l-18.4-12.1l5.5-12.8l11.6,4.4c2.8,1.1,5.9,1.4,8.9,1L127.7,609.8L127.7,609.8z"/>
</g>
<g>
	<defs>
		<polyline id="SVGID_27_" points="71.6,682.5 71.6,530.6 165.9,530.6 165.9,682.2 		"/>
	</defs>
	<clipPath id="SVGID_28_">
		<use xlink:href="#SVGID_27_"  style="overflow:visible;"/>
	</clipPath>
	<path class="st27" d="M122.6,659.2l-5.2,52.4"/>
</g>
<g>
	<defs>
		<polyline id="SVGID_29_" points="71.6,682.5 71.6,530.6 165.9,530.6 165.9,682.2 		"/>
	</defs>
	<clipPath id="SVGID_30_">
		<use xlink:href="#SVGID_29_"  style="overflow:visible;"/>
	</clipPath>
	<path class="st28" d="M153.2,654.9c0,0,7.7,9.9,9.9,25c2.2,15.1,4.7,27.7,4.7,27.7"/>
</g>
<g>
	<defs>
		<polyline id="SVGID_31_" points="71.6,682.5 71.6,530.6 165.9,530.6 165.9,682.2 		"/>
	</defs>
	<clipPath id="SVGID_32_">
		<use xlink:href="#SVGID_31_"  style="overflow:visible;"/>
	</clipPath>
	<path class="st29" d="M180.5,658c-9.2-5.3-23.4-21.3-23.9-21.5l6-9.7l13.6,15.6L180.5,658z"/>
</g>
<g>
	<defs>
		<polyline id="SVGID_33_" points="71.6,682.5 71.6,530.6 165.9,530.6 165.9,682.2 		"/>
	</defs>
	<clipPath id="SVGID_34_">
		<use xlink:href="#SVGID_33_"  style="overflow:visible;"/>
	</clipPath>
	<path class="st30" d="M127.7,609.8v-4.3"/>
</g>
<g>
	<defs>
		<polyline id="SVGID_35_" points="71.6,682.5 71.6,530.6 165.9,530.6 165.9,682.2 		"/>
	</defs>
	<clipPath id="SVGID_36_">
		<use xlink:href="#SVGID_35_"  style="overflow:visible;"/>
	</clipPath>
	<path class="st31" d="M84.9,571c0,0-2.5-2-2.6-4.1c-0.1-2,1.2-2.1,1.2-2.1s-0.2-1.9,1.7-1.9c0,0,0.4-2.3,2.3-0.5s1.9,1.8,1.9,1.8
		s0.4-1.7,1.6,0.3s0.5,6.1,0.5,6.1l-0.9,3l-4-0.1L84.9,571z"/>
</g>
<g>
	<defs>
		<path id="SVGID_37_" d="M77.3,684.3V538.2H167v145.3L77.3,684.3z M366.6,682.4V536.6h-89.7v146.5L366.6,682.4z"/>
	</defs>
	<clipPath id="SVGID_38_">
		<use xlink:href="#SVGID_37_"  style="overflow:visible;"/>
	</clipPath>
	
		<linearGradient id="SVGID_39_" gradientUnits="userSpaceOnUse" x1="-4371.1226" y1="-4873.4697" x2="-4371.1226" y2="-4477.2095" gradientTransform="matrix(-1 0 0 1 -4136.271 5481.1108)">
		<stop  offset="0.1977" style="stop-color:#FFCC33"/>
		<stop  offset="0.8337" style="stop-color:#F45E39"/>
	</linearGradient>
	<circle class="st32" cx="234.9" cy="805.8" r="198.1"/>
</g>
<g>
	<defs>
		<rect id="SVGID_40_" x="64.1" y="636.8" width="40.2" height="45.5"/>
	</defs>
	<clipPath id="SVGID_41_">
		<use xlink:href="#SVGID_40_"  style="overflow:visible;"/>
	</clipPath>
	<g class="st33">
		<path class="st34" d="M82.6,671.7c0,0-13.4-8.1-14.6-22.5c0,0,6.4,11.3,12.8,14.9c0,0-5.9-10.7-6.3-16.3c0,0,5,9.7,8.7,13.4
			c0,0-3.4-12.7-2.7-17.7c0,0,2.8,6.4,5.6,15.3c0.1-0.5,2.6-13.3,7.3-17.4c0,0-0.7,12.8-3.9,19.2c0,0,4.7-5,7.6-9.9
			c0,0-1.2,9.3-5.3,12.9c0,0,9-6.4,11.1-13.5c0,0,0.9,13.5-12.4,22L82.6,671.7z"/>
		<path class="st35" d="M89.9,670.9h-6.8c-0.9,0-1.7,0.7-1.7,1.7v10.3c0,0.9,0.7,1.7,1.7,1.7h6.8c0.9,0,1.7-0.7,1.7-1.7v-10.3
			C91.6,671.6,90.8,670.9,89.9,670.9z"/>
	</g>
</g>
</svg>
