<svg enable-background="new 0 0 128.9 74.2" viewBox="0 0 128.9 74.2" xmlns="http://www.w3.org/2000/svg"><g fill="#f45e39"><path d="m126.9 57.6-43.1-.2v-20.4c0-20.4-16.6-37-37-37-1.2 0-2.4.1-3.6.2-.3-.1-.6-.2-.8-.2h-5.4c-20.4 0-37 16.6-37 37s16.6 37 37 37h9.8 25.3 9.8c1.1 0 2-.9 2-2v-2.7l41.1.2v2.6c0 1.1.9 2 2 2s2-.9 2-2v-4.6-3.8-4.2c-.1-1-1-1.9-2.1-1.9zm-80.1-41.8c11.7 0 21.3 9.5 21.3 21.3 0 11.7-9.5 21.3-21.3 21.3s-21.3-9.6-21.3-21.4c0-11.7 9.6-21.2 21.3-21.2zm-42.8 21.2c0-14.9 10-27.5 23.6-31.6-10.7 6.5-17.8 18.2-17.8 31.6s7.1 25.1 17.8 31.6c-13.6-4-23.6-16.6-23.6-31.6zm79.9 28.4v-4l41 .2v2.2 1.8z"/><path d="m40.8 52c1.1 0 2-.9 2-2v-10.5h10.3c1.1 0 2-.9 2-2s-.9-2-2-2h-10.3v-8.1h12c1.1 0 2-.9 2-2s-.9-2-2-2h-14c-1.1 0-2 .9-2 2v24.6c0 1.1.9 2 2 2z"/></g></svg>