<?xml version="1.0" encoding="utf-8"?>
<!-- Generator: Adobe Illustrator 24.1.2, SVG Export Plug-In . SVG Version: 6.00 Build 0)  -->
<svg version="1.1" id="Layer_1" xmlns="http://www.w3.org/2000/svg" xmlns:xlink="http://www.w3.org/1999/xlink" x="0px" y="0px"
	 viewBox="0 0 1920 1080" style="enable-background:new 0 0 1920 1080;" xml:space="preserve">
<style type="text/css">
	.st0{clip-path:url(#SVGID_2_);}
	.st1{fill:#FF6666;stroke:#FFFFFF;stroke-width:2.382;stroke-miterlimit:10;}
	.st2{clip-path:url(#SVGID_2_);fill:#F45E39;stroke:#FFCC33;stroke-width:2.264;stroke-miterlimit:10;}
	.st3{fill:none;stroke:#FAFAC6;stroke-width:1.6;stroke-miterlimit:10;}
	.st4{clip-path:url(#SVGID_2_);fill:none;stroke:#FFCC33;stroke-width:2.264;stroke-miterlimit:10;}
	.st5{fill:#F45E39;stroke:#FFCC33;stroke-width:2.6789;stroke-miterlimit:10;}
	.st6{fill:#F45E39;stroke:#FFCC33;stroke-width:2.382;stroke-miterlimit:10;}
	.st7{fill:#F45E39;stroke:#FFCC33;stroke-width:2.7345;stroke-miterlimit:10;}
	.st8{fill:#F45E39;stroke:#FFCC33;stroke-width:2.0319;stroke-miterlimit:10;}
	.st9{fill:#F45E39;stroke:#FFCC33;stroke-width:1.9645;stroke-miterlimit:10;}
	.st10{fill:none;stroke:#FFCC33;stroke-width:1.9645;stroke-miterlimit:10;}
	.st11{fill:#FAFAC6;stroke:#FAFAC6;stroke-width:1.6;stroke-miterlimit:10;}
	.st12{clip-path:url(#SVGID_4_);}
	.st13{fill:#FF6666;stroke:#FAFAC6;stroke-width:1.6;stroke-miterlimit:10;}
	.st14{fill:#FF6666;stroke:#FFFFFF;stroke-width:1.6;stroke-miterlimit:10;}
	.st15{fill:#F45E39;stroke:#FFCC33;stroke-width:2.4814;stroke-miterlimit:10;}
	.st16{fill:#F45E39;stroke:#FFCC33;stroke-width:2.2748;stroke-linejoin:round;stroke-miterlimit:10;}
	.st17{fill:none;stroke:#FFCC33;stroke-width:2.2748;stroke-linejoin:round;stroke-miterlimit:10;}
</style>
<g>
	<defs>
		<rect id="SVGID_1_" width="1920" height="1080"/>
	</defs>
	<clipPath id="SVGID_2_">
		<use xlink:href="#SVGID_1_"  style="overflow:visible;"/>
	</clipPath>
	<g class="st0">
		<line class="st1" x1="373.49" y1="661.24" x2="195" y2="661.24"/>
		<line class="st1" x1="373.49" y1="668.09" x2="195" y2="668.09"/>
		<line class="st1" x1="373.49" y1="674.94" x2="195" y2="674.94"/>
		<line class="st1" x1="373.49" y1="681.79" x2="195" y2="681.79"/>
		<line class="st1" x1="373.49" y1="688.64" x2="195" y2="688.64"/>
		<line class="st1" x1="373.49" y1="695.49" x2="195" y2="695.49"/>
		<line class="st1" x1="373.49" y1="702.34" x2="195" y2="702.34"/>
		<line class="st1" x1="373.49" y1="709.18" x2="195" y2="709.18"/>
		<line class="st1" x1="373.49" y1="716.03" x2="195" y2="716.03"/>
		<line class="st1" x1="373.49" y1="722.88" x2="195" y2="722.88"/>
		<line class="st1" x1="373.49" y1="729.73" x2="195" y2="729.73"/>
		<line class="st1" x1="373.49" y1="736.58" x2="195" y2="736.58"/>
	</g>
	
		<rect x="1470.64" y="506.35" transform="matrix(-1 -7.734004e-11 7.734004e-11 -1 3390.9802 1183.5059)" class="st2" width="449.69" height="170.8"/>
	<polygon class="st2" points="1492.8,650.62 1590.57,650.62 1590.57,518.4 1590.57,506.36 1492.8,506.36 	"/>
	<polygon class="st2" points="1613.2,650.62 1710.97,650.62 1710.97,518.4 1710.97,506.36 1613.2,506.36 	"/>
	<polygon class="st2" points="1733.61,650.62 1831.37,650.62 1831.37,518.4 1831.37,506.36 1733.61,506.36 	"/>
	<polygon class="st2" points="1854.01,650.62 1951.78,650.62 1951.78,518.4 1951.78,506.36 1854.01,506.36 	"/>
	
		<rect x="1470.64" y="678.51" transform="matrix(-1 -7.734803e-11 7.734803e-11 -1 3390.9802 1527.8179)" class="st2" width="449.69" height="170.8"/>
	<g class="st0">
		<line class="st3" x1="1589.53" y1="686.89" x2="1493.98" y2="686.89"/>
		<line class="st3" x1="1589.53" y1="696.83" x2="1493.98" y2="696.83"/>
		<line class="st3" x1="1589.53" y1="706.77" x2="1493.98" y2="706.77"/>
		<line class="st3" x1="1589.53" y1="716.71" x2="1493.98" y2="716.71"/>
		<line class="st3" x1="1589.53" y1="726.66" x2="1493.98" y2="726.66"/>
		<line class="st3" x1="1589.53" y1="736.6" x2="1493.98" y2="736.6"/>
		<line class="st3" x1="1589.53" y1="746.54" x2="1493.98" y2="746.54"/>
		<line class="st3" x1="1589.53" y1="756.48" x2="1493.98" y2="756.48"/>
		<line class="st3" x1="1589.53" y1="766.42" x2="1493.98" y2="766.42"/>
		<line class="st3" x1="1589.53" y1="776.37" x2="1493.98" y2="776.37"/>
		<line class="st3" x1="1589.53" y1="786.31" x2="1493.98" y2="786.31"/>
		<line class="st3" x1="1589.53" y1="796.25" x2="1493.98" y2="796.25"/>
		<line class="st3" x1="1589.53" y1="806.19" x2="1493.98" y2="806.19"/>
		<line class="st3" x1="1589.53" y1="816.14" x2="1493.98" y2="816.14"/>
	</g>
	<g class="st0">
		<line class="st3" x1="1579.55" y1="691.88" x2="1546.9" y2="691.88"/>
		<line class="st3" x1="1579.55" y1="701.83" x2="1546.9" y2="701.83"/>
		<line class="st3" x1="1579.55" y1="711.79" x2="1546.9" y2="711.79"/>
		<line class="st3" x1="1579.55" y1="721.75" x2="1546.9" y2="721.75"/>
		<line class="st3" x1="1579.55" y1="731.71" x2="1546.9" y2="731.71"/>
		<line class="st3" x1="1579.55" y1="741.66" x2="1546.9" y2="741.66"/>
		<line class="st3" x1="1579.55" y1="751.62" x2="1546.9" y2="751.62"/>
		<line class="st3" x1="1579.55" y1="761.58" x2="1546.9" y2="761.58"/>
		<line class="st3" x1="1579.55" y1="771.54" x2="1546.9" y2="771.54"/>
		<line class="st3" x1="1579.55" y1="781.5" x2="1546.9" y2="781.5"/>
		<line class="st3" x1="1579.55" y1="791.45" x2="1546.9" y2="791.45"/>
		<line class="st3" x1="1579.55" y1="801.41" x2="1546.9" y2="801.41"/>
		<line class="st3" x1="1579.55" y1="811.37" x2="1546.9" y2="811.37"/>
	</g>
	<g class="st0">
		<line class="st3" x1="1537.87" y1="691.88" x2="1505.22" y2="691.88"/>
		<line class="st3" x1="1537.87" y1="701.83" x2="1505.22" y2="701.83"/>
		<line class="st3" x1="1537.87" y1="711.79" x2="1505.22" y2="711.79"/>
		<line class="st3" x1="1537.87" y1="721.75" x2="1505.22" y2="721.75"/>
		<line class="st3" x1="1537.87" y1="731.71" x2="1505.22" y2="731.71"/>
		<line class="st3" x1="1537.87" y1="741.66" x2="1505.22" y2="741.66"/>
		<line class="st3" x1="1537.87" y1="751.62" x2="1505.22" y2="751.62"/>
		<line class="st3" x1="1537.87" y1="761.58" x2="1505.22" y2="761.58"/>
		<line class="st3" x1="1537.87" y1="771.54" x2="1505.22" y2="771.54"/>
		<line class="st3" x1="1537.87" y1="781.5" x2="1505.22" y2="781.5"/>
		<line class="st3" x1="1537.87" y1="791.45" x2="1505.22" y2="791.45"/>
		<line class="st3" x1="1537.87" y1="801.41" x2="1505.22" y2="801.41"/>
		<line class="st3" x1="1537.87" y1="811.37" x2="1505.22" y2="811.37"/>
	</g>
	<polygon class="st4" points="1492.8,822.77 1590.57,822.77 1590.57,690.56 1590.57,678.51 1492.8,678.51 	"/>
	<polygon class="st2" points="1613.2,822.77 1710.97,822.77 1710.97,690.56 1710.97,678.51 1613.2,678.51 	"/>
	<polygon class="st2" points="1733.61,822.77 1831.37,822.77 1831.37,690.56 1831.37,678.51 1733.61,678.51 	"/>
	<polygon class="st2" points="1854.01,822.77 1951.78,822.77 1951.78,690.56 1951.78,678.51 1854.01,678.51 	"/>
	
		<rect x="1470.64" y="850.67" transform="matrix(-1 -7.734803e-11 7.734803e-11 -1 3390.9802 1872.1298)" class="st2" width="449.69" height="170.8"/>
	<polygon class="st2" points="1492.8,994.93 1590.57,994.93 1590.57,862.71 1590.57,850.67 1492.8,850.67 	"/>
	<polygon class="st2" points="1613.2,994.93 1710.97,994.93 1710.97,862.71 1710.97,850.67 1613.2,850.67 	"/>
	<polygon class="st2" points="1733.61,994.93 1831.37,994.93 1831.37,862.71 1831.37,850.67 1733.61,850.67 	"/>
	<polygon class="st2" points="1854.01,994.93 1951.78,994.93 1951.78,862.71 1951.78,850.67 1854.01,850.67 	"/>
	
		<rect x="1470.64" y="1022.82" transform="matrix(-1 -7.734004e-11 7.734004e-11 -1 3390.9802 2216.4417)" class="st2" width="449.69" height="170.8"/>
	<polygon class="st2" points="1492.8,1167.08 1590.57,1167.08 1590.57,1034.87 1590.57,1022.82 1492.8,1022.82 	"/>
	<polygon class="st2" points="1607.22,1167.09 1704.98,1167.09 1704.98,1034.88 1704.98,1022.83 1607.22,1022.83 	"/>
	<polygon class="st2" points="1733.61,1167.08 1831.37,1167.08 1831.37,1034.87 1831.37,1022.82 1733.61,1022.82 	"/>
	<polygon class="st2" points="1854.01,1167.08 1951.78,1167.08 1951.78,1034.87 1951.78,1022.82 1854.01,1022.82 	"/>
	
		<rect x="1465.11" y="467.46" transform="matrix(-1 -3.965063e-11 3.965063e-11 -1 3385.4507 973.8192)" class="st2" width="455.22" height="38.89"/>
	<g class="st0">
		<rect x="-4.9" y="654.63" class="st5" width="502.11" height="87.55"/>
		<rect x="100.21" y="654.63" class="st6" width="178.34" height="87.55"/>
		<rect x="-65.42" y="615.74" class="st6" width="567.5" height="38.89"/>
		<rect x="-4.9" y="781.09" class="st5" width="502.11" height="87.55"/>
		<rect x="296.06" y="781.09" class="st6" width="178.34" height="87.55"/>
		<rect x="100.21" y="781.09" class="st6" width="178.34" height="87.55"/>
		<rect x="-27.51" y="742.2" class="st7" width="529.59" height="38.89"/>
		<rect x="-4.9" y="907.55" class="st5" width="502.11" height="87.55"/>
		<rect x="296.06" y="907.55" class="st6" width="178.34" height="87.55"/>
		<rect x="100.21" y="907.55" class="st6" width="178.34" height="87.55"/>
		<rect x="-93.99" y="654.63" class="st6" width="178.34" height="87.55"/>
		<rect x="-93.99" y="781.09" class="st6" width="178.34" height="87.55"/>
		<rect x="-93.99" y="907.55" class="st6" width="178.34" height="87.55"/>
		<rect x="-27.51" y="868.66" class="st7" width="529.59" height="38.89"/>
		<rect x="100.21" y="1034.01" class="st6" width="396.99" height="87.55"/>
		<rect x="296.06" y="1034.01" class="st6" width="178.34" height="87.55"/>
		<rect x="-65.42" y="1034.01" class="st6" width="343.97" height="87.55"/>
		<rect x="-27.51" y="995.12" class="st7" width="529.59" height="38.89"/>
		<polygon class="st6" points="474.4,742.18 296.06,742.18 296.06,661.94 296.06,654.63 474.4,654.63 		"/>
		<g>
			<line class="st3" x1="473.3" y1="664.39" x2="297.28" y2="664.39"/>
			<line class="st3" x1="473.3" y1="674.08" x2="297.28" y2="674.08"/>
			<line class="st3" x1="473.3" y1="683.77" x2="297.28" y2="683.77"/>
			<line class="st3" x1="473.3" y1="693.46" x2="297.28" y2="693.46"/>
			<line class="st3" x1="473.3" y1="703.15" x2="297.28" y2="703.15"/>
			<line class="st3" x1="473.3" y1="712.84" x2="297.28" y2="712.84"/>
			<line class="st3" x1="473.3" y1="722.53" x2="297.28" y2="722.53"/>
			<line class="st3" x1="473.3" y1="732.22" x2="297.28" y2="732.22"/>
		</g>
		<g>
			<line class="st3" x1="377.2" y1="668.71" x2="314.57" y2="668.71"/>
			<line class="st3" x1="377.2" y1="678.57" x2="314.57" y2="678.57"/>
			<line class="st3" x1="377.2" y1="688.44" x2="314.57" y2="688.44"/>
			<line class="st3" x1="377.2" y1="698.31" x2="314.57" y2="698.31"/>
			<line class="st3" x1="377.2" y1="708.17" x2="314.57" y2="708.17"/>
			<line class="st3" x1="377.2" y1="718.04" x2="314.57" y2="718.04"/>
			<line class="st3" x1="377.2" y1="727.9" x2="314.57" y2="727.9"/>
		</g>
		<g>
			<line class="st3" x1="456.01" y1="668.71" x2="394.49" y2="668.71"/>
			<line class="st3" x1="456.01" y1="678.57" x2="394.49" y2="678.57"/>
			<line class="st3" x1="456.01" y1="688.44" x2="394.49" y2="688.44"/>
			<line class="st3" x1="456.01" y1="698.31" x2="394.49" y2="698.31"/>
			<line class="st3" x1="456.01" y1="708.17" x2="394.49" y2="708.17"/>
			<line class="st3" x1="456.01" y1="718.04" x2="394.49" y2="718.04"/>
			<line class="st3" x1="456.01" y1="727.9" x2="394.49" y2="727.9"/>
		</g>
	</g>
	<g class="st0">
		<polygon class="st8" points="1435.92,1181.01 1074.83,1181.01 1074.83,659 1435.92,597.26 		"/>
		<path class="st9" d="M1336.89,739.11c-8.58,0-17.16,1.59-25.22,4.51c-9.12,3.31-16.21,8.99-26.36,8.99h-4.02v29.97h7.94v96.08"/>
		<path class="st9" d="M1336.89,739.11c7.89,0,15.75,1.36,23.24,3.83c9.68,3.19,17.8,9.67,28.34,9.67h4.02v29.97h-7.94v95.77"/>
		<polygon class="st9" points="1332.31,751.42 1328.64,721.18 1343.61,721.18 1340.56,751.42 		"/>
		<polyline class="st9" points="1299.93,879.12 1299.93,801.22 1372.63,801.22 1372.63,878.51 		"/>
		<rect x="1280.38" y="878.81" class="st9" width="117" height="19.01"/>
		<path class="st10" d="M1336.89,751.73c-20.47,0-36.05,10.69-36.96,11v27.19h36.96h36.96v-27.19
			C1372.94,762.42,1357.36,751.73,1336.89,751.73z"/>
		<path class="st9" d="M1336.89,949.75c-8.58,0-17.16,1.59-25.22,4.51c-9.12,3.31-16.21,8.99-26.36,8.99h-4.02v29.97h7.94v96.08"/>
		<path class="st9" d="M1336.89,949.75c7.89,0,15.75,1.36,23.24,3.83c9.68,3.19,17.8,9.67,28.34,9.67h4.02v29.97h-7.94v95.77"/>
		<polygon class="st9" points="1332.31,962.06 1328.64,931.82 1343.61,931.82 1340.56,962.06 		"/>
		<polyline class="st9" points="1299.93,1089.76 1299.93,1011.86 1372.63,1011.86 1372.63,1089.15 		"/>
		<path class="st10" d="M1336.89,962.37c-20.47,0-36.05,10.69-36.96,11v27.19h36.96h36.96v-27.19
			C1372.94,973.06,1357.36,962.37,1336.89,962.37z"/>
		<path class="st9" d="M1177.79,949.75c-8.58,0-17.16,1.59-25.22,4.51c-9.12,3.31-16.21,8.99-26.36,8.99h-4.02v29.97h7.94v96.08"/>
		<path class="st9" d="M1177.79,949.75c7.89,0,15.75,1.36,23.24,3.83c9.68,3.19,17.8,9.67,28.34,9.67h4.02v29.97h-7.94v95.77"/>
		<polygon class="st9" points="1173.2,962.06 1169.54,931.82 1184.51,931.82 1181.45,962.06 		"/>
		<polyline class="st9" points="1140.82,1089.76 1140.82,1011.86 1213.53,1011.86 1213.53,1089.15 		"/>
		<path class="st10" d="M1177.79,962.37c-20.47,0-36.05,10.69-36.96,11v27.19h36.96h36.96v-27.19
			C1213.83,973.06,1198.25,962.37,1177.79,962.37z"/>
		<path class="st10" d="M1177.79,738.14c-8.58,0-17.16,1.59-25.22,4.51c-9.12,3.31-16.21,8.99-26.36,8.99h-4.02v29.97h7.94v96.08"/>
		<path class="st10" d="M1177.79,738.14c7.89,0,15.75,1.36,23.24,3.83c9.68,3.19,17.8,9.67,28.34,9.67h4.02v29.97h-7.94v95.77"/>
		<polygon class="st9" points="1173.2,750.45 1169.54,720.21 1184.51,720.21 1181.45,750.45 		"/>
		<rect x="1121.27" y="877.84" class="st10" width="117" height="19.01"/>
		<rect x="1280.38" y="1089.81" class="st9" width="117" height="19.01"/>
		<rect x="1121.27" y="1088.84" class="st10" width="117" height="19.01"/>
		<g>
			<line class="st11" x1="1141.74" y1="807.56" x2="1212.61" y2="807.56"/>
			<line class="st11" x1="1141.74" y1="814.76" x2="1212.61" y2="814.76"/>
			<line class="st11" x1="1141.74" y1="821.95" x2="1212.61" y2="821.95"/>
			<line class="st11" x1="1141.74" y1="829.15" x2="1212.61" y2="829.15"/>
			<line class="st11" x1="1141.74" y1="836.35" x2="1212.61" y2="836.35"/>
			<line class="st11" x1="1141.74" y1="843.55" x2="1212.61" y2="843.55"/>
			<line class="st11" x1="1141.74" y1="850.75" x2="1212.61" y2="850.75"/>
			<line class="st11" x1="1141.74" y1="857.94" x2="1212.61" y2="857.94"/>
			<line class="st11" x1="1141.74" y1="865.14" x2="1212.61" y2="865.14"/>
			<line class="st11" x1="1141.74" y1="872.34" x2="1212.61" y2="872.34"/>
		</g>
		<g>
			<line class="st11" x1="1149.98" y1="803.98" x2="1173.1" y2="803.98"/>
			<line class="st11" x1="1149.98" y1="811.18" x2="1173.1" y2="811.18"/>
			<line class="st11" x1="1149.98" y1="818.37" x2="1173.1" y2="818.37"/>
			<line class="st11" x1="1149.98" y1="825.57" x2="1173.1" y2="825.57"/>
			<line class="st11" x1="1149.98" y1="832.77" x2="1173.1" y2="832.77"/>
			<line class="st11" x1="1149.98" y1="839.97" x2="1173.1" y2="839.97"/>
			<line class="st11" x1="1149.98" y1="847.17" x2="1173.1" y2="847.17"/>
			<line class="st11" x1="1149.98" y1="854.36" x2="1173.1" y2="854.36"/>
			<line class="st11" x1="1149.98" y1="861.56" x2="1173.1" y2="861.56"/>
			<line class="st11" x1="1149.98" y1="868.76" x2="1173.1" y2="868.76"/>
		</g>
		<g>
			<line class="st11" x1="1181.24" y1="803.98" x2="1204.41" y2="803.98"/>
			<line class="st11" x1="1181.24" y1="811.18" x2="1204.41" y2="811.18"/>
			<line class="st11" x1="1181.24" y1="818.37" x2="1204.41" y2="818.37"/>
			<line class="st11" x1="1181.24" y1="825.57" x2="1204.41" y2="825.57"/>
			<line class="st11" x1="1181.24" y1="832.77" x2="1204.41" y2="832.77"/>
			<line class="st11" x1="1181.24" y1="839.97" x2="1204.41" y2="839.97"/>
			<line class="st11" x1="1181.24" y1="847.17" x2="1204.41" y2="847.17"/>
			<line class="st11" x1="1181.24" y1="854.36" x2="1204.41" y2="854.36"/>
			<line class="st11" x1="1181.24" y1="861.56" x2="1204.41" y2="861.56"/>
			<line class="st11" x1="1181.24" y1="868.76" x2="1204.41" y2="868.76"/>
		</g>
		<g>
			<defs>
				<path id="SVGID_3_" d="M1177.79,750.76c-20.47,0-36.05,10.69-36.96,11v27.19h36.96h36.96v-27.19
					C1213.83,761.45,1198.25,750.76,1177.79,750.76z"/>
			</defs>
			<clipPath id="SVGID_4_">
				<use xlink:href="#SVGID_3_"  style="overflow:visible;"/>
			</clipPath>
			<g class="st12">
				<line class="st11" x1="1141.74" y1="752.47" x2="1213.76" y2="752.47"/>
				<line class="st13" x1="1141.74" y1="759.67" x2="1213.76" y2="759.67"/>
				<line class="st13" x1="1141.74" y1="766.87" x2="1213.76" y2="766.87"/>
				<line class="st13" x1="1141.74" y1="774.07" x2="1213.76" y2="774.07"/>
				<line class="st11" x1="1141.74" y1="781.27" x2="1213.76" y2="781.27"/>
				<g>
					<line class="st13" x1="1149.93" y1="784.7" x2="1173.07" y2="784.7"/>
					<line class="st13" x1="1149.93" y1="763.27" x2="1173.07" y2="763.27"/>
					<line class="st13" x1="1149.93" y1="770.47" x2="1173.07" y2="770.47"/>
					<line class="st13" x1="1149.93" y1="777.67" x2="1173.07" y2="777.67"/>
				</g>
				<g>
					<line class="st13" x1="1181.27" y1="784.7" x2="1204.41" y2="784.7"/>
					<line class="st13" x1="1181.27" y1="763.27" x2="1204.41" y2="763.27"/>
					<line class="st13" x1="1181.27" y1="770.47" x2="1204.41" y2="770.47"/>
					<line class="st13" x1="1181.27" y1="777.67" x2="1204.41" y2="777.67"/>
				</g>
				<line class="st14" x1="1141.74" y1="807.56" x2="1212.61" y2="807.56"/>
				<line class="st14" x1="1141.74" y1="814.76" x2="1212.61" y2="814.76"/>
				<line class="st14" x1="1141.74" y1="821.95" x2="1212.61" y2="821.95"/>
				<line class="st14" x1="1141.74" y1="829.15" x2="1212.61" y2="829.15"/>
				<line class="st14" x1="1141.74" y1="836.35" x2="1212.61" y2="836.35"/>
				<line class="st14" x1="1141.74" y1="843.55" x2="1212.61" y2="843.55"/>
				<line class="st14" x1="1141.74" y1="850.75" x2="1212.61" y2="850.75"/>
				<line class="st14" x1="1141.74" y1="857.94" x2="1212.61" y2="857.94"/>
				<line class="st14" x1="1141.74" y1="865.14" x2="1212.61" y2="865.14"/>
				<line class="st14" x1="1141.74" y1="872.34" x2="1212.61" y2="872.34"/>
			</g>
		</g>
		<polyline class="st10" points="1140.82,878.15 1140.82,800.25 1213.53,800.25 1213.53,877.53 		"/>
		<path class="st10" d="M1177.79,750.76c-20.47,0-36.05,10.69-36.96,11v27.19h36.96h36.96v-27.19
			C1213.83,761.45,1198.25,750.76,1177.79,750.76z"/>
	</g>
	<g class="st0">
		<rect x="556.44" y="749.61" class="st15" width="477.4" height="372.17"/>
		<rect x="556.44" y="706" class="st15" width="477.4" height="43.61"/>
		<g>
			<polygon class="st16" points="825.69,909.95 752.14,909.95 752.14,798.15 752.14,787.96 825.69,787.96 			"/>
			<polyline class="st17" points="751.89,787.96 720.17,787.74 720.92,910.45 752.14,909.95 			"/>
			<polygon class="st15" points="856.91,910.45 825.69,909.95 826.2,798.15 826.2,787.96 857.67,787.74 			"/>
			<polyline class="st17" points="738.28,910.28 738.28,923.56 839.14,923.56 839.14,910.28 			"/>
			<polyline class="st17" points="738.28,788.58 738.28,775.3 839.14,775.3 839.14,788.07 			"/>
		</g>
		<g>
			<line class="st3" x1="824.67" y1="792.78" x2="753.3" y2="792.78"/>
			<line class="st3" x1="824.67" y1="802.79" x2="753.3" y2="802.79"/>
			<line class="st3" x1="824.67" y1="812.8" x2="753.3" y2="812.8"/>
			<line class="st3" x1="824.67" y1="822.81" x2="753.3" y2="822.81"/>
			<line class="st3" x1="824.67" y1="832.82" x2="753.3" y2="832.82"/>
			<line class="st3" x1="824.67" y1="842.83" x2="753.3" y2="842.83"/>
			<line class="st3" x1="824.67" y1="852.84" x2="753.3" y2="852.84"/>
			<line class="st3" x1="824.67" y1="862.85" x2="753.3" y2="862.85"/>
			<line class="st3" x1="824.67" y1="872.86" x2="753.3" y2="872.86"/>
			<line class="st3" x1="824.67" y1="882.87" x2="753.3" y2="882.87"/>
			<line class="st3" x1="824.67" y1="892.88" x2="753.3" y2="892.88"/>
			<line class="st3" x1="824.67" y1="902.89" x2="753.3" y2="902.89"/>
		</g>
		<g>
			<line class="st3" x1="784.73" y1="798.4" x2="760.35" y2="798.4"/>
			<line class="st3" x1="784.73" y1="808.35" x2="760.35" y2="808.35"/>
			<line class="st3" x1="784.73" y1="818.31" x2="760.35" y2="818.31"/>
			<line class="st3" x1="784.73" y1="828.26" x2="760.35" y2="828.26"/>
			<line class="st3" x1="784.73" y1="838.22" x2="760.35" y2="838.22"/>
			<line class="st3" x1="784.73" y1="848.17" x2="760.35" y2="848.17"/>
			<line class="st3" x1="784.73" y1="858.12" x2="760.35" y2="858.12"/>
			<line class="st3" x1="784.73" y1="868.08" x2="760.35" y2="868.08"/>
			<line class="st3" x1="784.73" y1="878.03" x2="760.35" y2="878.03"/>
			<line class="st3" x1="784.73" y1="887.99" x2="760.35" y2="887.99"/>
			<line class="st3" x1="784.73" y1="897.94" x2="760.35" y2="897.94"/>
		</g>
		<g>
			<line class="st3" x1="817.21" y1="798.4" x2="792.83" y2="798.4"/>
			<line class="st3" x1="817.21" y1="808.35" x2="792.83" y2="808.35"/>
			<line class="st3" x1="817.21" y1="818.31" x2="792.83" y2="818.31"/>
			<line class="st3" x1="817.21" y1="828.26" x2="792.83" y2="828.26"/>
			<line class="st3" x1="817.21" y1="838.22" x2="792.83" y2="838.22"/>
			<line class="st3" x1="817.21" y1="848.17" x2="792.83" y2="848.17"/>
			<line class="st3" x1="817.21" y1="858.12" x2="792.83" y2="858.12"/>
			<line class="st3" x1="817.21" y1="868.08" x2="792.83" y2="868.08"/>
			<line class="st3" x1="817.21" y1="878.03" x2="792.83" y2="878.03"/>
			<line class="st3" x1="817.21" y1="887.99" x2="792.83" y2="887.99"/>
			<line class="st3" x1="817.21" y1="897.94" x2="792.83" y2="897.94"/>
		</g>
		<g>
			<polygon class="st16" points="825.69,1161.24 752.14,1161.24 752.14,1049.44 752.14,1039.25 825.69,1039.25 			"/>
			<polygon class="st16" points="748.16,1163.51 752.14,1161.24 752.14,1049.44 752.14,1039.25 747.4,1036.22 			"/>
			<polygon class="st16" points="720.92,1161.74 747.38,1161.24 747.13,1049.44 747.13,1039.25 720.17,1039.03 			"/>
			<polygon class="st16" points="829.68,1163.51 825.69,1161.24 825.69,1049.44 825.69,1039.25 830.43,1036.22 			"/>
			<polygon class="st16" points="856.91,1161.74 829.83,1161.24 830.34,1049.44 830.34,1039.25 857.67,1039.03 			"/>
			<polyline class="st16" points="738.28,1161.58 738.28,1174.86 839.14,1174.86 839.14,1161.58 			"/>
			<polyline class="st16" points="738.28,1039.87 738.28,1026.59 839.14,1026.59 839.14,1039.37 			"/>
		</g>
	</g>
</g>
</svg>
