<?xml version="1.0" encoding="utf-8"?>
<!-- Generator: Adobe Illustrator 25.0.0, SVG Export Plug-In . SVG Version: 6.00 Build 0)  -->
<svg version="1.1" id="Layer_1" xmlns="http://www.w3.org/2000/svg" xmlns:xlink="http://www.w3.org/1999/xlink" x="0px" y="0px"
	 viewBox="0 0 299.4 577.5" style="enable-background:new 0 0 299.4 577.5;" xml:space="preserve">
<style type="text/css">
	.st0{fill:#F45E39;stroke:#FFCC33;stroke-width:4.8043;stroke-miterlimit:10;}
	.st1{clip-path:url(#SVGID_2_);}
	.st2{fill:#FAFAC6;}
	.st3{fill:#F45E39;}
	.st4{clip-path:url(#SVGID_4_);}
	.st5{fill:#F45E39;stroke:#FAFAC6;stroke-width:2.9085;stroke-linecap:round;stroke-linejoin:round;stroke-miterlimit:10;}
	.st6{fill:#FAFAC6;stroke:#FAFAC6;stroke-width:2.9085;stroke-linecap:round;stroke-linejoin:round;stroke-miterlimit:10;}
	.st7{clip-path:url(#SVGID_6_);fill:none;stroke:#FAFAC6;stroke-width:3.9626;stroke-linejoin:round;stroke-miterlimit:10;}
	.st8{clip-path:url(#SVGID_8_);fill:none;stroke:#FAFAC6;stroke-width:3.9626;stroke-linejoin:round;stroke-miterlimit:10;}
	
		.st9{clip-path:url(#SVGID_10_);fill:none;stroke:#FAFAC6;stroke-width:3.9626;stroke-linecap:round;stroke-linejoin:round;stroke-miterlimit:10;}
	.st10{clip-path:url(#SVGID_12_);fill:none;stroke:#FAFAC6;stroke-width:3.9626;stroke-linejoin:round;stroke-miterlimit:10;}
	.st11{clip-path:url(#SVGID_14_);fill:#FAFAC6;stroke:#F45E39;stroke-width:3.9626;stroke-miterlimit:10;}
	.st12{clip-path:url(#SVGID_16_);fill:none;stroke:#FAFAC6;stroke-width:3.9626;stroke-linejoin:round;stroke-miterlimit:10;}
	.st13{clip-path:url(#SVGID_18_);fill:#FAFAC6;}
	.st14{fill:none;stroke:#FFCC33;stroke-width:4.8043;stroke-miterlimit:10;}
	.st15{fill:none;stroke:#FAFAC6;stroke-width:3.9626;stroke-linejoin:round;stroke-miterlimit:10;}
	.st16{opacity:0.5;clip-path:url(#SVGID_20_);fill:url(#SVGID_21_);enable-background:new    ;}
	.st17{clip-path:url(#SVGID_23_);}
	.st18{fill:#FAFAC6;stroke:#FAFAC6;stroke-width:4.1153;stroke-linecap:round;stroke-linejoin:round;stroke-miterlimit:10;}
	.st19{fill:#F45E39;stroke:#FAFAC6;stroke-width:4.1153;stroke-linecap:round;stroke-linejoin:round;stroke-miterlimit:10;}
	.st20{clip-path:url(#SVGID_25_);}
	.st21{fill:none;stroke:#FAFAC6;stroke-width:3.4196;stroke-miterlimit:10;}
	.st22{clip-path:url(#SVGID_27_);}
	.st23{clip-path:url(#SVGID_29_);}
	.st24{fill:#FAFAC6;stroke:#FAFAC6;stroke-width:3.4159;stroke-miterlimit:10;}
	.st25{fill:none;stroke:#FAFAC6;stroke-width:3.4159;stroke-miterlimit:10;}
</style>
<g>
	<path class="st0" d="M277.1,106.5c-24.8,0-42.2-13.9-64.5-22c-19.7-7.2-40.7-11-61.7-11s-42,3.9-61.7,11c-22.3,8.1-39.6,22-64.5,22
		H15v73.3h19.4v333.9h233.1V179.8H287v-73.3H277.1z"/>
	<rect x="6.8" y="504.8" class="st0" width="286.1" height="46.5"/>
	<path class="st0" d="M151,95.1c-50,0-88.2,26.1-90.4,26.9v66.5H151h90.4V122C239.2,121.2,201.1,95.1,151,95.1z"/>
	<g>
		<g>
			<defs>
				<polyline id="SVGID_1_" points="60.6,502.6 60.6,216.1 238.4,216.1 238.4,502.2 				"/>
			</defs>
			<clipPath id="SVGID_2_">
				<use xlink:href="#SVGID_1_"  style="overflow:visible;"/>
			</clipPath>
			<g class="st1">
				<path class="st2" d="M97.9,295.2l14.4,51.2c0.4,1.4,1.4,2.6,2.7,3.2l7.6,4.2l-8.3,19.5l-18.4-11.4c-3.1-1.8-5.1-5.1-5.4-8.7
					l-3.9-56.5"/>
				<path class="st3" d="M115.2,376.2l-20.4-12.7c-3.7-2.2-6-6-6.3-10.3l-3.9-56.5l4-1.2l3.9,57.4c0.2,3,1.8,5.7,4.4,7.2l16.5,10.2
					l6.7-15.7l-6-3.3c-1.7-0.9-3.1-2.5-3.7-4.4l-14.7-52.1l4-0.2l14.4,51.2c0.3,0.8,0.9,1.6,1.7,2l9.2,5.1L115.2,376.2z"/>
			</g>
		</g>
		<g>
			<defs>
				<polyline id="SVGID_3_" points="60.6,502.6 60.6,216.1 238.4,216.1 238.4,502.2 				"/>
			</defs>
			<clipPath id="SVGID_4_">
				<use xlink:href="#SVGID_3_"  style="overflow:visible;"/>
			</clipPath>
			<g class="st4">
				<circle class="st5" cx="170.8" cy="334.9" r="23"/>
				<path class="st6" d="M150.1,323.9c0,0,8.6-9.8,13.9-11.2c0,0,3.6,21.6,23.7,21.6c0,0,1.3,10.7-6.8,9.6l1.3,20.8
					c0,0,19.8,2.5,21.2-23.5c0.9-17.5-13.9-31.7-23.7-39.1c-6.5-4.9-14.8-7.2-22.8-5.8c-4.8,0.9-9.2,3.1-9.8,8.1
					C145.6,316.5,150.1,323.9,150.1,323.9z"/>
				<circle class="st6" cx="199.2" cy="306.8" r="14.2"/>
			</g>
		</g>
		<g>
			<defs>
				<polyline id="SVGID_5_" points="60.6,502.6 60.6,216.1 238.4,216.1 238.4,502.2 				"/>
			</defs>
			<clipPath id="SVGID_6_">
				<use xlink:href="#SVGID_5_"  style="overflow:visible;"/>
			</clipPath>
			<path class="st7" d="M166.5,365.5c0.2,6,3,9.5,8.1,9.2s8-4.1,7.7-10l13.6-0.1c5.7-0.1,11.1,2,15.2,5.9l21.1,19.8l-15.7,25.2
				l-7.8-8.2l5.9,43.2l-59.5,7.8l-4.6-55.9l-34.7-22.9l10.5-24.2l22,8.3c5.3,2,11.1,2.7,16.8,1.8L166.5,365.5L166.5,365.5z"/>
		</g>
		<g>
			<defs>
				<polyline id="SVGID_7_" points="60.6,502.6 60.6,216.1 238.4,216.1 238.4,502.2 				"/>
			</defs>
			<clipPath id="SVGID_8_">
				<use xlink:href="#SVGID_7_"  style="overflow:visible;"/>
			</clipPath>
			<line class="st8" x1="156.9" y1="458.7" x2="147.1" y2="557.5"/>
		</g>
		<g>
			<defs>
				<polyline id="SVGID_9_" points="60.6,502.6 60.6,216.1 238.4,216.1 238.4,502.2 				"/>
			</defs>
			<clipPath id="SVGID_10_">
				<use xlink:href="#SVGID_9_"  style="overflow:visible;"/>
			</clipPath>
			<path class="st9" d="M213.1,539"/>
		</g>
		<g>
			<defs>
				<polyline id="SVGID_11_" points="60.6,502.6 60.6,216.1 238.4,216.1 238.4,502.2 				"/>
			</defs>
			<clipPath id="SVGID_12_">
				<use xlink:href="#SVGID_11_"  style="overflow:visible;"/>
			</clipPath>
			<path class="st10" d="M214.6,450.5c0,0,14.5,18.7,18.6,47.2c4.2,28.5,8.8,52.3,8.8,52.3"/>
		</g>
		<g>
			<defs>
				<polyline id="SVGID_13_" points="60.6,502.6 60.6,216.1 238.4,216.1 238.4,502.2 				"/>
			</defs>
			<clipPath id="SVGID_14_">
				<use xlink:href="#SVGID_13_"  style="overflow:visible;"/>
			</clipPath>
			<path class="st11" d="M266.1,456.5c-17.4-10.1-44.1-40.2-45.1-40.5l11.4-18.3l25.7,29.4L266.1,456.5z"/>
		</g>
		<g>
			<defs>
				<polyline id="SVGID_15_" points="60.6,502.6 60.6,216.1 238.4,216.1 238.4,502.2 				"/>
			</defs>
			<clipPath id="SVGID_16_">
				<use xlink:href="#SVGID_15_"  style="overflow:visible;"/>
			</clipPath>
			<line class="st12" x1="166.5" y1="365.5" x2="166.5" y2="357.5"/>
		</g>
		<g>
			<defs>
				<polyline id="SVGID_17_" points="60.6,502.6 60.6,216.1 238.4,216.1 238.4,502.2 				"/>
			</defs>
			<clipPath id="SVGID_18_">
				<use xlink:href="#SVGID_17_"  style="overflow:visible;"/>
			</clipPath>
			<path class="st13" d="M85.7,292.3c0,0-4.8-3.9-5-7.8c-0.2-3.9,2.2-4,2.2-4s-0.5-3.6,3.2-3.6c0,0,0.8-4.3,4.3-0.9
				c3.6,3.4,3.6,3.4,3.6,3.4s0.8-3.2,3.1,0.6s0.9,11.5,0.9,11.5l-1.8,5.8l-7.6-0.1L85.7,292.3z"/>
		</g>
	</g>
	<polyline class="st14" points="60.6,505.5 60.6,216.1 238.4,216.1 238.4,504 	"/>
	<path class="st15" d="M140.8,346.3"/>
	<g>
		<g>
			<defs>
				<path id="SVGID_19_" d="M60.6,216.1h177.8V504l-177.8,1.5L60.6,216.1L60.6,216.1z M151,98.4c-50,0-88.2,26.1-90.4,26.9v66.5H151
					h90.4v-66.5C239.2,124.5,201.1,98.4,151,98.4z"/>
			</defs>
			<clipPath id="SVGID_20_">
				<use xlink:href="#SVGID_19_"  style="overflow:visible;"/>
			</clipPath>
			
				<linearGradient id="SVGID_21_" gradientUnits="userSpaceOnUse" x1="-4453.8345" y1="-5096.9614" x2="-4453.8345" y2="-4700.7012" gradientTransform="matrix(-1 0 0 1 -4274.4253 5481.1108)">
				<stop  offset="0.1977" style="stop-color:#FFCC33"/>
				<stop  offset="0.8337" style="stop-color:#F45E39"/>
			</linearGradient>
			<circle class="st16" cx="179.4" cy="582.3" r="198.1"/>
		</g>
	</g>
	<g>
		<g>
			<defs>
				<rect id="SVGID_22_" x="46.5" y="416.4" width="75.8" height="85.9"/>
			</defs>
			<clipPath id="SVGID_23_">
				<use xlink:href="#SVGID_22_"  style="overflow:visible;"/>
			</clipPath>
			<g class="st17">
				<path class="st18" d="M81.4,482.2c0,0-25.3-15.2-27.5-42.4c0,0,12.2,21.4,24.1,28c0,0-11.1-20.1-11.9-30.7
					c0,0,9.4,18.4,16.4,25.2c0,0-6.4-23.9-5.2-33.5c0,0,5.3,12.1,10.6,28.8c0.2-0.9,4.8-25.1,13.7-32.8c0,0-1.2,24.2-7.4,36.2
					c0,0,8.8-9.5,14.3-18.8c0,0-2.2,17.5-10,24.4c0,0,16.9-12.2,20.9-25.5c0,0,1.7,25.5-23.4,41.6L81.4,482.2z"/>
				<path class="st19" d="M96.6,480.7H80.8c-0.9,0-1.7,0.7-1.7,1.7v22.3c0,0.9,0.7,1.7,1.7,1.7h15.8c0.9,0,1.7-0.7,1.7-1.7v-22.3
					C98.3,481.4,97.6,480.7,96.6,480.7z"/>
			</g>
		</g>
	</g>
	<rect x="24.3" y="551.3" class="st0" width="33.2" height="20.5"/>
	<rect x="232.5" y="551.3" class="st0" width="33.2" height="20.5"/>
	<polygon class="st0" points="141.8,81.2 132.9,7.3 169.5,7.3 162,81.2 	"/>
	<rect x="71.3" y="265.1" class="st3" width="42.4" height="11.6"/>
	<g>
		<g>
			<defs>
				<path id="SVGID_24_" d="M151,95.2c-50.1,0-88.2,26.1-90.4,26.9v66.5H151h90.4v-66.5C239.2,121.4,201.1,95.2,151,95.2z"/>
			</defs>
			<clipPath id="SVGID_25_">
				<use xlink:href="#SVGID_24_"  style="overflow:visible;"/>
			</clipPath>
			<g class="st20">
				<line class="st21" x1="62.9" y1="114.1" x2="239" y2="114.1"/>
				<line class="st21" x1="62.9" y1="131.7" x2="239" y2="131.7"/>
				<line class="st21" x1="62.9" y1="149.3" x2="239" y2="149.3"/>
				<line class="st21" x1="62.9" y1="166.9" x2="239" y2="166.9"/>
				<line class="st21" x1="62.9" y1="184.5" x2="239" y2="184.5"/>
			</g>
		</g>
		<g>
			<defs>
				<path id="SVGID_26_" d="M151,95.2c-50.1,0-88.2,26.1-90.4,26.9v66.5H151h90.4v-66.5C239.2,121.4,201.1,95.2,151,95.2z"/>
			</defs>
			<clipPath id="SVGID_27_">
				<use xlink:href="#SVGID_26_"  style="overflow:visible;"/>
			</clipPath>
			<g class="st22">
				<line class="st21" x1="160.4" y1="122.5" x2="216.2" y2="122.5"/>
				<line class="st21" x1="160.4" y1="140.2" x2="216.2" y2="140.2"/>
				<line class="st21" x1="160.4" y1="157.9" x2="216.2" y2="157.9"/>
				<line class="st21" x1="160.4" y1="175.6" x2="216.2" y2="175.6"/>
			</g>
		</g>
		<g>
			<defs>
				<path id="SVGID_28_" d="M151,95.2c-50.1,0-88.2,26.1-90.4,26.9v66.5H151h90.4v-66.5C239.2,121.4,201.1,95.2,151,95.2z"/>
			</defs>
			<clipPath id="SVGID_29_">
				<use xlink:href="#SVGID_28_"  style="overflow:visible;"/>
			</clipPath>
			<g class="st23">
				<line class="st21" x1="83.1" y1="122.5" x2="138.9" y2="122.5"/>
				<line class="st21" x1="83.1" y1="140.2" x2="138.9" y2="140.2"/>
				<line class="st21" x1="83.1" y1="157.9" x2="138.9" y2="157.9"/>
				<line class="st21" x1="83.1" y1="175.6" x2="138.9" y2="175.6"/>
			</g>
		</g>
	</g>
	<g>
		<g>
			<path class="st24" d="M236,254.1"/>
		</g>
		<g>
			<path class="st24" d="M63,254.1"/>
		</g>
		<g>
			<line class="st25" x1="63" y1="236.5" x2="236" y2="236.5"/>
			<line class="st25" x1="63" y1="256" x2="236" y2="256"/>
			<line class="st25" x1="63" y1="275.6" x2="236" y2="275.6"/>
			<path class="st24" d="M236,490.5"/>
			<path class="st24" d="M63,490.5"/>
		</g>
	</g>
	<g>
		<g>
			<path class="st24" d="M216,244.2"/>
		</g>
		<g>
			<path class="st24" d="M160.2,244.2"/>
		</g>
		<g>
			<line class="st25" x1="160.2" y1="226.6" x2="216" y2="226.6"/>
			<line class="st25" x1="160.2" y1="246.1" x2="216" y2="246.1"/>
			<line class="st25" x1="160.2" y1="265.6" x2="216" y2="265.6"/>
		</g>
	</g>
	<g>
		<g>
			<path class="st24" d="M139.7,244.2"/>
		</g>
		<g>
			<path class="st24" d="M83.9,244.2"/>
		</g>
		<g>
			<line class="st25" x1="83.9" y1="226.6" x2="139.7" y2="226.6"/>
			<line class="st25" x1="83.9" y1="246.1" x2="139.7" y2="246.1"/>
			<line class="st25" x1="83.9" y1="265.6" x2="139.7" y2="265.6"/>
		</g>
	</g>
</g>
</svg>
