<?xml version="1.0" encoding="utf-8"?>
<!-- Generator: Adobe Illustrator 25.0.0, SVG Export Plug-In . SVG Version: 6.00 Build 0)  -->
<svg version="1.1" id="Layer_1" xmlns="http://www.w3.org/2000/svg" xmlns:xlink="http://www.w3.org/1999/xlink" x="0px" y="0px"
	 viewBox="0 0 113.5 97.6" style="enable-background:new 0 0 113.5 97.6;" xml:space="preserve">
<style type="text/css">
	.st0{fill:#FFFFFF;}
</style>
<g>
	<path class="st0" d="M48.4,85.2h24.3c1,0,1.8-0.8,1.8-1.8V53.6c0-1-0.8-1.8-1.8-1.8H48.4c-1,0-1.8,0.8-1.8,1.8v29.8
		C46.6,84.4,47.4,85.2,48.4,85.2z M70.9,69.9H50.2v-2.6h20.7V69.9z M50.2,73.4h20.7V76H50.2V73.4z M70.9,63.7H50.2v-2.6h20.7V63.7z
		 M70.9,81.6H50.2v-2h20.7V81.6z M50.2,55.3h20.7v2.2H50.2V55.3z"/>
	<path class="st0" d="M112.1,41.3c0-0.2-0.1-0.5-0.3-0.7l-18-27.4c-0.4-0.6-1-0.9-1.7-0.9H83V2.6c0-1.1-0.9-2-2-2h-8
		c-1.1,0-2,0.9-2,2v9.6H23.6c-0.2,0-0.3,0-0.5,0.1c-0.2,0-0.3-0.1-0.5-0.1l0,0c-0.7,0-1.3,0.3-1.6,0.9L1.2,41.4c0,0,0,0,0,0
		c-0.1,0.1-0.2,0.3-0.2,0.4c0,0,0,0.1,0,0.1c0,0.1-0.1,0.2-0.1,0.4c0,0,0,0.1,0,0.1c0,0,0,0,0,0.1c0,0.1,0,0.3,0,0.4c0,0,0,0,0,0
		c0,0.2,0.1,0.3,0.2,0.4c0,0,0,0,0,0.1s0,0,0,0.1c0.1,0.1,0.2,0.2,0.2,0.3c0,0,0,0,0,0.1c0.1,0.1,0.2,0.2,0.4,0.3c0,0,0.1,0,0.1,0.1
		c0.1,0.1,0.2,0.1,0.3,0.2c0,0,0.1,0,0.1,0c0.2,0,0.3,0.1,0.5,0.1h3.6v49.9c0,1.1,0.9,2,2,2h30.3h65.2c1.1,0,2-0.9,2-2V44.5h4.7
		c1.1,0,2-0.9,2-2C112.5,42.1,112.4,41.6,112.1,41.3z M75,4.6h4v7h-4V4.6z M15.5,55.2c0-1.1,0.9-2,2-2h14c1.1,0,2,0.9,2,2
		s-0.9,2-2,2h-12v8.1h10.3c1.1,0,2,0.9,2,2s-0.9,2-2,2H19.5v10.5c0,1.1-0.9,2-2,2s-2-0.9-2-2V55.2z M91.6,92.2h-9.8V55.4h9.8V92.2z
		 M101.9,92.4h-4.3V53.6c0-1-0.8-1.8-1.8-1.8h-2.4H80c-1,0-1.8,0.8-1.8,1.8v38.8H40.7V44.5h61.2L101.9,92.4L101.9,92.4z M103.9,40.5
		H43.2L26.4,16.3h64.7L107,40.5H103.9z"/>
</g>
</svg>
