<svg id="Layer_1" data-name="Layer 1" xmlns="http://www.w3.org/2000/svg" xmlns:xlink="http://www.w3.org/1999/xlink" viewBox="0 0 1479.07 644.64"><defs><style>.cls-1,.cls-11,.cls-14,.cls-16,.cls-21,.cls-22,.cls-23,.cls-26,.cls-5,.cls-6,.cls-8{fill:none;}.cls-13,.cls-2,.cls-3,.cls-4,.cls-7{fill:#f45e39;}.cls-11,.cls-15,.cls-16,.cls-17,.cls-18,.cls-19,.cls-2,.cls-20,.cls-21,.cls-22,.cls-23,.cls-26,.cls-3,.cls-4,.cls-5{stroke:#fafac6;}.cls-2,.cls-25,.cls-26,.cls-27,.cls-4,.cls-5{stroke-linecap:round;}.cls-11,.cls-14,.cls-15,.cls-16,.cls-17,.cls-18,.cls-19,.cls-2,.cls-20,.cls-26,.cls-27,.cls-8{stroke-linejoin:round;}.cls-2,.cls-20,.cls-24,.cls-25,.cls-26,.cls-3,.cls-4,.cls-5{stroke-width:1.47px;}.cls-21,.cls-22,.cls-23,.cls-24,.cls-25,.cls-3,.cls-4,.cls-5,.cls-6,.cls-7{stroke-miterlimit:10;}.cls-6,.cls-7,.cls-8{stroke:#fc3;}.cls-6,.cls-7{stroke-width:2.23px;}.cls-21,.cls-8{stroke-width:2.2px;}.cls-9{clip-path:url(#clip-path);}.cls-10,.cls-18,.cls-19{fill:#fc3;}.cls-11,.cls-14,.cls-15{stroke-width:1.74px;}.cls-12,.cls-15,.cls-17,.cls-20,.cls-24,.cls-25,.cls-27{fill:#fafac6;}.cls-14{stroke:#000;}.cls-16,.cls-18{stroke-width:1.4px;}.cls-17,.cls-19{stroke-width:1.51px;}.cls-22{stroke-width:2.16px;}.cls-23{stroke-width:2.17px;}.cls-24,.cls-25,.cls-27{stroke:#f45e39;}.cls-27{stroke-width:1.08px;}</style><clipPath id="clip-path" transform="translate(-216.63 -321.98)"><rect class="cls-1" x="896.11" y="560.34" width="146.93" height="144.58"/></clipPath></defs><path class="cls-2" d="M692.81,778.53l.26,1.62a2.74,2.74,0,0,0,1.94,2.2h0l-2,3.39a5.37,5.37,0,0,1-4,2.26,8.21,8.21,0,0,1-7.28-3.53l-1.83-7.84" transform="translate(-216.63 -321.98)"/><path class="cls-3" d="M702,871h0a61.08,61.08,0,0,0,2.93-18.68v-5.73H688.65L702,871" transform="translate(-216.63 -321.98)"/><path class="cls-3" d="M661.33,950.52c-.47.31-2,3.87-2,3.87s11.45,5.26,12.22,6,3.25,3.56-3.87,3.56-15.77-.16-15.77-.16-4.64-.46-2.78-5,4.17-11.44,4.17-11.44" transform="translate(-216.63 -321.98)"/><path class="cls-3" d="M716.43,951.2c0,.26,3,6.08,3,6.08l.75,4.36a3.07,3.07,0,0,0,4.31,2.28l.09,0,16.87-8.43a2.24,2.24,0,0,0,1.23-1.52,1.55,1.55,0,0,0-.37-1.44c-1.54-1.65-17.11,0-17.11,0l-1.08-4.38" transform="translate(-216.63 -321.98)"/><path class="cls-3" d="M675.81,875.18l-2.3,20.66a33.74,33.74,0,0,1-3.11,10.87l-19,39.58L663,951.5s16.24-25.55,23-35.81a29.21,29.21,0,0,0,4.06-9.5l1.1-4.81" transform="translate(-216.63 -321.98)"/><path class="cls-3" d="M694,847l18.77,55.7,12.69,45.4-11.07,3.58-20-45.56s-30.43-47.84-30.43-58.42" transform="translate(-216.63 -321.98)"/><path class="cls-4" d="M578.34,901.91s1.67,2.85,1.42,4.23l-.56,2.31a2.78,2.78,0,0,1,1.13.94c.48,1.25-1,1.47-1,1.47a9.44,9.44,0,0,1-2.71-.34,4.67,4.67,0,0,1-3.29-2.74h0a4.15,4.15,0,0,1-.15-2.84c.48-1.59,1.2-4,1.22-4.17" transform="translate(-216.63 -321.98)"/><path class="cls-5" d="M579.76,906.14a16.51,16.51,0,0,1-.47,2,.64.64,0,0,1-1.13.21,1.53,1.53,0,0,1-.27-.63,6.4,6.4,0,0,0-.5-1.57" transform="translate(-216.63 -321.98)"/><path class="cls-3" d="M594.71,954.18a16.15,16.15,0,0,0-1.59,2.44s9,4.15,9.64,4.76,2.56,2.81-3,2.81-12.45-.12-12.45-.12-3.66-.37-2.2-3.91,3.3-9,3.3-9" transform="translate(-216.63 -321.98)"/><line class="cls-6" x1="1479.07" y1="643.52" y2="643.52"/><rect class="cls-7" x="579.61" y="36.4" width="862.72" height="606.46"/><rect class="cls-7" x="569.97" y="1.11" width="879.34" height="35.95"/><polygon class="cls-8" points="827.48 384.23 690.23 384.23 690.23 276.01 690.23 266.15 827.48 266.15 827.48 384.23"/><polygon class="cls-8" points="660.01 384.72 690.23 384.23 689.98 266.15 659.28 265.94 660.01 384.72"/><polygon class="cls-8" points="857.7 384.72 827.48 384.23 827.97 266.15 858.43 265.94 857.7 384.72"/><polyline class="cls-8" points="676.81 384.56 676.81 397.41 840.5 397.41 840.5 384.56"/><polyline class="cls-8" points="676.81 266.75 676.81 253.9 840.5 253.9 840.5 266.26"/><g class="cls-9"><path class="cls-10" d="M999,657.4l-1.89-6.88a.25.25,0,0,0,0-.07c-2.32-6.86-13-5.53-14.23-5.37l-1.26-4.43a.3.3,0,0,0-.27-.22L963.44,640a.32.32,0,0,0-.22.1.29.29,0,0,0-.07.22L965.84,669c-10.22-3.05-11-9.81-11.76-16.36a42.24,42.24,0,0,0-.8-5.1c-1.64-6.62-6.93-8.42-9.49-8.44l0,2.5c.22,0,5.52.18,7.09,6.54a39,39,0,0,1,.74,4.79c.8,6.86,1.8,15.38,14.5,18.74l.32,3.44a.31.31,0,0,0,.21.26,17.59,17.59,0,0,0,4.32.45c.71,0,1.49,0,2.34-.11a35.93,35.93,0,0,0,16.37-6,.31.31,0,0,0,.12-.32l-1.44-5.09c5.26-.2,8.67-1.37,10.11-3.49A3.94,3.94,0,0,0,999,657.4Zm-2.64,2c-.58.85-2.49,2.28-8.76,2.42l-4-14.28c1.86-.21,9.61-.79,11.16,3.7l1.89,6.88,0,.1A1.49,1.49,0,0,1,996.38,659.38Z" transform="translate(-216.63 -321.98)"/><circle class="cls-11" cx="801.47" cy="268.64" r="14.24"/><path class="cls-12" d="M994.29,622.4s-2.8-.14-7.31-.65c-5.1-.58-5.56-3.62-5.58-3.75L979,584.13l-1.69-1.54a12,12,0,0,1-3.28-5.37,38,38,0,0,0-3.09-2.4c-1.19-.81-1.8-1.57-1.87-2.31a1.31,1.31,0,0,1,.38-1.07,1.22,1.22,0,0,1,.9-.33,4.22,4.22,0,0,1,1.46.35l.08,0,.93.68-2-2.81a1.89,1.89,0,0,1,0-2.51,1.77,1.77,0,0,1,1.12-.42,1.67,1.67,0,0,1,.86.23l.11.06,2.49,3-1-2.47c-.27-.59-1.1-2.67.08-3.52a1.61,1.61,0,0,1,1-.34,1.46,1.46,0,0,1,1.28.83c.07.13,1.84,3.5,2.67,5.55l.06.14c-.14-.69-.3-1.48-.44-2.12s-.3-1.46-.38-1.86c-.27-1.57.33-2.63,1.05-2.83a1.19,1.19,0,0,1,.33,0,1.67,1.67,0,0,1,1.5,1.18,53.43,53.43,0,0,1,1.52,6.84,8.89,8.89,0,0,0,.18,1c.22-1.54,1.13-2.33,2-2.33h.11a1.23,1.23,0,0,1,.88.45,2.53,2.53,0,0,1,.35,1.86l-.07.71a35.56,35.56,0,0,0-.29,4.58,9.61,9.61,0,0,1-.64,4.14,4.71,4.71,0,0,0-.05,2.1l5.8,26.88,22.83-1-2,15.1Z" transform="translate(-216.63 -321.98)"/><path class="cls-13" d="M979.92,563.76a1,1,0,0,1,.82.71,54.28,54.28,0,0,1,1.47,6.67,9.35,9.35,0,0,0,1.21,3.51,7.71,7.71,0,0,0,.39-2.21c.09-1.39.78-2,1.3-2h0c.52.05.65.57.56,1.52a40.23,40.23,0,0,0-.35,5.5,8.91,8.91,0,0,1-.6,3.72,5.48,5.48,0,0,0-.09,2.51l5.93,27.5,22.57-1-1.83,13.51-17-2s-2.73-.13-7.32-.65-4.93-3.12-4.93-3.12l-2.47-34.12-1.91-1.73a11.36,11.36,0,0,1-3.12-5.24,41.73,41.73,0,0,0-3.33-2.6c-1.65-1.12-1.73-1.9-1.39-2.25a.54.54,0,0,1,.39-.12,3.78,3.78,0,0,1,1.17.29l4.55,3.3-4.68-6.5s-.69-1-.13-1.52a1,1,0,0,1,.65-.25,1,1,0,0,1,.48.13l5.46,6.49L975,566.94s-1-2.08-.17-2.64a.9.9,0,0,1,.54-.21.78.78,0,0,1,.63.42s1.82,3.47,2.64,5.5a10,10,0,0,0,1.73,3v-1.51c0-.74-.87-4.51-1.08-5.72s.21-1.91.52-2l.13,0m0-1.47a2,2,0,0,0-.54.08,2.56,2.56,0,0,0-1.62,2.39c-.27-.53-.46-.88-.48-.93a2.2,2.2,0,0,0-1.93-1.2,2.35,2.35,0,0,0-1.4.48,2.72,2.72,0,0,0-.8,2.95l0,0a2.49,2.49,0,0,0-1.25-.33,2.43,2.43,0,0,0-1.59.59,2.56,2.56,0,0,0-.15,3.45l0,0v0l.43.6-.28,0a1.94,1.94,0,0,0-1.42.55,2,2,0,0,0-.59,1.65c.09,1,.81,1.91,2.18,2.85,1.14.78,2.32,1.75,2.87,2.22a12.92,12.92,0,0,0,3.42,5.5l1.48,1.34L980.66,618v.09c0,.15.56,3.74,6.23,4.38,4.29.49,7,.63,7.36.65l16.92,2,1.43.17.2-1.43,1.83-13.51.23-1.74-1.75.08-21.33.94-5.67-26.29a3.87,3.87,0,0,1,0-1.66,10.48,10.48,0,0,0,.68-4.57,41,41,0,0,1,.3-4.35c0-.3.06-.54.07-.71a3.25,3.25,0,0,0-.51-2.41,2.08,2.08,0,0,0-1.39-.7h-.17a2.4,2.4,0,0,0-1.65.71,54.57,54.57,0,0,0-1.35-5.7,2.42,2.42,0,0,0-2.19-1.65Z" transform="translate(-216.63 -321.98)"/><path class="cls-14" d="M1014.56,674l-11.35,49.53-.69,5,15.93,48.75h8.06c-.26,0-8.83-48.15-8.83-48.15l13.16-33.34" transform="translate(-216.63 -321.98)"/><polyline class="cls-14" points="813.17 349.31 817.67 404.48 824.68 452.63 834.3 451.41 834.3 400.06"/><polyline class="cls-11" points="802.86 283.23 803.73 286.87 800.17 288.67"/><path class="cls-11" d="M1025.47,602.53h0a8.49,8.49,0,0,0,5.49,5.53" transform="translate(-216.63 -321.98)"/><circle class="cls-15" cx="806.9" cy="249.18" r="6.58"/><path class="cls-15" d="M1032.33,590.16a14.23,14.23,0,1,0-27.19,6.32A20,20,0,0,0,1009.5,586S1021.74,591.92,1032.33,590.16Z" transform="translate(-216.63 -321.98)"/><path class="cls-13" d="M1029.89,731.13a45.49,45.49,0,0,1-23.64-6.19,32.86,32.86,0,0,1-7.4-5.93l17-108.2,1.11-.37,1.81,12.16a.88.88,0,0,0,.85.74h0a.88.88,0,0,0,.86-.72c2.28-12.44,9.39-14.3,10.57-14.52,7.39,2,9.65,10.75,9.67,10.84l18.87,104.91C1057.72,725.24,1048.65,731.13,1029.89,731.13Z" transform="translate(-216.63 -321.98)"/><path class="cls-12" d="M1031,609c6.46,1.91,8.66,9.47,8.84,10.11l18.76,104.37c-2.48,1.72-11.29,6.79-28.75,6.79-18.1,0-27.9-9.18-30.12-11.53l16.66-106,1.48,10a1.76,1.76,0,0,0,1.69,1.49h0a1.74,1.74,0,0,0,1.71-1.43c1-5.26,3-9.33,5.91-11.75a9.88,9.88,0,0,1,3.79-2m.06-1.78s-8.87,1.1-11.47,15.26l-2-13.18-2.59.86L997.93,719.27s10.13,12.73,32,12.73,30.65-7.79,30.65-7.79l-19-105.48s-2.34-9.44-10.48-11.52Z" transform="translate(-216.63 -321.98)"/><path class="cls-12" d="M993.4,659.36a3.39,3.39,0,0,1-2.67-1,2.91,2.91,0,0,1-.86-1.84,3.2,3.2,0,0,1-.79-.78,2,2,0,0,1-.1-1.94,2,2,0,0,1,.08-2.36l.06-.1c.45-.79,3.63-3.26,4.92-3.38h.12c1.12,0,5.74,2.09,7.9,3.1l18.12-2,9.28-.56-1.82-19c0-.07-.44-5.31-1-8.61a9.93,9.93,0,0,1,2.2-7.39,7,7,0,0,1,5.45-2.51,8.38,8.38,0,0,1,1.11.07,8,8,0,0,1,7,7.58l.17,11.28c0,.28-1.3,21.16-1.56,24.5-.13,1.69-1.29,3.86-6,4.57l-.16,0a1,1,0,0,1-.32,0c-2.14,0-29.8-1.11-32.33-1.21a50.65,50.65,0,0,1-5.34,1.11A22.57,22.57,0,0,1,993.4,659.36Z" transform="translate(-216.63 -321.98)"/><path class="cls-13" d="M1034.34,611.9a8.7,8.7,0,0,1,1,.07c6,.78,6.24,6.76,6.24,6.76l.17,11.25s-1.3,21-1.56,24.43-5.28,3.72-5.54,3.81h-.12c-2.19,0-32.44-1.22-32.44-1.22a43.69,43.69,0,0,1-5.37,1.13,21.66,21.66,0,0,1-3.32.36,2.47,2.47,0,0,1-2-.71,2.85,2.85,0,0,0-1.56-2.51c-.43-.6.26-1.64.26-1.64-.95-.61-.52-1.22-.17-1.82s3.29-2.86,4.24-2.95h0c1.09,0,7.75,3.12,7.75,3.12l18.36-2,10.14-.61-1.91-19.92s-.43-5.28-1-8.66c-.49-3.18,1.55-8.9,6.79-8.9m0-1.73a7.83,7.83,0,0,0-6.11,2.82,10.68,10.68,0,0,0-2.4,8.08c.5,3.28.93,8.48.94,8.54l1.73,18.15-8.33.49h-.08l-17.88,1.94c-4.39-2-7.1-3.08-8.05-3.08H994c-1.64.15-5,2.83-5.59,3.82l-.06.09A3,3,0,0,0,988,654a2.69,2.69,0,0,0,.36,2.32,3.88,3.88,0,0,0,.68.75,3.83,3.83,0,0,0,1.06,2,4.21,4.21,0,0,0,3.28,1.22,23.44,23.44,0,0,0,3.6-.39,50.11,50.11,0,0,0,5.3-1.09c3.26.13,30.12,1.21,32.23,1.21a2,2,0,0,0,.5-.05h.11c2.94-.44,6.5-1.73,6.78-5.36.26-3.35,1.51-23.59,1.56-24.45V630l-.18-11.26a8.82,8.82,0,0,0-7.74-8.45,8.65,8.65,0,0,0-1.23-.08Z" transform="translate(-216.63 -321.98)"/><path class="cls-16" d="M928.05,692.68s0-36.89,5.75-45.47" transform="translate(-216.63 -321.98)"/><path class="cls-17" d="M933.28,682c-1-.23-1.43-1.7-.89-2.78a26.09,26.09,0,0,1,7.06-8.2c3.64-2.94,5.83-3.43,7-3.29a2.11,2.11,0,0,1,1.6,2.34c-.07,1.82-1.15,5-6.39,8.69C937.23,682,934.68,682.33,933.28,682Z" transform="translate(-216.63 -321.98)"/><path class="cls-17" d="M924.44,682.77a1.22,1.22,0,0,0,.59-1.72,16.6,16.6,0,0,0-4.32-5.26c-2.24-1.91-3.6-2.25-4.36-2.19a1.3,1.3,0,0,0-1,1.43c0,1.14.66,3.12,3.89,5.56C922,682.67,923.56,683,924.44,682.77Z" transform="translate(-216.63 -321.98)"/><path class="cls-17" d="M926.15,653.82c.54.4,1.22-.07,1.29-.87a23.31,23.31,0,0,0-.83-7.6c-.84-3.3-1.73-4.67-2.35-5.23a.94.94,0,0,0-1.5.28c-.53.91-1,3,.37,7.49C924.28,651.75,925.38,653.25,926.15,653.82Z" transform="translate(-216.63 -321.98)"/><path class="cls-17" d="M933.8,666.58c-.9.07-1.54-1-1.24-2,.49-1.7,3.79-7.48,6.84-11.32,2.68-3.37,4.5-4.35,5.59-4.56a1.58,1.58,0,0,1,1.78,1.48c.25,1.51-.16,4.35-4.11,8.8C939.3,662.75,935.07,666.48,933.8,666.58Z" transform="translate(-216.63 -321.98)"/><path class="cls-17" d="M922.15,668.86c1,.25,1.91-1.06,1.7-2.46a37.92,37.92,0,0,0-4.44-12.22c-2.68-4.94-4.67-6.57-5.91-7-.94-.36-2,.34-2.27,1.63-.48,2-.37,5.79,3.64,12.39C918.29,666.79,920.67,668.49,922.15,668.86Z" transform="translate(-216.63 -321.98)"/><rect class="cls-17" x="703.34" y="370.79" width="15.89" height="12.08"/><path class="cls-17" d="M942,631.41c-.59-1.91-2.3-2.73-3.76-1.93s-3.18,2.58-4,6.89A93,93,0,0,0,933,646c-.09,1.24,1.06,1.95,1.75,1.09l4.74-5.94a12.65,12.65,0,0,0,2.55-5.74A8.62,8.62,0,0,0,942,631.41Z" transform="translate(-216.63 -321.98)"/><line class="cls-18" x1="708.34" y1="360.28" x2="711.84" y2="362.59"/><line class="cls-18" x1="707" y1="345.94" x2="711.94" y2="353.97"/><path class="cls-19" d="M931,672.36" transform="translate(-216.63 -321.98)"/><path class="cls-18" d="M926.7,653.86c.13.68,2.92,11.67,2.79,11.35" transform="translate(-216.63 -321.98)"/><path class="cls-18" d="M928.78,671.06s3-4.11,4-4.78" transform="translate(-216.63 -321.98)"/><path class="cls-18" d="M932.26,681.16c-.15.38-3.72,2.32-4.13,4.72" transform="translate(-216.63 -321.98)"/></g><polygon class="cls-8" points="829.43 207.44 692.18 207.44 692.18 99.22 692.18 89.36 829.43 89.36 829.43 207.44"/><polygon class="cls-8" points="661.96 207.93 692.42 207.44 692.18 99.22 692.18 89.36 661.23 89.14 661.96 207.93"/><polygon class="cls-8" points="859.65 207.93 829.43 207.44 829.92 99.22 829.92 89.36 860.38 89.14 859.65 207.93"/><polyline class="cls-8" points="842.45 207.76 842.45 220.62 678.76 220.62 678.76 207.76"/><polyline class="cls-8" points="678.76 89.96 678.76 77.1 842.45 77.1 842.45 89.47"/><polygon class="cls-8" points="1086.2 384.23 948.95 384.23 948.95 276.01 948.95 266.15 1086.2 266.15 1086.2 384.23"/><polygon class="cls-8" points="918.73 384.72 948.95 384.23 948.7 266.15 918 265.94 918.73 384.72"/><polygon class="cls-8" points="1116.42 384.72 1086.2 384.23 1086.69 266.15 1117.15 265.94 1116.42 384.72"/><polyline class="cls-8" points="935.53 384.56 935.53 397.41 1099.22 397.41 1099.22 384.56"/><polyline class="cls-8" points="935.53 266.75 935.53 253.9 1099.22 253.9 1099.22 266.26"/><polygon class="cls-8" points="1086.2 207.44 948.95 207.44 948.95 99.22 948.95 89.36 1086.2 89.36 1086.2 207.44"/><polygon class="cls-8" points="918.73 207.93 948.95 207.44 948.95 99.22 948.7 89.36 918 89.14 918.73 207.93"/><polygon class="cls-8" points="1116.42 207.93 1086.2 207.44 1086.69 99.22 1086.69 89.36 1117.15 89.14 1116.42 207.93"/><polyline class="cls-8" points="935.53 207.76 935.53 220.62 1099.22 220.62 1099.22 207.76"/><polyline class="cls-8" points="935.53 89.96 935.53 77.1 1099.22 77.1 1099.22 89.47"/><path class="cls-13" d="M737.15,737.77a4.45,4.45,0,0,0,.23-.66,10.39,10.39,0,0,0,.23-4.08l0,0,0-.15a10.55,10.55,0,0,0-.22-1.12c-.79-3.13-1.89-7-2-7.35a.92.92,0,0,0-1.83.12c0,.09.64,2.66,1.24,5.49-.72-2.61-2.07-7.68-2.16-8a1,1,0,0,0-1.18-.84,1,1,0,0,0-.81,1.29c.09.4.94,3.8,1.84,7-.87-2.59-2.32-7.58-2.43-8a1.09,1.09,0,0,0-1.07-.87,1.1,1.1,0,0,0-1.1,1.1c0,.19,0,.29,1.52,4.85-.54-1.44-1-2.56-1-2.83a1.15,1.15,0,0,0-2.27.17c0,.31,0,.4,2.59,7.27l-.09.46a1.29,1.29,0,0,0-.18-.16,2.78,2.78,0,0,0-2.12-.32l1.46,5,.25.87a9,9,0,0,0,1.34,2,4.25,4.25,0,0,0,2.53,1.47l-3.36,29.73a3.68,3.68,0,0,1-1.53,2.59c-1.61,1.14-7.19,4.53-9.76,6.31l-.77,17.47,19.69-17.4a3.78,3.78,0,0,0,1.28-2.88l-.35-35.25S736.75,738.62,737.15,737.77Z" transform="translate(-216.63 -321.98)"/><circle class="cls-2" cx="471.01" cy="444.17" r="13.38"/><path class="cls-20" d="M701.07,764.68s7-4,.85-11.56-7.3-8-7.3-8-4.71-3.09-5.53,1.08c0,0-4.26-2.53-7.59.24s-2.19,5.94-2.19,5.94-8.17,3.42-8.23,7.82c-.16,13.72,9.07,16.92,8.76,16.47a18.38,18.38,0,0,1-.46-3.63,3.55,3.55,0,0,1-3.3-3.64v0A1.39,1.39,0,0,1,678,768l.25.11a7.91,7.91,0,0,0,2.78.7h.16s-1.87-5.91,1.16-10.11,12.46-4.56,12.46-4.56S700.65,756.61,701.07,764.68Z" transform="translate(-216.63 -321.98)"/><line class="cls-21" x1="693.14" y1="99.22" x2="828.36" y2="99.22"/><line class="cls-21" x1="693.14" y1="108.23" x2="828.36" y2="108.23"/><line class="cls-21" x1="693.14" y1="117.24" x2="828.36" y2="117.24"/><line class="cls-21" x1="693.14" y1="126.24" x2="828.36" y2="126.24"/><line class="cls-21" x1="693.14" y1="135.25" x2="828.36" y2="135.25"/><line class="cls-21" x1="693.14" y1="144.26" x2="828.36" y2="144.26"/><line class="cls-21" x1="693.14" y1="153.27" x2="828.36" y2="153.27"/><line class="cls-21" x1="693.14" y1="162.28" x2="828.36" y2="162.28"/><line class="cls-21" x1="693.14" y1="171.29" x2="828.36" y2="171.29"/><line class="cls-21" x1="693.14" y1="180.3" x2="828.36" y2="180.3"/><line class="cls-21" x1="693.14" y1="189.3" x2="828.36" y2="189.3"/><line class="cls-21" x1="693.14" y1="198.31" x2="828.36" y2="198.31"/><line class="cls-22" x1="706.3" y1="103.9" x2="755.22" y2="103.9"/><line class="cls-22" x1="706.3" y1="112.9" x2="755.22" y2="112.9"/><line class="cls-22" x1="706.3" y1="121.9" x2="755.22" y2="121.9"/><line class="cls-22" x1="706.3" y1="130.91" x2="755.22" y2="130.91"/><line class="cls-22" x1="706.3" y1="139.91" x2="755.22" y2="139.91"/><line class="cls-22" x1="706.3" y1="148.91" x2="755.22" y2="148.91"/><line class="cls-22" x1="706.3" y1="157.91" x2="755.22" y2="157.91"/><line class="cls-22" x1="706.3" y1="166.91" x2="755.22" y2="166.91"/><line class="cls-22" x1="706.3" y1="175.91" x2="755.22" y2="175.91"/><line class="cls-22" x1="706.3" y1="184.91" x2="755.22" y2="184.91"/><line class="cls-22" x1="706.3" y1="193.91" x2="755.22" y2="193.91"/><line class="cls-23" x1="766.19" y1="103.9" x2="815.21" y2="103.9"/><line class="cls-23" x1="766.19" y1="112.9" x2="815.21" y2="112.9"/><line class="cls-23" x1="766.19" y1="121.9" x2="815.21" y2="121.9"/><line class="cls-23" x1="766.19" y1="130.91" x2="815.21" y2="130.91"/><line class="cls-23" x1="766.19" y1="139.91" x2="815.21" y2="139.91"/><line class="cls-23" x1="766.19" y1="148.91" x2="815.21" y2="148.91"/><line class="cls-23" x1="766.19" y1="157.91" x2="815.21" y2="157.91"/><line class="cls-23" x1="766.19" y1="166.91" x2="815.21" y2="166.91"/><line class="cls-23" x1="766.19" y1="175.91" x2="815.21" y2="175.91"/><line class="cls-23" x1="766.19" y1="184.91" x2="815.21" y2="184.91"/><line class="cls-23" x1="766.19" y1="193.91" x2="815.21" y2="193.91"/><line class="cls-22" x1="963.12" y1="103.9" x2="1012.05" y2="103.9"/><line class="cls-22" x1="963.12" y1="112.9" x2="1012.05" y2="112.9"/><line class="cls-22" x1="963.12" y1="121.9" x2="1012.05" y2="121.9"/><line class="cls-22" x1="963.12" y1="130.91" x2="1012.05" y2="130.91"/><line class="cls-22" x1="963.12" y1="139.91" x2="1012.05" y2="139.91"/><line class="cls-22" x1="963.12" y1="148.91" x2="1012.05" y2="148.91"/><line class="cls-22" x1="963.12" y1="157.91" x2="1012.05" y2="157.91"/><line class="cls-22" x1="963.12" y1="166.91" x2="1012.05" y2="166.91"/><line class="cls-22" x1="963.12" y1="175.91" x2="1012.05" y2="175.91"/><line class="cls-22" x1="963.12" y1="184.91" x2="1012.05" y2="184.91"/><line class="cls-22" x1="963.12" y1="193.91" x2="1012.05" y2="193.91"/><line class="cls-23" x1="1023.02" y1="103.9" x2="1072.03" y2="103.9"/><line class="cls-23" x1="1023.02" y1="112.9" x2="1072.03" y2="112.9"/><line class="cls-23" x1="1023.02" y1="121.9" x2="1072.03" y2="121.9"/><line class="cls-23" x1="1023.02" y1="130.91" x2="1072.03" y2="130.91"/><line class="cls-23" x1="1023.02" y1="139.91" x2="1072.03" y2="139.91"/><line class="cls-23" x1="1023.02" y1="148.91" x2="1072.03" y2="148.91"/><line class="cls-23" x1="1023.02" y1="157.91" x2="1072.03" y2="157.91"/><line class="cls-23" x1="1023.02" y1="166.91" x2="1072.03" y2="166.91"/><line class="cls-23" x1="1023.02" y1="175.91" x2="1072.03" y2="175.91"/><line class="cls-23" x1="1023.02" y1="184.91" x2="1072.03" y2="184.91"/><line class="cls-23" x1="1023.02" y1="193.91" x2="1072.03" y2="193.91"/><line class="cls-22" x1="963.12" y1="280.19" x2="1012.05" y2="280.19"/><line class="cls-22" x1="963.12" y1="289.19" x2="1012.05" y2="289.19"/><line class="cls-22" x1="963.12" y1="298.19" x2="1012.05" y2="298.19"/><line class="cls-22" x1="963.12" y1="307.19" x2="1012.05" y2="307.19"/><line class="cls-22" x1="963.12" y1="316.19" x2="1012.05" y2="316.19"/><line class="cls-22" x1="963.12" y1="325.19" x2="1012.05" y2="325.19"/><line class="cls-22" x1="963.12" y1="334.19" x2="1012.05" y2="334.19"/><line class="cls-22" x1="963.12" y1="343.19" x2="1012.05" y2="343.19"/><line class="cls-22" x1="963.12" y1="352.19" x2="1012.05" y2="352.19"/><line class="cls-22" x1="963.12" y1="361.2" x2="1012.05" y2="361.2"/><line class="cls-22" x1="963.12" y1="370.2" x2="1012.05" y2="370.2"/><line class="cls-23" x1="1023.02" y1="280.19" x2="1072.03" y2="280.19"/><line class="cls-23" x1="1023.02" y1="289.19" x2="1072.03" y2="289.19"/><line class="cls-23" x1="1023.02" y1="298.19" x2="1072.03" y2="298.19"/><line class="cls-23" x1="1023.02" y1="307.19" x2="1072.03" y2="307.19"/><line class="cls-23" x1="1023.02" y1="316.19" x2="1072.03" y2="316.19"/><line class="cls-23" x1="1023.02" y1="325.19" x2="1072.03" y2="325.19"/><line class="cls-23" x1="1023.02" y1="334.19" x2="1072.03" y2="334.19"/><line class="cls-23" x1="1023.02" y1="343.19" x2="1072.03" y2="343.19"/><line class="cls-23" x1="1023.02" y1="352.19" x2="1072.03" y2="352.19"/><line class="cls-23" x1="1023.02" y1="361.2" x2="1072.03" y2="361.2"/><line class="cls-23" x1="1023.02" y1="370.2" x2="1072.03" y2="370.2"/><line class="cls-22" x1="1224.84" y1="103.9" x2="1273.76" y2="103.9"/><line class="cls-22" x1="1224.84" y1="112.9" x2="1273.76" y2="112.9"/><line class="cls-22" x1="1224.84" y1="121.9" x2="1273.76" y2="121.9"/><line class="cls-22" x1="1224.84" y1="130.91" x2="1273.76" y2="130.91"/><line class="cls-22" x1="1224.84" y1="139.91" x2="1273.76" y2="139.91"/><line class="cls-22" x1="1224.84" y1="148.91" x2="1273.76" y2="148.91"/><line class="cls-22" x1="1224.84" y1="157.91" x2="1273.76" y2="157.91"/><line class="cls-22" x1="1224.84" y1="166.91" x2="1273.76" y2="166.91"/><line class="cls-22" x1="1224.84" y1="175.91" x2="1273.76" y2="175.91"/><line class="cls-22" x1="1224.84" y1="184.91" x2="1273.76" y2="184.91"/><line class="cls-22" x1="1224.84" y1="193.91" x2="1273.76" y2="193.91"/><line class="cls-23" x1="1284.73" y1="103.9" x2="1333.75" y2="103.9"/><line class="cls-23" x1="1284.73" y1="112.9" x2="1333.75" y2="112.9"/><line class="cls-23" x1="1284.73" y1="121.9" x2="1333.75" y2="121.9"/><line class="cls-23" x1="1284.73" y1="130.91" x2="1333.75" y2="130.91"/><line class="cls-23" x1="1284.73" y1="139.91" x2="1333.75" y2="139.91"/><line class="cls-23" x1="1284.73" y1="148.91" x2="1333.75" y2="148.91"/><line class="cls-23" x1="1284.73" y1="157.91" x2="1333.75" y2="157.91"/><line class="cls-23" x1="1284.73" y1="166.91" x2="1333.75" y2="166.91"/><line class="cls-23" x1="1284.73" y1="175.91" x2="1333.75" y2="175.91"/><line class="cls-23" x1="1284.73" y1="184.91" x2="1333.75" y2="184.91"/><line class="cls-23" x1="1284.73" y1="193.91" x2="1333.75" y2="193.91"/><line class="cls-22" x1="1224.84" y1="280.19" x2="1273.76" y2="280.19"/><line class="cls-22" x1="1224.84" y1="289.19" x2="1273.76" y2="289.19"/><line class="cls-22" x1="1224.84" y1="298.19" x2="1273.76" y2="298.19"/><line class="cls-22" x1="1224.84" y1="307.19" x2="1273.76" y2="307.19"/><line class="cls-22" x1="1224.84" y1="316.19" x2="1273.76" y2="316.19"/><line class="cls-22" x1="1224.84" y1="325.19" x2="1273.76" y2="325.19"/><line class="cls-22" x1="1224.84" y1="334.19" x2="1273.76" y2="334.19"/><line class="cls-22" x1="1224.84" y1="343.19" x2="1273.76" y2="343.19"/><line class="cls-22" x1="1224.84" y1="352.19" x2="1273.76" y2="352.19"/><line class="cls-22" x1="1224.84" y1="361.2" x2="1273.76" y2="361.2"/><line class="cls-22" x1="1224.84" y1="370.2" x2="1273.76" y2="370.2"/><line class="cls-23" x1="1284.73" y1="280.19" x2="1333.75" y2="280.19"/><line class="cls-23" x1="1284.73" y1="289.19" x2="1333.75" y2="289.19"/><line class="cls-23" x1="1284.73" y1="298.19" x2="1333.75" y2="298.19"/><line class="cls-23" x1="1284.73" y1="307.19" x2="1333.75" y2="307.19"/><line class="cls-23" x1="1284.73" y1="316.19" x2="1333.75" y2="316.19"/><line class="cls-23" x1="1284.73" y1="325.19" x2="1333.75" y2="325.19"/><line class="cls-23" x1="1284.73" y1="334.19" x2="1333.75" y2="334.19"/><line class="cls-23" x1="1284.73" y1="343.19" x2="1333.75" y2="343.19"/><line class="cls-23" x1="1284.73" y1="352.19" x2="1333.75" y2="352.19"/><line class="cls-23" x1="1284.73" y1="361.2" x2="1333.75" y2="361.2"/><line class="cls-23" x1="1284.73" y1="370.2" x2="1333.75" y2="370.2"/><line class="cls-21" x1="949.91" y1="99.22" x2="1085.13" y2="99.22"/><line class="cls-21" x1="949.91" y1="108.23" x2="1085.13" y2="108.23"/><line class="cls-21" x1="949.91" y1="117.24" x2="1085.13" y2="117.24"/><line class="cls-21" x1="949.91" y1="126.24" x2="1085.13" y2="126.24"/><line class="cls-21" x1="949.91" y1="135.25" x2="1085.13" y2="135.25"/><line class="cls-21" x1="949.91" y1="144.26" x2="1085.13" y2="144.26"/><line class="cls-21" x1="949.91" y1="153.27" x2="1085.13" y2="153.27"/><line class="cls-21" x1="949.91" y1="162.28" x2="1085.13" y2="162.28"/><line class="cls-21" x1="949.91" y1="171.29" x2="1085.13" y2="171.29"/><line class="cls-21" x1="949.91" y1="180.3" x2="1085.13" y2="180.3"/><line class="cls-21" x1="949.91" y1="189.3" x2="1085.13" y2="189.3"/><line class="cls-21" x1="949.91" y1="198.31" x2="1085.13" y2="198.31"/><line class="cls-21" x1="949.91" y1="275.93" x2="1085.13" y2="275.93"/><line class="cls-21" x1="949.91" y1="284.94" x2="1085.13" y2="284.94"/><line class="cls-21" x1="949.91" y1="293.95" x2="1085.13" y2="293.95"/><line class="cls-21" x1="949.91" y1="302.96" x2="1085.13" y2="302.96"/><line class="cls-21" x1="949.91" y1="311.96" x2="1085.13" y2="311.96"/><line class="cls-21" x1="949.91" y1="320.97" x2="1085.13" y2="320.97"/><line class="cls-21" x1="949.91" y1="329.98" x2="1085.13" y2="329.98"/><line class="cls-21" x1="949.91" y1="338.99" x2="1085.13" y2="338.99"/><line class="cls-21" x1="949.91" y1="348" x2="1085.13" y2="348"/><line class="cls-21" x1="949.91" y1="357.01" x2="1085.13" y2="357.01"/><line class="cls-21" x1="949.91" y1="366.02" x2="1085.13" y2="366.02"/><line class="cls-21" x1="949.91" y1="375.03" x2="1085.13" y2="375.03"/><polygon class="cls-8" points="1347.92 384.23 1210.66 384.23 1210.66 276.01 1210.66 266.15 1347.92 266.15 1347.92 384.23"/><polygon class="cls-8" points="1180.45 384.72 1210.66 384.23 1210.42 266.15 1179.71 265.94 1180.45 384.72"/><polygon class="cls-8" points="1378.13 384.72 1347.43 384.23 1347.92 266.15 1378.87 265.94 1378.13 384.72"/><polyline class="cls-8" points="1197.25 384.56 1197.25 397.41 1360.94 397.41 1360.94 384.56"/><polyline class="cls-8" points="1197.25 266.75 1197.25 253.9 1360.94 253.9 1360.94 266.26"/><polygon class="cls-8" points="1347.92 207.44 1210.66 207.44 1210.66 99.22 1210.66 89.36 1347.92 89.36 1347.92 207.44"/><polygon class="cls-8" points="1180.45 207.93 1210.66 207.44 1210.42 99.22 1210.42 89.36 1179.71 89.14 1180.45 207.93"/><polygon class="cls-8" points="1378.13 207.93 1347.43 207.44 1347.92 99.22 1347.92 89.36 1378.87 89.14 1378.13 207.93"/><polyline class="cls-8" points="1197.25 207.76 1197.25 220.62 1360.94 220.62 1360.94 207.76"/><polyline class="cls-8" points="1197.25 89.96 1197.25 77.1 1360.94 77.1 1360.94 89.47"/><line class="cls-21" x1="1211.62" y1="99.22" x2="1346.84" y2="99.22"/><line class="cls-21" x1="1211.62" y1="108.23" x2="1346.84" y2="108.23"/><line class="cls-21" x1="1211.62" y1="117.24" x2="1346.84" y2="117.24"/><line class="cls-21" x1="1211.62" y1="126.24" x2="1346.84" y2="126.24"/><line class="cls-21" x1="1211.62" y1="135.25" x2="1346.84" y2="135.25"/><line class="cls-21" x1="1211.62" y1="144.26" x2="1346.84" y2="144.26"/><line class="cls-21" x1="1211.62" y1="153.27" x2="1346.84" y2="153.27"/><line class="cls-21" x1="1211.62" y1="162.28" x2="1346.84" y2="162.28"/><line class="cls-21" x1="1211.62" y1="171.29" x2="1346.84" y2="171.29"/><line class="cls-21" x1="1211.62" y1="180.3" x2="1346.84" y2="180.3"/><line class="cls-21" x1="1211.62" y1="189.3" x2="1346.84" y2="189.3"/><line class="cls-21" x1="1211.62" y1="198.31" x2="1346.84" y2="198.31"/><line class="cls-21" x1="1211.62" y1="275.93" x2="1346.84" y2="275.93"/><line class="cls-21" x1="1211.62" y1="284.94" x2="1346.84" y2="284.94"/><line class="cls-21" x1="1211.62" y1="293.95" x2="1346.84" y2="293.95"/><line class="cls-21" x1="1211.62" y1="302.96" x2="1346.84" y2="302.96"/><line class="cls-21" x1="1211.62" y1="311.96" x2="1346.84" y2="311.96"/><line class="cls-21" x1="1211.62" y1="320.97" x2="1346.84" y2="320.97"/><line class="cls-21" x1="1211.62" y1="329.98" x2="1346.84" y2="329.98"/><line class="cls-21" x1="1211.62" y1="338.99" x2="1346.84" y2="338.99"/><line class="cls-21" x1="1211.62" y1="348" x2="1346.84" y2="348"/><line class="cls-21" x1="1211.62" y1="357.01" x2="1346.84" y2="357.01"/><line class="cls-21" x1="1211.62" y1="366.02" x2="1346.84" y2="366.02"/><line class="cls-21" x1="1211.62" y1="375.03" x2="1346.84" y2="375.03"/><path class="cls-24" d="M607.33,937.36l-10.18,17.31s-6.72-1.22-10.38-5.37L598,922.94" transform="translate(-216.63 -321.98)"/><path class="cls-3" d="M616.14,953c0,.21,2.85,5.9,2.85,5.9l.6,3.44a2.42,2.42,0,0,0,3.4,1.8l.07,0,13.31-6.66a1.78,1.78,0,0,0,1-1.2,1.19,1.19,0,0,0-.29-1.13c-1.22-1.3-13.5,0-13.5,0l-.86-3.46" transform="translate(-216.63 -321.98)"/><path class="cls-25" d="M610.37,907.35c.21.56,2.38,6.65,2.82,8,3.17,9.33,11.32,34.71,11.32,34.71A16.8,16.8,0,0,1,613,952.84a121.57,121.57,0,0,0-6.9-15.48c-2.86-5.42-8.2-11.54-12.77-17.1-11.84-14.4-4.15-22.83-4.15-22.83,4.51-1.22,23.7-.36,23.7-.36s5.18,10.25.46,18.37" transform="translate(-216.63 -321.98)"/><path class="cls-3" d="M628.32,865.81" transform="translate(-216.63 -321.98)"/><path class="cls-3" d="M634.53,866.77s-9.41,14.43-10.63,16.39-3.93,4.43-8.92,3a.53.53,0,0,0-.68.43l.79,13-27.5-.49,1.51-8.84c0-.13.71-4.35.61-4.27h0a23.26,23.26,0,0,0-6.64,7,12.87,12.87,0,0,0-.6,1.44l-2.62,7.71s-6.47-1.34-6.35-1.71,1.46-11.83,2.2-14S585.22,874,587.17,873s11-2.44,11-2.44v-3.71l8.79-.49.36,4.44a69.38,69.38,0,0,1,6.89,2,5.38,5.38,0,0,0,4.85-.57l11.92-8" transform="translate(-216.63 -321.98)"/><path class="cls-2" d="M657.42,797c-.38.28-10,14.32-14.06,20.29a16.77,16.77,0,0,0-2.5,5.77L634,853.7s-1.65,6.84-2.32,8.24-1.28,2.93-1.28,2.93a1,1,0,0,0,.85,1.16c1,.12,3.36-4.88,3.36-4.88-.8,8.11-4.33,9.21-4.15,10.8s1.47,1.16,1.47,1.16.48.43,4.33-5.31a17.33,17.33,0,0,0,2.44-11.5A4.9,4.9,0,0,1,639,854l11.11-29.36a5.51,5.51,0,0,1,1.16-1.85l18.27-19.33" transform="translate(-216.63 -321.98)"/><path class="cls-20" d="M716.33,778l11.06,12.85L707.7,808.63v39.22s-36.45-2.12-45.4.65L661,815.79l-13-9.44s13.18-19.69,18.72-21.15a125.35,125.35,0,0,1,14-2.44,8.47,8.47,0,0,0,6.83,4.72c5.05.49,6.84-5.53,6.84-5.53Z" transform="translate(-216.63 -321.98)"/><path class="cls-12" d="M1004.92,598.08h-.21a1.61,1.61,0,0,1-1.26-.93A15.84,15.84,0,0,1,1016,574.89a.89.89,0,0,1-.08-.17,8.18,8.18,0,0,1,3.81-10.92,8.06,8.06,0,0,1,3.54-.82,8.23,8.23,0,0,1,7.38,4.63,8.18,8.18,0,0,1-3.07,10.52,15.73,15.73,0,0,1,6.1,12,1.6,1.6,0,0,1-1.33,1.63,28.22,28.22,0,0,1-4.5.35h0c-7.09,0-14-2.4-17.33-3.76a21.82,21.82,0,0,1-4.38,9.16A1.59,1.59,0,0,1,1004.92,598.08Z" transform="translate(-216.63 -321.98)"/><path class="cls-13" d="M1023.29,563.72a7.44,7.44,0,0,1,3.25,14.15c-.11.06-.24.1-.35.15a15,15,0,0,1,6.78,12.11.87.87,0,0,1-.72.88,26.86,26.86,0,0,1-4.38.35c-7.66,0-15.13-2.87-17.88-4.05a21.22,21.22,0,0,1-4.4,9.72.9.9,0,0,1-.67.32h-.12a.87.87,0,0,1-.68-.51,15.09,15.09,0,0,1,13.16-21.3,7.06,7.06,0,0,1-.68-1.13,7.45,7.45,0,0,1,6.69-10.68m0-1.47a8.8,8.8,0,0,0-3.86.89,8.92,8.92,0,0,0-4.47,11.17,16.56,16.56,0,0,0-12.17,23.13,2.29,2.29,0,0,0,1.82,1.35,1.56,1.56,0,0,0,.31,0,2.32,2.32,0,0,0,1.8-.85,22.66,22.66,0,0,0,4.34-8.63,48.81,48.81,0,0,0,16.81,3.5,28.54,28.54,0,0,0,4.62-.37,2.34,2.34,0,0,0,2-2.38,16.44,16.44,0,0,0-5.63-11.9,8.92,8.92,0,0,0,2.52-10.89,9,9,0,0,0-8-5Z" transform="translate(-216.63 -321.98)"/><path class="cls-26" d="M598.15,870.59s.46,3.12,4.9,3,4.25-2.77,4.25-2.77" transform="translate(-216.63 -321.98)"/><path class="cls-3" d="M608.68,879.15a3.72,3.72,0,0,0-5.07.27L603,880a.51.51,0,0,1-.72,0l-.62-.62a3.71,3.71,0,0,0-5.06-.27,3.57,3.57,0,0,0-.14,5.19l3.11,3.11,2.25,2.25a1.15,1.15,0,0,0,1.64,0l2.25-2.25,3.12-3.11A3.58,3.58,0,0,0,608.68,879.15Z" transform="translate(-216.63 -321.98)"/><path class="cls-12" d="M608.84,868a.52.52,0,0,1-.32-.11.55.55,0,0,1-.22-.37l-.2-1.91V847.52l.82-4.5a.55.55,0,0,1,.3-.38.46.46,0,0,1,.23-.06.54.54,0,0,1,.25.06c.17.09,4.23,2.26,4.38,11.15,0,.05,1,9.05,2.41,12.12a.55.55,0,0,1,0,.47.54.54,0,0,1-.38.28L608.94,868Z" transform="translate(-216.63 -321.98)"/><path class="cls-13" d="M609.44,843.12s3.95,2,4.09,10.68c0,0,1,9.15,2.46,12.33l-7.15,1.37-.21-1.91V847.52l.81-4.4m0-1.07a1,1,0,0,0-.47.11,1,1,0,0,0-.58.77l-.82,4.39a1.27,1.27,0,0,0,0,.2V865.7l.21,1.92a1.08,1.08,0,0,0,.43.75,1.11,1.11,0,0,0,.64.21l.2,0,7.15-1.37a1.07,1.07,0,0,0,.75-.56,1.1,1.1,0,0,0,0-.94c-1.31-2.88-2.28-11.24-2.36-12-.17-9.17-4.5-11.47-4.68-11.57a1,1,0,0,0-.49-.11Z" transform="translate(-216.63 -321.98)"/><circle class="cls-2" cx="384.91" cy="533.15" r="11.63"/><path class="cls-27" d="M600.59,857.63s-3.18.87-2.08,3.74,3.12,2.21,3.12,2.21l1,5.48-13.42,1.4s-7.47-12.78-.64-22.77,20.87-5.41,20.87-5.41S608.34,855.34,600.59,857.63Z" transform="translate(-216.63 -321.98)"/><path class="cls-26" d="M729.53,726.86c-1.61-4.84-1.61-4.93-1.61-5.12a1.1,1.1,0,0,1,1.1-1.1,1.09,1.09,0,0,1,1.07.87c.11.38,1.56,5.37,2.43,8-.9-3.21-1.75-6.61-1.84-7a1,1,0,0,1,.81-1.29,1,1,0,0,1,1.18.84c.09.35,1.44,5.42,2.16,8-.6-2.83-1.24-5.4-1.24-5.49a.92.92,0,0,1,1.83-.12c.06.34,1.16,4.22,2,7.35a10.58,10.58,0,0,1,0,5.33,4.45,4.45,0,0,1-.23.66c-.4.85,0,3.29,0,3.29l.35,35.25a3.78,3.78,0,0,1-1.28,2.88l-19.69,17.4" transform="translate(-216.63 -321.98)"/><path class="cls-26" d="M731,730.61c-1.13-3-2.4-6.36-2.56-6.85a1.15,1.15,0,0,0-2.27.17c0,.34,0,.39,3.49,9.66" transform="translate(-216.63 -321.98)"/><path class="cls-26" d="M714.37,781.46c.4,0,9.23-6.23,12.65-8.65a3.68,3.68,0,0,0,1.53-2.59l3.36-29.73c-2.4-.28-3.87-3.45-3.87-3.45l-1.71-5.86a2.78,2.78,0,0,1,2.12.32c.94.65,1.91,4.31,2,4.52" transform="translate(-216.63 -321.98)"/><path class="cls-26" d="M737.64,733.05s-.86-2.93-4.82-3.33" transform="translate(-216.63 -321.98)"/></svg>