<?xml version="1.0" encoding="utf-8"?>
<!-- Generator: Adobe Illustrator 25.0.0, SVG Export Plug-In . SVG Version: 6.00 Build 0)  -->
<svg version="1.1" id="Layer_1" xmlns="http://www.w3.org/2000/svg" xmlns:xlink="http://www.w3.org/1999/xlink" x="0px" y="0px"
	 viewBox="0 0 100.1 100.1" style="enable-background:new 0 0 100.1 100.1;" xml:space="preserve">
<style type="text/css">
	.st0{fill:#FFFFFF;}
</style>
<g>
	<path class="st0" d="M68.1,22.6c-0.3-0.5-0.8-0.8-1.4-0.8H45.3c-0.7,0-1.3,0.5-1.5,1.1l-9.4,29.8c-0.2,0.5-0.1,1,0.2,1.4
		c0.3,0.4,0.8,0.7,1.3,0.7h6.4l-6,25.8c-0.2,0.7,0.2,1.5,0.8,1.8c0.2,0.1,0.5,0.2,0.7,0.2c0.5,0,0.9-0.2,1.2-0.6l27.3-32.3
		c0.4-0.5,0.5-1.2,0.2-1.7s-0.8-0.9-1.5-0.9H56l12.2-23C68.4,23.7,68.4,23.1,68.1,22.6z"/>
	<path class="st0" d="M70.8,5.7C48.6-4.8,22.4,2.9,9.2,23l-0.8-3.5c-0.3-1.2-1.5-2-2.7-1.7c-1.2,0.3-2,1.5-1.7,2.7L5.9,29
		c0.2,1,1.2,1.8,2.2,1.8c0.2,0,0.3,0,0.5,0l8.4-1.9c1.2-0.3,2-1.5,1.7-2.7c-0.3-1.2-1.5-2-2.7-1.7l-2.9,0.6
		C25.3,7.1,48.8,0.3,68.9,9.7c19.5,9.1,29.7,30.9,24.2,51.7c-0.3,1.2,0.4,2.4,1.6,2.7c0.2,0,0.4,0.1,0.6,0.1c1,0,1.9-0.7,2.2-1.7
		C103.5,39.6,92.3,15.7,70.8,5.7z"/>
	<path class="st0" d="M94.7,69.2c-0.3-1.1-1.4-1.7-2.5-1.5c-0.2,0-0.4,0.1-0.6,0.1l-8,2.4c-1.2,0.4-1.8,1.6-1.5,2.8
		c0.3,1.2,1.6,1.8,2.8,1.5l3-0.9c-11.7,18.9-36.1,26.5-56.7,16.8c-19.7-9.2-30-31.9-23.9-52.8c0.3-1.2-0.3-2.4-1.5-2.8
		c-1.2-0.3-2.4,0.3-2.8,1.5c-6.8,23.3,4.2,47.8,26.3,58.1c6.7,3.1,13.8,4.6,20.7,4.6c16.7,0,32.9-8.6,42-23.5l1,3.2
		c0.3,1,1.2,1.6,2.1,1.6c0.2,0,0.4,0,0.6-0.1c1.2-0.4,1.8-1.6,1.5-2.8L94.7,69.2z"/>
</g>
</svg>
