<?xml version="1.0" encoding="utf-8"?>
<!-- Generator: Adobe Illustrator 24.1.2, SVG Export Plug-In . SVG Version: 6.00 Build 0)  -->
<svg version="1.1" id="Layer_1" xmlns="http://www.w3.org/2000/svg" xmlns:xlink="http://www.w3.org/1999/xlink" x="0px" y="0px"
	 viewBox="0 0 1920 1080" style="enable-background:new 0 0 1920 1080;" xml:space="preserve">
<style type="text/css">
	.st0{fill:#F45E39;}
</style>
<g>
	<path class="st0" d="M1022.44,560.47l-43.07-0.21v-20.35c0-20.42-16.61-37.03-37.03-37.03c-1.22,0-2.43,0.06-3.62,0.18
		c-0.25-0.11-0.53-0.18-0.82-0.18h-5.32c-20.42,0-37.03,16.61-37.03,37.03s16.61,37.03,37.03,37.03h9.75h25.27h9.75c1.1,0,2-0.9,2-2
		v-2.65l41.06,0.2v2.61c0,1.1,0.9,2,2,2s2-0.9,2-2v-4.6v-3.82v-4.21C1024.43,561.37,1023.54,560.48,1022.44,560.47z M942.35,518.64
		c11.73,0,21.28,9.54,21.28,21.28c0,11.73-9.55,21.28-21.28,21.28s-21.28-9.54-21.28-21.28
		C921.07,528.18,930.62,518.64,942.35,518.64z M899.57,539.92c0-14.92,9.95-27.56,23.56-31.64c-10.67,6.51-17.81,18.25-17.81,31.64
		s7.14,25.13,17.81,31.64C909.52,567.48,899.57,554.84,899.57,539.92z M979.43,568.3v-4.04l41,0.2v2.22v1.81L979.43,568.3z"/>
	<path class="st0" d="M936.39,554.83c1.1,0,2-0.9,2-2v-10.47h10.3c1.1,0,2-0.9,2-2s-0.9-2-2-2h-10.3v-8.14h11.97c1.1,0,2-0.9,2-2
		s-0.9-2-2-2h-13.97c-1.1,0-2,0.9-2,2v24.61C934.39,553.94,935.29,554.83,936.39,554.83z"/>
</g>
</svg>
