<?xml version="1.0" encoding="utf-8"?>
<!-- Generator: Adobe Illustrator 24.1.2, SVG Export Plug-In . SVG Version: 6.00 Build 0)  -->
<svg version="1.1" id="Layer_1" xmlns="http://www.w3.org/2000/svg" xmlns:xlink="http://www.w3.org/1999/xlink" x="0px" y="0px"
	 viewBox="0 0 1920 1080" style="enable-background:new 0 0 1920 1080;" xml:space="preserve">
<style type="text/css">
	.st0{fill:#FAFAC6;}
</style>
<path class="st0" d="M1641.19,477.85c-15.72-13.87-37.64-20.89-65.13-20.89c-17.3,0-33.42,3.28-47.9,9.74
	c-14.55,6.5-26.25,15.48-34.78,26.67c-8.62,11.32-12.99,23.27-12.99,35.51v2.84h45.83v-2.84c0-9.35,4.36-17.15,13.32-23.85
	c9.09-6.79,20.58-10.23,34.14-10.23c15.41,0,27.16,3.9,34.92,11.59c7.75,7.69,11.68,18.23,11.68,31.34v15.51h-36.02
	c-33.99,0-60.81,6.97-79.71,20.73c-19.18,13.96-28.91,33.8-28.91,58.97c0,20.76,7.77,38.15,23.09,51.67
	c7.95,7.02,17.15,12.18,27.46,15.56c9.43,3.09,19.8,4.69,31.08,4.69c10.44,0,20.35-1.58,29.69-4.69
	c12.65-4.21,24.27-11.23,34.74-21.06v21.43h44.19V535.5C1665.3,511.19,1656.99,491.79,1641.19,477.85z M1620.28,631.62
	c-4.79,9.54-12.51,17.43-22.97,23.46c-10.74,6.19-22.24,9.33-34.2,9.33c-12.35,0-22.55-3.33-30.33-9.91
	c-7.75-6.54-11.51-15.43-11.51-27.19c0-27,23.08-40.12,70.56-40.12h28.46V631.62z M913.89,380.53h200.4v39.57H961.02v102.04h136.78
	v39.57H961.02v138.81h-47.13V380.53z M1160.63,461.27h45.62v239.26h-45.62V461.27z M1378.23,461.27h45.62v239.26h-45.62V461.27z
	 M1312.34,380.75h2.84v319.78h-45.62V380.75h2.84h2.84h34.26H1312.34z M1201.47,382.73c4.03,4.46,6.04,9.93,6.04,16.41
	s-2.02,11.87-6.04,16.19c-4.03,4.32-9.93,6.48-17.7,6.48c-7.77,0-13.64-2.16-17.59-6.48c-3.96-4.32-5.94-9.71-5.94-16.19
	s1.98-11.94,5.94-16.41c3.96-4.46,9.82-6.69,17.59-6.69C1191.54,376.04,1197.44,378.27,1201.47,382.73z M1419.06,382.73
	c4.03,4.46,6.04,9.93,6.04,16.41s-2.02,11.87-6.04,16.19c-4.03,4.32-9.93,6.48-17.7,6.48c-7.77,0-13.64-2.16-17.59-6.48
	c-3.96-4.32-5.94-9.71-5.94-16.19s1.98-11.94,5.94-16.41c3.96-4.46,9.82-6.69,17.59-6.69
	C1409.13,376.04,1415.03,378.27,1419.06,382.73z M422.76,306.38c29.14-10.63,60.77-16.48,93.83-16.5v0c0.03,0,0.07,0,0.1,0
	c0.03,0,0.07,0,0.1,0v0c33.06,0.02,64.69,5.87,93.83,16.5c-31.28-0.8-62.6-1.2-93.94-1.2C485.36,305.18,454.05,305.58,422.76,306.38
	z M376.14,511.08c-40.62,2.42-81.12,5.89-121.47,10.39c0.41-5.3,1-10.55,1.75-15.75c46.59-5.13,93.38-8.89,140.31-11.25
	c39.87-2.01,79.84-3.02,119.87-3.02v0c0.03,0,0.07,0,0.1,0c0.03,0,0.07,0,0.1,0v0c40.03,0,80,1.01,119.87,3.02
	c46.93,2.37,93.72,6.12,140.31,11.25c0.75,5.2,1.34,10.45,1.75,15.75c-40.35-4.5-80.85-7.98-121.47-10.39
	c5.61,5.16,10.93,10.61,15.89,16.36c-51.98-3.45-104.16-5.18-156.45-5.19c-52.29,0-104.47,1.74-156.45,5.19
	C365.21,521.69,370.53,516.25,376.14,511.08z M450.94,467.38c-63.26,1.58-126.33,5.46-189.09,11.58c1.42-5.4,3.04-10.74,4.82-15.99
	c82.87-7.88,166.27-11.86,249.92-11.86v0c0.03,0,0.07,0,0.1,0c0.03,0,0.07,0,0.1,0v0c83.65,0.01,167.05,3.99,249.92,11.86
	c1.79,5.26,3.4,10.59,4.82,15.99c-62.76-6.12-125.83-10-189.09-11.58c13.2,4.32,25.79,9.88,37.59,16.58
	c-34.4-1.35-68.85-2.05-103.35-2.05c-34.5,0-68.96,0.7-103.35,2.05C425.15,477.26,437.74,471.7,450.94,467.38z M592.93,779.39
	l0.01,0c-0.06,0.02-0.12,0.03-0.18,0.05c-3.27,0.93-6.55,1.82-9.87,2.64c-0.12,0.03-0.25,0.06-0.37,0.09
	c-3.07,0.75-6.16,1.45-9.28,2.1c-0.52,0.11-1.04,0.22-1.56,0.32c-2.88,0.58-5.77,1.12-8.68,1.61c-0.5,0.08-0.99,0.18-1.49,0.26
	c-3.37,0.55-6.75,1.06-10.16,1.49c-11.31,1.42-22.83,2.16-34.54,2.17v0c-0.03,0-0.07,0-0.1,0c-0.03,0-0.07,0-0.1,0v0
	c-11.71-0.01-23.24-0.75-34.54-2.17c-3.41-0.43-6.79-0.94-10.16-1.49c-0.5-0.08-1-0.18-1.49-0.26c-2.91-0.49-5.81-1.03-8.68-1.61
	c-0.52-0.11-1.04-0.21-1.56-0.32c-3.11-0.65-6.21-1.34-9.28-2.1c-0.12-0.03-0.25-0.06-0.37-0.09c-3.32-0.82-6.6-1.71-9.87-2.64
	c-0.06-0.02-0.12-0.03-0.18-0.05l0.01,0c25.13-3.62,50.56-5.53,76.12-5.54v0c0.03,0,0.07,0,0.1,0c0.03,0,0.07,0,0.1,0v0
	C542.36,773.87,567.8,775.77,592.93,779.39z M718,668.34c7.33,1.13,14.64,2.33,21.94,3.58c-3.12,4.77-6.4,9.44-9.84,13.99
	c-4.78-0.79-9.57-1.55-14.36-2.29c-0.94,5.01-2.05,9.96-3.39,14.83c-64.53-9.82-129.93-14.82-195.65-14.83
	c-65.72,0.01-131.12,5.01-195.65,14.83c-1.34-4.87-2.45-9.82-3.39-14.83c-4.79,0.74-9.58,1.49-14.36,2.29
	c-3.44-4.55-6.72-9.22-9.84-13.99c7.3-1.26,14.62-2.45,21.94-3.58c66.34-10.26,133.6-15.51,201.19-15.52v0c0.03,0,0.07,0,0.1,0
	c0.03,0,0.07,0,0.1,0v0C584.4,652.83,651.66,658.08,718,668.34z M717.34,625.35c14.68,1.88,29.32,3.97,43.92,6.26
	c-2.05,4.95-4.27,9.81-6.63,14.59c-11.93-1.84-23.89-3.54-35.88-5.1c0.12,2.78,0.22,5.56,0.22,8.37c0,2.35-0.1,4.67-0.19,7
	c-66.8-8.72-134.3-13.18-202.09-13.18c-67.79,0-135.29,4.46-202.09,13.18c-0.09-2.33-0.19-4.65-0.19-7c0-2.81,0.1-5.59,0.22-8.37
	c-11.98,1.56-23.94,3.26-35.88,5.1c-2.36-4.79-4.59-9.65-6.63-14.59c14.6-2.29,29.25-4.38,43.92-6.26
	c66.3-8.5,133.28-12.86,200.54-12.87v0c0.03,0,0.07,0,0.1,0c0.03,0,0.07,0,0.1,0v0C584.06,612.49,651.04,616.85,717.34,625.35z
	 M706.17,581.97c22.72,2.35,45.38,5.15,67.96,8.35c-1.09,5.08-2.36,10.11-3.77,15.07c-19.52-2.74-39.09-5.17-58.72-7.28
	c1.5,5.18,2.78,10.44,3.83,15.78c-65.83-7.23-132.18-10.94-198.77-10.95c-66.59,0-132.94,3.72-198.77,10.95
	c1.05-5.34,2.33-10.6,3.83-15.78c-19.62,2.11-39.2,4.54-58.72,7.28c-1.41-4.97-2.68-9.99-3.77-15.07
	c22.59-3.19,45.24-5.99,67.96-8.35c62.75-6.5,125.95-9.83,189.36-9.84v0c0.03,0,0.07,0,0.1,0c0.03,0,0.07,0,0.1,0v0
	C580.22,572.14,643.42,575.47,706.17,581.97z M779.3,548.21c-0.18,5.19-0.52,10.34-1.02,15.45c-28.44-3.57-56.96-6.63-85.57-9.04
	c3.12,5.24,5.99,10.62,8.59,16.15c-61.24-5.4-122.83-8.17-184.6-8.18c-61.77,0-123.35,2.77-184.6,8.18
	c2.6-5.53,5.47-10.91,8.59-16.15c-28.61,2.4-57.13,5.47-85.57,9.04c-0.5-5.11-0.85-10.26-1.02-15.45
	c32.39-4.06,64.89-7.36,97.5-9.91c54.78-4.28,109.82-6.5,165-6.51v0c0.03,0,0.07,0,0.1,0c0.03,0,0.07,0,0.1,0v0
	c55.18,0.01,110.21,2.23,165,6.51C714.4,540.85,746.91,544.16,779.3,548.21z M516.7,426.21c-79.96,0-159.72,3.32-239.07,9.91
	c2.65-5.51,5.49-10.9,8.54-16.19c76.5-6.09,153.36-9.17,230.43-9.17v0c0.03,0,0.07,0,0.1,0c0.03,0,0.07,0,0.1,0v0
	c77.06,0.01,153.93,3.09,230.43,9.17c3.04,5.28,5.89,10.68,8.54,16.19C676.42,429.53,596.66,426.21,516.7,426.21z M516.7,385.87
	c-71.05,0-141.96,2.4-212.59,7.17c4.3-5.63,8.84-11.09,13.61-16.35c66.1-4.16,132.42-6.27,198.88-6.27v0c0.03,0,0.07,0,0.1,0
	c0.03,0,0.07,0,0.1,0v0c66.46,0,132.78,2.12,198.88,6.27c4.77,5.26,9.3,10.72,13.61,16.35C658.66,388.27,587.75,385.87,516.7,385.87
	z M516.7,345.52c-56.96,0-113.83,1.43-170.56,4.26c7.23-5.88,14.81-11.4,22.69-16.52c49.17-2.12,98.44-3.19,147.77-3.2v0
	c0.03,0,0.07,0,0.1,0c0.03,0,0.07,0,0.1,0v0c49.33,0,98.6,1.08,147.77,3.2c7.88,5.12,15.45,10.64,22.69,16.52
	C630.53,346.95,573.66,345.52,516.7,345.52z M663.79,747.26l0.17,0.03c-5.46,3.51-11.06,6.83-16.8,9.95
	c-9.42,5.12-19.21,9.7-29.31,13.7l-0.11-0.01c-33.4-4.37-67.14-6.6-101.03-6.61c-33.89,0-67.64,2.24-101.03,6.61l-0.11,0.01
	c-10.1-4-19.89-8.58-29.31-13.7c-5.74-3.12-11.34-6.44-16.8-9.95l0.17-0.03c48.27-9.08,97.48-13.73,146.98-13.75v0
	c0.03,0,0.07,0,0.1,0c0.03,0,0.07,0,0.1,0v0C566.31,733.53,615.51,738.17,663.79,747.26z M708.46,710.73
	c0.03,0.01,0.22,0.05,0.4,0.1c-0.22,0.27-0.56,0.63-0.72,0.78c-3.45,3.47-7,6.84-10.65,10.12c-5.88,5.28-12,10.3-18.36,15.05
	l-0.22-0.03c-53.47-8.45-107.7-12.77-162.21-12.78c-54.51,0.01-108.74,4.33-162.21,12.78l-0.22,0.03
	c-6.37-4.75-12.49-9.78-18.36-15.05c-3.65-3.28-7.2-6.65-10.65-10.12c-0.15-0.15-0.49-0.51-0.72-0.78c0.18-0.04,0.37-0.09,0.4-0.1
	c62.97-11.62,127.12-17.55,191.65-17.56v0c0.03,0,0.07,0,0.1,0c0.03,0,0.07,0,0.1,0v0C581.33,693.18,645.48,699.11,708.46,710.73z"
	/>
</svg>
