<?xml version="1.0" encoding="utf-8"?>
<!-- Generator: Adobe Illustrator 24.1.2, SVG Export Plug-In . SVG Version: 6.00 Build 0)  -->
<svg version="1.1" id="Layer_1" xmlns="http://www.w3.org/2000/svg" xmlns:xlink="http://www.w3.org/1999/xlink" x="0px" y="0px"
	 viewBox="0 0 1920 1080" style="enable-background:new 0 0 1920 1080;" xml:space="preserve">
<style type="text/css">
	.st0{fill:#FAFAC6;}
</style>
<g>
	<path class="st0" d="M960,516.2c-13.12,0-23.8,10.68-23.8,23.8s10.68,23.8,23.8,23.8s23.8-10.68,23.8-23.8S973.12,516.2,960,516.2z
		 M960,559.8c-10.92,0-19.8-8.88-19.8-19.8s8.88-19.8,19.8-19.8s19.8,8.88,19.8,19.8S970.92,559.8,960,559.8z"/>
	<path class="st0" d="M959.79,509.11C959.79,509.11,959.79,509.11,959.79,509.11c1.11,0,2-0.9,2-2l-0.02-12.64c0-1.1-0.9-2-2-2
		c0,0,0,0,0,0c-1.1,0-2,0.9-2,2l0.02,12.64C957.79,508.22,958.68,509.11,959.79,509.11z"/>
	<path class="st0" d="M935.18,518.31c0.39,0.39,0.9,0.58,1.41,0.58c0.51,0,1.03-0.2,1.42-0.59c0.78-0.78,0.78-2.05,0-2.83
		l-8.95-8.92c-0.78-0.78-2.05-0.78-2.83,0c-0.78,0.78-0.78,2.05,0,2.83L935.18,518.31z"/>
	<path class="st0" d="M929.11,540.21c0-1.1-0.9-2-2-2c0,0,0,0,0,0l-12.64,0.02c-1.1,0-2,0.9-2,2c0,1.1,0.9,2,2,2c0,0,0,0,0,0
		l12.64-0.02C928.22,542.21,929.11,541.32,929.11,540.21z"/>
	<path class="st0" d="M935.48,561.99l-8.92,8.95c-0.78,0.78-0.78,2.05,0,2.83c0.39,0.39,0.9,0.58,1.41,0.58
		c0.51,0,1.03-0.2,1.42-0.59l8.92-8.95c0.78-0.78,0.78-2.05,0-2.83C937.52,561.21,936.26,561.21,935.48,561.99z"/>
	<path class="st0" d="M960.21,570.89C960.21,570.89,960.21,570.89,960.21,570.89c-1.11,0-2,0.9-2,2l0.02,12.64c0,1.1,0.9,2,2,2
		c0,0,0,0,0,0c1.1,0,2-0.9,2-2l-0.02-12.64C962.21,571.78,961.32,570.89,960.21,570.89z"/>
	<path class="st0" d="M984.82,561.69c-0.78-0.78-2.05-0.78-2.83,0c-0.78,0.78-0.78,2.05,0,2.83l8.95,8.92
		c0.39,0.39,0.9,0.58,1.41,0.58c0.51,0,1.03-0.2,1.42-0.59c0.78-0.78,0.78-2.05,0-2.83L984.82,561.69z"/>
	<path class="st0" d="M1005.53,537.77C1005.52,537.77,1005.52,537.77,1005.53,537.77l-12.64,0.02c-1.1,0-2,0.9-2,2c0,1.1,0.9,2,2,2
		c0,0,0,0,0,0l12.64-0.02c1.1,0,2-0.9,2-2C1007.52,538.66,1006.63,537.77,1005.53,537.77z"/>
	<path class="st0" d="M983.11,518.59c0.51,0,1.03-0.2,1.42-0.59l8.92-8.95c0.78-0.78,0.78-2.05,0-2.83c-0.78-0.78-2.05-0.78-2.83,0
		l-8.92,8.95c-0.78,0.78-0.78,2.05,0,2.83C982.08,518.4,982.59,518.59,983.11,518.59z"/>
	<path class="st0" d="M966.96,528.17h-11.72c-1.1,0-2,0.9-2,2v20.64c0,1.1,0.9,2,2,2s2-0.9,2-2v-8.46h8.32c1.1,0,2-0.9,2-2
		s-0.9-2-2-2h-8.32v-6.18h9.72c1.1,0,2-0.9,2-2S968.07,528.17,966.96,528.17z"/>
</g>
</svg>
