<?xml version="1.0" encoding="utf-8"?>
<!-- Generator: Adobe Illustrator 25.0.0, SVG Export Plug-In . SVG Version: 6.00 Build 0)  -->
<svg version="1.1" id="Layer_1" xmlns="http://www.w3.org/2000/svg" xmlns:xlink="http://www.w3.org/1999/xlink" x="0px" y="0px"
	 viewBox="0 0 1920 646.2" style="enable-background:new 0 0 1920 646.2;" xml:space="preserve">
<style type="text/css">
	.st0{clip-path:url(#SVGID_2_);}
	.st1{fill:none;stroke:#FFFFFF;stroke-width:2.382;stroke-miterlimit:10;}
	.st2{clip-path:url(#SVGID_4_);fill:#F45E39;stroke:#FFCC33;stroke-width:2.264;stroke-miterlimit:10;}
	.st3{clip-path:url(#SVGID_6_);fill:#F45E39;stroke:#FFCC33;stroke-width:2.264;stroke-miterlimit:10;}
	.st4{clip-path:url(#SVGID_8_);fill:#F45E39;stroke:#FFCC33;stroke-width:2.264;stroke-miterlimit:10;}
	.st5{clip-path:url(#SVGID_10_);fill:#F45E39;stroke:#FFCC33;stroke-width:2.264;stroke-miterlimit:10;}
	.st6{clip-path:url(#SVGID_12_);fill:#F45E39;stroke:#FFCC33;stroke-width:2.264;stroke-miterlimit:10;}
	.st7{clip-path:url(#SVGID_14_);fill:#F45E39;stroke:#FFCC33;stroke-width:2.264;stroke-miterlimit:10;}
	.st8{clip-path:url(#SVGID_16_);}
	.st9{fill:none;stroke:#FAFAC6;stroke-width:1.6;stroke-miterlimit:10;}
	.st10{clip-path:url(#SVGID_18_);}
	.st11{clip-path:url(#SVGID_20_);}
	.st12{clip-path:url(#SVGID_22_);fill:none;stroke:#FFCC33;stroke-width:2.264;stroke-miterlimit:10;}
	.st13{clip-path:url(#SVGID_24_);fill:#F45E39;stroke:#FFCC33;stroke-width:2.264;stroke-miterlimit:10;}
	.st14{clip-path:url(#SVGID_26_);fill:#F45E39;stroke:#FFCC33;stroke-width:2.264;stroke-miterlimit:10;}
	.st15{clip-path:url(#SVGID_28_);fill:#F45E39;stroke:#FFCC33;stroke-width:2.264;stroke-miterlimit:10;}
	.st16{clip-path:url(#SVGID_30_);fill:#F45E39;stroke:#FFCC33;stroke-width:2.264;stroke-miterlimit:10;}
	.st17{clip-path:url(#SVGID_32_);fill:#F45E39;stroke:#FFCC33;stroke-width:2.264;stroke-miterlimit:10;}
	.st18{clip-path:url(#SVGID_34_);fill:#F45E39;stroke:#FFCC33;stroke-width:2.264;stroke-miterlimit:10;}
	.st19{clip-path:url(#SVGID_36_);fill:#F45E39;stroke:#FFCC33;stroke-width:2.264;stroke-miterlimit:10;}
	.st20{clip-path:url(#SVGID_38_);fill:#F45E39;stroke:#FFCC33;stroke-width:2.264;stroke-miterlimit:10;}
	.st21{clip-path:url(#SVGID_40_);fill:#F45E39;stroke:#FFCC33;stroke-width:2.264;stroke-miterlimit:10;}
	.st22{clip-path:url(#SVGID_42_);fill:#F45E39;stroke:#FFCC33;stroke-width:2.264;stroke-miterlimit:10;}
	.st23{clip-path:url(#SVGID_44_);fill:#F45E39;stroke:#FFCC33;stroke-width:2.264;stroke-miterlimit:10;}
	.st24{clip-path:url(#SVGID_46_);fill:#F45E39;stroke:#FFCC33;stroke-width:2.264;stroke-miterlimit:10;}
	.st25{clip-path:url(#SVGID_48_);fill:#F45E39;stroke:#FFCC33;stroke-width:2.264;stroke-miterlimit:10;}
	.st26{clip-path:url(#SVGID_50_);fill:#F45E39;stroke:#FFCC33;stroke-width:2.264;stroke-miterlimit:10;}
	.st27{clip-path:url(#SVGID_52_);}
	.st28{fill:#F45E39;stroke:#FFCC33;stroke-width:2.6789;stroke-miterlimit:10;}
	.st29{fill:#F45E39;stroke:#FFCC33;stroke-width:2.382;stroke-miterlimit:10;}
	.st30{fill:#F45E39;stroke:#FFCC33;stroke-width:2.7345;stroke-miterlimit:10;}
	.st31{clip-path:url(#SVGID_54_);}
	.st32{fill:#F45E39;stroke:#FFCC33;stroke-width:2.0319;stroke-miterlimit:10;}
	.st33{fill:#F45E39;stroke:#FFCC33;stroke-width:1.9645;stroke-miterlimit:10;}
	.st34{fill:none;stroke:#FFCC33;stroke-width:1.9645;stroke-miterlimit:10;}
	.st35{clip-path:url(#SVGID_56_);}
	.st36{fill:none;stroke:#FFFFFF;stroke-width:1.6;stroke-miterlimit:10;}
	.st37{clip-path:url(#SVGID_58_);}
	.st38{fill:#F45E39;stroke:#FFCC33;stroke-width:2.4814;stroke-miterlimit:10;}
	.st39{fill:#F45E39;stroke:#FFCC33;stroke-width:2.2748;stroke-linejoin:round;stroke-miterlimit:10;}
	.st40{fill:none;stroke:#FFCC33;stroke-width:2.2748;stroke-linejoin:round;stroke-miterlimit:10;}
</style>
<g>
	<g>
		<defs>
			<rect id="SVGID_1_" y="-433.8" width="1920" height="1080"/>
		</defs>
		<clipPath id="SVGID_2_">
			<use xlink:href="#SVGID_1_"  style="overflow:visible;"/>
		</clipPath>
		<g class="st0">
			<line class="st1" x1="373.5" y1="227.4" x2="195" y2="227.4"/>
			<line class="st1" x1="373.5" y1="234.3" x2="195" y2="234.3"/>
			<line class="st1" x1="373.5" y1="241.1" x2="195" y2="241.1"/>
			<line class="st1" x1="373.5" y1="248" x2="195" y2="248"/>
			<line class="st1" x1="373.5" y1="254.8" x2="195" y2="254.8"/>
			<line class="st1" x1="373.5" y1="261.7" x2="195" y2="261.7"/>
			<line class="st1" x1="373.5" y1="268.5" x2="195" y2="268.5"/>
			<line class="st1" x1="373.5" y1="275.4" x2="195" y2="275.4"/>
			<line class="st1" x1="373.5" y1="282.2" x2="195" y2="282.2"/>
			<line class="st1" x1="373.5" y1="289.1" x2="195" y2="289.1"/>
			<line class="st1" x1="373.5" y1="295.9" x2="195" y2="295.9"/>
			<line class="st1" x1="373.5" y1="302.8" x2="195" y2="302.8"/>
		</g>
	</g>
	<g>
		<defs>
			<rect id="SVGID_3_" x="1471" y="-330.3" width="1920" height="1080"/>
		</defs>
		<clipPath id="SVGID_4_">
			<use xlink:href="#SVGID_3_"  style="overflow:visible;"/>
		</clipPath>
		<rect x="1470.7" y="72.5" class="st2" width="449.7" height="170.8"/>
	</g>
	<g>
		<defs>
			<rect id="SVGID_5_" y="-433.8" width="1920" height="1080"/>
		</defs>
		<clipPath id="SVGID_6_">
			<use xlink:href="#SVGID_5_"  style="overflow:visible;"/>
		</clipPath>
		<polygon class="st3" points="1492.8,216.8 1590.6,216.8 1590.6,84.6 1590.6,72.5 1492.8,72.5 		"/>
	</g>
	<g>
		<defs>
			<rect id="SVGID_7_" y="-433.8" width="1920" height="1080"/>
		</defs>
		<clipPath id="SVGID_8_">
			<use xlink:href="#SVGID_7_"  style="overflow:visible;"/>
		</clipPath>
		<polygon class="st4" points="1613.2,216.8 1711,216.8 1711,84.6 1711,72.5 1613.2,72.5 		"/>
	</g>
	<g>
		<defs>
			<rect id="SVGID_9_" y="-433.8" width="1920" height="1080"/>
		</defs>
		<clipPath id="SVGID_10_">
			<use xlink:href="#SVGID_9_"  style="overflow:visible;"/>
		</clipPath>
		<polygon class="st5" points="1733.6,216.8 1831.4,216.8 1831.4,84.6 1831.4,72.5 1733.6,72.5 		"/>
	</g>
	<g>
		<defs>
			<rect id="SVGID_11_" y="-433.8" width="1920" height="1080"/>
		</defs>
		<clipPath id="SVGID_12_">
			<use xlink:href="#SVGID_11_"  style="overflow:visible;"/>
		</clipPath>
		<polygon class="st6" points="1854,216.8 1951.8,216.8 1951.8,84.6 1951.8,72.5 1854,72.5 		"/>
	</g>
	<g>
		<defs>
			<rect id="SVGID_13_" x="1471" y="14" width="1920" height="1080"/>
		</defs>
		<clipPath id="SVGID_14_">
			<use xlink:href="#SVGID_13_"  style="overflow:visible;"/>
		</clipPath>
		<rect x="1470.7" y="244.7" class="st7" width="449.7" height="170.8"/>
	</g>
	<g>
		<defs>
			<rect id="SVGID_15_" y="-433.8" width="1920" height="1080"/>
		</defs>
		<clipPath id="SVGID_16_">
			<use xlink:href="#SVGID_15_"  style="overflow:visible;"/>
		</clipPath>
		<g class="st8">
			<line class="st9" x1="1589.5" y1="253.1" x2="1494" y2="253.1"/>
			<line class="st9" x1="1589.5" y1="263" x2="1494" y2="263"/>
			<line class="st9" x1="1589.5" y1="273" x2="1494" y2="273"/>
			<line class="st9" x1="1589.5" y1="282.9" x2="1494" y2="282.9"/>
			<line class="st9" x1="1589.5" y1="292.8" x2="1494" y2="292.8"/>
			<line class="st9" x1="1589.5" y1="302.8" x2="1494" y2="302.8"/>
			<line class="st9" x1="1589.5" y1="312.7" x2="1494" y2="312.7"/>
			<line class="st9" x1="1589.5" y1="322.7" x2="1494" y2="322.7"/>
			<line class="st9" x1="1589.5" y1="332.6" x2="1494" y2="332.6"/>
			<line class="st9" x1="1589.5" y1="342.6" x2="1494" y2="342.6"/>
			<line class="st9" x1="1589.5" y1="352.5" x2="1494" y2="352.5"/>
			<line class="st9" x1="1589.5" y1="362.4" x2="1494" y2="362.4"/>
			<line class="st9" x1="1589.5" y1="372.4" x2="1494" y2="372.4"/>
			<line class="st9" x1="1589.5" y1="382.3" x2="1494" y2="382.3"/>
		</g>
	</g>
	<g>
		<defs>
			<rect id="SVGID_17_" y="-433.8" width="1920" height="1080"/>
		</defs>
		<clipPath id="SVGID_18_">
			<use xlink:href="#SVGID_17_"  style="overflow:visible;"/>
		</clipPath>
		<g class="st10">
			<line class="st9" x1="1579.6" y1="258.1" x2="1546.9" y2="258.1"/>
			<line class="st9" x1="1579.6" y1="268" x2="1546.9" y2="268"/>
			<line class="st9" x1="1579.6" y1="278" x2="1546.9" y2="278"/>
			<line class="st9" x1="1579.6" y1="287.9" x2="1546.9" y2="287.9"/>
			<line class="st9" x1="1579.6" y1="297.9" x2="1546.9" y2="297.9"/>
			<line class="st9" x1="1579.6" y1="307.8" x2="1546.9" y2="307.8"/>
			<line class="st9" x1="1579.6" y1="317.8" x2="1546.9" y2="317.8"/>
			<line class="st9" x1="1579.6" y1="327.8" x2="1546.9" y2="327.8"/>
			<line class="st9" x1="1579.6" y1="337.7" x2="1546.9" y2="337.7"/>
			<line class="st9" x1="1579.6" y1="347.7" x2="1546.9" y2="347.7"/>
			<line class="st9" x1="1579.6" y1="357.6" x2="1546.9" y2="357.6"/>
			<line class="st9" x1="1579.6" y1="367.6" x2="1546.9" y2="367.6"/>
			<line class="st9" x1="1579.6" y1="377.6" x2="1546.9" y2="377.6"/>
		</g>
	</g>
	<g>
		<defs>
			<rect id="SVGID_19_" y="-433.8" width="1920" height="1080"/>
		</defs>
		<clipPath id="SVGID_20_">
			<use xlink:href="#SVGID_19_"  style="overflow:visible;"/>
		</clipPath>
		<g class="st11">
			<line class="st9" x1="1537.9" y1="258.1" x2="1505.2" y2="258.1"/>
			<line class="st9" x1="1537.9" y1="268" x2="1505.2" y2="268"/>
			<line class="st9" x1="1537.9" y1="278" x2="1505.2" y2="278"/>
			<line class="st9" x1="1537.9" y1="287.9" x2="1505.2" y2="287.9"/>
			<line class="st9" x1="1537.9" y1="297.9" x2="1505.2" y2="297.9"/>
			<line class="st9" x1="1537.9" y1="307.8" x2="1505.2" y2="307.8"/>
			<line class="st9" x1="1537.9" y1="317.8" x2="1505.2" y2="317.8"/>
			<line class="st9" x1="1537.9" y1="327.8" x2="1505.2" y2="327.8"/>
			<line class="st9" x1="1537.9" y1="337.7" x2="1505.2" y2="337.7"/>
			<line class="st9" x1="1537.9" y1="347.7" x2="1505.2" y2="347.7"/>
			<line class="st9" x1="1537.9" y1="357.6" x2="1505.2" y2="357.6"/>
			<line class="st9" x1="1537.9" y1="367.6" x2="1505.2" y2="367.6"/>
			<line class="st9" x1="1537.9" y1="377.6" x2="1505.2" y2="377.6"/>
		</g>
	</g>
	<g>
		<defs>
			<rect id="SVGID_21_" y="-433.8" width="1920" height="1080"/>
		</defs>
		<clipPath id="SVGID_22_">
			<use xlink:href="#SVGID_21_"  style="overflow:visible;"/>
		</clipPath>
		<polygon class="st12" points="1492.8,389 1590.6,389 1590.6,256.7 1590.6,244.7 1492.8,244.7 		"/>
	</g>
	<g>
		<defs>
			<rect id="SVGID_23_" y="-433.8" width="1920" height="1080"/>
		</defs>
		<clipPath id="SVGID_24_">
			<use xlink:href="#SVGID_23_"  style="overflow:visible;"/>
		</clipPath>
		<polygon class="st13" points="1613.2,389 1711,389 1711,256.7 1711,244.7 1613.2,244.7 		"/>
	</g>
	<g>
		<defs>
			<rect id="SVGID_25_" y="-433.8" width="1920" height="1080"/>
		</defs>
		<clipPath id="SVGID_26_">
			<use xlink:href="#SVGID_25_"  style="overflow:visible;"/>
		</clipPath>
		<polygon class="st14" points="1733.6,389 1831.4,389 1831.4,256.7 1831.4,244.7 1733.6,244.7 		"/>
	</g>
	<g>
		<defs>
			<rect id="SVGID_27_" y="-433.8" width="1920" height="1080"/>
		</defs>
		<clipPath id="SVGID_28_">
			<use xlink:href="#SVGID_27_"  style="overflow:visible;"/>
		</clipPath>
		<polygon class="st15" points="1854,389 1951.8,389 1951.8,256.7 1951.8,244.7 1854,244.7 		"/>
	</g>
	<g>
		<defs>
			<rect id="SVGID_29_" x="1471" y="358.3" width="1920" height="1080"/>
		</defs>
		<clipPath id="SVGID_30_">
			<use xlink:href="#SVGID_29_"  style="overflow:visible;"/>
		</clipPath>
		<rect x="1470.7" y="416.8" class="st16" width="449.7" height="170.8"/>
	</g>
	<g>
		<defs>
			<rect id="SVGID_31_" y="-433.8" width="1920" height="1080"/>
		</defs>
		<clipPath id="SVGID_32_">
			<use xlink:href="#SVGID_31_"  style="overflow:visible;"/>
		</clipPath>
		<polygon class="st17" points="1492.8,561.1 1590.6,561.1 1590.6,428.9 1590.6,416.9 1492.8,416.9 		"/>
	</g>
	<g>
		<defs>
			<rect id="SVGID_33_" y="-433.8" width="1920" height="1080"/>
		</defs>
		<clipPath id="SVGID_34_">
			<use xlink:href="#SVGID_33_"  style="overflow:visible;"/>
		</clipPath>
		<polygon class="st18" points="1613.2,561.1 1711,561.1 1711,428.9 1711,416.9 1613.2,416.9 		"/>
	</g>
	<g>
		<defs>
			<rect id="SVGID_35_" y="-433.8" width="1920" height="1080"/>
		</defs>
		<clipPath id="SVGID_36_">
			<use xlink:href="#SVGID_35_"  style="overflow:visible;"/>
		</clipPath>
		<polygon class="st19" points="1733.6,561.1 1831.4,561.1 1831.4,428.9 1831.4,416.9 1733.6,416.9 		"/>
	</g>
	<g>
		<defs>
			<rect id="SVGID_37_" y="-433.8" width="1920" height="1080"/>
		</defs>
		<clipPath id="SVGID_38_">
			<use xlink:href="#SVGID_37_"  style="overflow:visible;"/>
		</clipPath>
		<polygon class="st20" points="1854,561.1 1951.8,561.1 1951.8,428.9 1951.8,416.9 1854,416.9 		"/>
	</g>
	<g>
		<defs>
			<rect id="SVGID_39_" x="1471" y="702.6" width="1920" height="1080"/>
		</defs>
		<clipPath id="SVGID_40_">
			<use xlink:href="#SVGID_39_"  style="overflow:visible;"/>
		</clipPath>
		<rect x="1470.7" y="589" class="st21" width="449.7" height="170.8"/>
	</g>
	<g>
		<defs>
			<rect id="SVGID_41_" y="-433.8" width="1920" height="1080"/>
		</defs>
		<clipPath id="SVGID_42_">
			<use xlink:href="#SVGID_41_"  style="overflow:visible;"/>
		</clipPath>
		<polygon class="st22" points="1492.8,733.3 1590.6,733.3 1590.6,601.1 1590.6,589 1492.8,589 		"/>
	</g>
	<g>
		<defs>
			<rect id="SVGID_43_" y="-433.8" width="1920" height="1080"/>
		</defs>
		<clipPath id="SVGID_44_">
			<use xlink:href="#SVGID_43_"  style="overflow:visible;"/>
		</clipPath>
		<polygon class="st23" points="1607.2,733.3 1705,733.3 1705,601.1 1705,589 1607.2,589 		"/>
	</g>
	<g>
		<defs>
			<rect id="SVGID_45_" y="-433.8" width="1920" height="1080"/>
		</defs>
		<clipPath id="SVGID_46_">
			<use xlink:href="#SVGID_45_"  style="overflow:visible;"/>
		</clipPath>
		<polygon class="st24" points="1733.6,733.3 1831.4,733.3 1831.4,601.1 1831.4,589 1733.6,589 		"/>
	</g>
	<g>
		<defs>
			<rect id="SVGID_47_" y="-433.8" width="1920" height="1080"/>
		</defs>
		<clipPath id="SVGID_48_">
			<use xlink:href="#SVGID_47_"  style="overflow:visible;"/>
		</clipPath>
		<polygon class="st25" points="1854,733.3 1951.8,733.3 1951.8,601.1 1951.8,589 1854,589 		"/>
	</g>
	<g>
		<defs>
			<rect id="SVGID_49_" x="1465.5" y="-540" width="1920" height="1080"/>
		</defs>
		<clipPath id="SVGID_50_">
			<use xlink:href="#SVGID_49_"  style="overflow:visible;"/>
		</clipPath>
		<rect x="1465.1" y="33.7" class="st26" width="455.2" height="38.9"/>
	</g>
	<g>
		<defs>
			<rect id="SVGID_51_" y="-433.8" width="1920" height="1080"/>
		</defs>
		<clipPath id="SVGID_52_">
			<use xlink:href="#SVGID_51_"  style="overflow:visible;"/>
		</clipPath>
		<g class="st27">
			<rect x="-4.9" y="220.8" class="st28" width="502.1" height="87.5"/>
			<rect x="100.2" y="220.8" class="st29" width="178.3" height="87.5"/>
			<rect x="-65.4" y="181.9" class="st29" width="567.5" height="38.9"/>
			<rect x="-4.9" y="347.3" class="st28" width="502.1" height="87.5"/>
			<rect x="296.1" y="347.3" class="st29" width="178.3" height="87.5"/>
			<rect x="100.2" y="347.3" class="st29" width="178.3" height="87.5"/>
			<rect x="-27.5" y="308.4" class="st30" width="529.6" height="38.9"/>
			<rect x="-4.9" y="473.7" class="st28" width="502.1" height="87.5"/>
			<rect x="296.1" y="473.7" class="st29" width="178.3" height="87.5"/>
			<rect x="100.2" y="473.7" class="st29" width="178.3" height="87.5"/>
			<rect x="-94" y="220.8" class="st29" width="178.3" height="87.5"/>
			<rect x="-94" y="347.3" class="st29" width="178.3" height="87.5"/>
			<rect x="-94" y="473.7" class="st29" width="178.3" height="87.5"/>
			<rect x="-27.5" y="434.8" class="st30" width="529.6" height="38.9"/>
			<rect x="100.2" y="600.2" class="st29" width="397" height="87.6"/>
			<rect x="296.1" y="600.2" class="st29" width="178.3" height="87.6"/>
			<rect x="-65.4" y="600.2" class="st29" width="344" height="87.6"/>
			<rect x="-27.5" y="561.3" class="st30" width="529.6" height="38.9"/>
			<polygon class="st29" points="474.4,308.4 296.1,308.4 296.1,228.1 296.1,220.8 474.4,220.8 			"/>
			<g>
				<line class="st9" x1="473.3" y1="230.6" x2="297.3" y2="230.6"/>
				<line class="st9" x1="473.3" y1="240.3" x2="297.3" y2="240.3"/>
				<line class="st9" x1="473.3" y1="250" x2="297.3" y2="250"/>
				<line class="st9" x1="473.3" y1="259.6" x2="297.3" y2="259.6"/>
				<line class="st9" x1="473.3" y1="269.3" x2="297.3" y2="269.3"/>
				<line class="st9" x1="473.3" y1="279" x2="297.3" y2="279"/>
				<line class="st9" x1="473.3" y1="288.7" x2="297.3" y2="288.7"/>
				<line class="st9" x1="473.3" y1="298.4" x2="297.3" y2="298.4"/>
			</g>
			<g>
				<line class="st9" x1="377.2" y1="234.9" x2="314.6" y2="234.9"/>
				<line class="st9" x1="377.2" y1="244.8" x2="314.6" y2="244.8"/>
				<line class="st9" x1="377.2" y1="254.6" x2="314.6" y2="254.6"/>
				<line class="st9" x1="377.2" y1="264.5" x2="314.6" y2="264.5"/>
				<line class="st9" x1="377.2" y1="274.4" x2="314.6" y2="274.4"/>
				<line class="st9" x1="377.2" y1="284.2" x2="314.6" y2="284.2"/>
				<line class="st9" x1="377.2" y1="294.1" x2="314.6" y2="294.1"/>
			</g>
			<g>
				<line class="st9" x1="456" y1="234.9" x2="394.5" y2="234.9"/>
				<line class="st9" x1="456" y1="244.8" x2="394.5" y2="244.8"/>
				<line class="st9" x1="456" y1="254.6" x2="394.5" y2="254.6"/>
				<line class="st9" x1="456" y1="264.5" x2="394.5" y2="264.5"/>
				<line class="st9" x1="456" y1="274.4" x2="394.5" y2="274.4"/>
				<line class="st9" x1="456" y1="284.2" x2="394.5" y2="284.2"/>
				<line class="st9" x1="456" y1="294.1" x2="394.5" y2="294.1"/>
			</g>
		</g>
	</g>
	<g>
		<defs>
			<rect id="SVGID_53_" y="-433.8" width="1920" height="1080"/>
		</defs>
		<clipPath id="SVGID_54_">
			<use xlink:href="#SVGID_53_"  style="overflow:visible;"/>
		</clipPath>
		<g class="st31">
			<polygon class="st32" points="1435.9,747.2 1074.8,747.2 1074.8,225.2 1435.9,163.4 			"/>
			<path class="st33" d="M1336.9,305.3c-8.6,0-17.2,1.6-25.2,4.5c-9.1,3.3-16.2,9-26.4,9h-4v30h7.9v96.1"/>
			<path class="st33" d="M1336.9,305.3c7.9,0,15.8,1.4,23.2,3.8c9.7,3.2,17.8,9.7,28.3,9.7h4v30h-7.9v95.8"/>
			<polygon class="st33" points="1332.3,317.6 1328.6,287.4 1343.6,287.4 1340.6,317.6 			"/>
			<polyline class="st33" points="1299.9,445.3 1299.9,367.4 1372.6,367.4 1372.6,444.7 			"/>
			<rect x="1280.4" y="445" class="st33" width="117" height="19"/>
			<path class="st34" d="M1336.9,317.9c-20.5,0-36.1,10.7-37,11v27.2h37h37v-27.2C1372.9,328.6,1357.4,317.9,1336.9,317.9z"/>
			<path class="st33" d="M1336.9,515.9c-8.6,0-17.2,1.6-25.2,4.5c-9.1,3.3-16.2,9-26.4,9h-4v30h7.9v96.1"/>
			<path class="st33" d="M1336.9,515.9c7.9,0,15.8,1.4,23.2,3.8c9.7,3.2,17.8,9.7,28.3,9.7h4v30h-7.9v95.8"/>
			<polygon class="st33" points="1332.3,528.2 1328.6,498 1343.6,498 1340.6,528.2 			"/>
			<polyline class="st33" points="1299.9,655.9 1299.9,578 1372.6,578 1372.6,655.3 			"/>
			<path class="st34" d="M1336.9,528.6c-20.5,0-36.1,10.7-37,11v27.2h37h37v-27.2C1372.9,539.2,1357.4,528.6,1336.9,528.6z"/>
			<path class="st33" d="M1177.8,515.9c-8.6,0-17.2,1.6-25.2,4.5c-9.1,3.3-16.2,9-26.4,9h-4v30h7.9v96.1"/>
			<path class="st33" d="M1177.8,515.9c7.9,0,15.8,1.4,23.2,3.8c9.7,3.2,17.8,9.7,28.3,9.7h4v30h-7.9v95.8"/>
			<polygon class="st33" points="1173.2,528.2 1169.5,498 1184.5,498 1181.4,528.2 			"/>
			<polyline class="st33" points="1140.8,655.9 1140.8,578 1213.5,578 1213.5,655.3 			"/>
			<path class="st34" d="M1177.8,528.6c-20.5,0-36.1,10.7-37,11v27.2h37h37v-27.2C1213.8,539.2,1198.2,528.6,1177.8,528.6z"/>
			<path class="st34" d="M1177.8,304.3c-8.6,0-17.2,1.6-25.2,4.5c-9.1,3.3-16.2,9-26.4,9h-4v30h7.9v96.1"/>
			<path class="st34" d="M1177.8,304.3c7.9,0,15.8,1.4,23.2,3.8c9.7,3.2,17.8,9.7,28.3,9.7h4v30h-7.9v95.8"/>
			<polygon class="st33" points="1173.2,316.6 1169.5,286.4 1184.5,286.4 1181.4,316.6 			"/>
			<rect x="1121.3" y="444" class="st34" width="117" height="19"/>
			<g>
				<line class="st9" x1="1141.7" y1="373.7" x2="1212.6" y2="373.7"/>
				<line class="st9" x1="1141.7" y1="380.9" x2="1212.6" y2="380.9"/>
				<line class="st9" x1="1141.7" y1="388.1" x2="1212.6" y2="388.1"/>
				<line class="st9" x1="1141.7" y1="395.3" x2="1212.6" y2="395.3"/>
				<line class="st9" x1="1141.7" y1="402.5" x2="1212.6" y2="402.5"/>
				<line class="st9" x1="1141.7" y1="409.7" x2="1212.6" y2="409.7"/>
				<line class="st9" x1="1141.7" y1="416.9" x2="1212.6" y2="416.9"/>
				<line class="st9" x1="1141.7" y1="424.1" x2="1212.6" y2="424.1"/>
				<line class="st9" x1="1141.7" y1="431.3" x2="1212.6" y2="431.3"/>
				<line class="st9" x1="1141.7" y1="438.5" x2="1212.6" y2="438.5"/>
			</g>
			<g>
				<line class="st9" x1="1150" y1="370.2" x2="1173.1" y2="370.2"/>
				<line class="st9" x1="1150" y1="377.4" x2="1173.1" y2="377.4"/>
				<line class="st9" x1="1150" y1="384.6" x2="1173.1" y2="384.6"/>
				<line class="st9" x1="1150" y1="391.8" x2="1173.1" y2="391.8"/>
				<line class="st9" x1="1150" y1="399" x2="1173.1" y2="399"/>
				<line class="st9" x1="1150" y1="406.2" x2="1173.1" y2="406.2"/>
				<line class="st9" x1="1150" y1="413.4" x2="1173.1" y2="413.4"/>
				<line class="st9" x1="1150" y1="420.5" x2="1173.1" y2="420.5"/>
				<line class="st9" x1="1150" y1="427.7" x2="1173.1" y2="427.7"/>
				<line class="st9" x1="1150" y1="434.9" x2="1173.1" y2="434.9"/>
			</g>
			<g>
				<line class="st9" x1="1181.2" y1="370.2" x2="1204.4" y2="370.2"/>
				<line class="st9" x1="1181.2" y1="377.4" x2="1204.4" y2="377.4"/>
				<line class="st9" x1="1181.2" y1="384.6" x2="1204.4" y2="384.6"/>
				<line class="st9" x1="1181.2" y1="391.8" x2="1204.4" y2="391.8"/>
				<line class="st9" x1="1181.2" y1="399" x2="1204.4" y2="399"/>
				<line class="st9" x1="1181.2" y1="406.2" x2="1204.4" y2="406.2"/>
				<line class="st9" x1="1181.2" y1="413.4" x2="1204.4" y2="413.4"/>
				<line class="st9" x1="1181.2" y1="420.5" x2="1204.4" y2="420.5"/>
				<line class="st9" x1="1181.2" y1="427.7" x2="1204.4" y2="427.7"/>
				<line class="st9" x1="1181.2" y1="434.9" x2="1204.4" y2="434.9"/>
			</g>
			<g>
				<g>
					<defs>
						<path id="SVGID_55_" d="M1177.8,316.9c-20.5,0-36.1,10.7-37,11v27.2h37h37v-27.2C1213.8,327.6,1198.2,316.9,1177.8,316.9z"/>
					</defs>
					<clipPath id="SVGID_56_">
						<use xlink:href="#SVGID_55_"  style="overflow:visible;"/>
					</clipPath>
					<g class="st35">
						<line class="st9" x1="1141.7" y1="318.7" x2="1213.8" y2="318.7"/>
						<line class="st9" x1="1141.7" y1="325.9" x2="1213.8" y2="325.9"/>
						<line class="st9" x1="1141.7" y1="333.1" x2="1213.8" y2="333.1"/>
						<line class="st9" x1="1141.7" y1="340.3" x2="1213.8" y2="340.3"/>
						<line class="st9" x1="1141.7" y1="347.5" x2="1213.8" y2="347.5"/>
						<g>
							<line class="st9" x1="1149.9" y1="350.9" x2="1173.1" y2="350.9"/>
							<line class="st9" x1="1149.9" y1="329.5" x2="1173.1" y2="329.5"/>
							<line class="st9" x1="1149.9" y1="336.7" x2="1173.1" y2="336.7"/>
							<line class="st9" x1="1149.9" y1="343.9" x2="1173.1" y2="343.9"/>
						</g>
						<g>
							<line class="st9" x1="1181.3" y1="350.9" x2="1204.4" y2="350.9"/>
							<line class="st9" x1="1181.3" y1="329.5" x2="1204.4" y2="329.5"/>
							<line class="st9" x1="1181.3" y1="336.7" x2="1204.4" y2="336.7"/>
							<line class="st9" x1="1181.3" y1="343.9" x2="1204.4" y2="343.9"/>
						</g>
						<line class="st36" x1="1141.7" y1="373.7" x2="1212.6" y2="373.7"/>
						<line class="st36" x1="1141.7" y1="380.9" x2="1212.6" y2="380.9"/>
						<line class="st36" x1="1141.7" y1="388.1" x2="1212.6" y2="388.1"/>
						<line class="st36" x1="1141.7" y1="395.3" x2="1212.6" y2="395.3"/>
						<line class="st36" x1="1141.7" y1="402.5" x2="1212.6" y2="402.5"/>
						<line class="st36" x1="1141.7" y1="409.7" x2="1212.6" y2="409.7"/>
						<line class="st36" x1="1141.7" y1="416.9" x2="1212.6" y2="416.9"/>
						<line class="st36" x1="1141.7" y1="424.1" x2="1212.6" y2="424.1"/>
						<line class="st36" x1="1141.7" y1="431.3" x2="1212.6" y2="431.3"/>
						<line class="st36" x1="1141.7" y1="438.5" x2="1212.6" y2="438.5"/>
					</g>
				</g>
			</g>
			<polyline class="st34" points="1140.8,444.3 1140.8,366.4 1213.5,366.4 1213.5,443.7 			"/>
			<path class="st34" d="M1177.8,316.9c-20.5,0-36.1,10.7-37,11v27.2h37h37v-27.2C1213.8,327.6,1198.2,316.9,1177.8,316.9z"/>
		</g>
	</g>
	<g>
		<defs>
			<rect id="SVGID_57_" y="-433.8" width="1920" height="1080"/>
		</defs>
		<clipPath id="SVGID_58_">
			<use xlink:href="#SVGID_57_"  style="overflow:visible;"/>
		</clipPath>
		<g class="st37">
			<rect x="556.4" y="315.8" class="st38" width="477.4" height="372.2"/>
			<rect x="556.4" y="272.2" class="st38" width="477.4" height="43.6"/>
			<g>
				<polygon class="st39" points="825.7,476.1 752.1,476.1 752.1,364.3 752.1,354.1 825.7,354.1 				"/>
				<polyline class="st40" points="751.9,354.1 720.2,353.9 720.9,476.6 752.1,476.1 				"/>
				<polygon class="st38" points="856.9,476.6 825.7,476.1 826.2,364.3 826.2,354.1 857.7,353.9 				"/>
				<polyline class="st40" points="738.3,476.5 738.3,489.7 839.1,489.7 839.1,476.5 				"/>
				<polyline class="st40" points="738.3,354.8 738.3,341.5 839.1,341.5 839.1,354.3 				"/>
			</g>
			<g>
				<line class="st9" x1="824.7" y1="359" x2="753.3" y2="359"/>
				<line class="st9" x1="824.7" y1="369" x2="753.3" y2="369"/>
				<line class="st9" x1="824.7" y1="379" x2="753.3" y2="379"/>
				<line class="st9" x1="824.7" y1="389" x2="753.3" y2="389"/>
				<line class="st9" x1="824.7" y1="399" x2="753.3" y2="399"/>
				<line class="st9" x1="824.7" y1="409" x2="753.3" y2="409"/>
				<line class="st9" x1="824.7" y1="419" x2="753.3" y2="419"/>
				<line class="st9" x1="824.7" y1="429" x2="753.3" y2="429"/>
				<line class="st9" x1="824.7" y1="439" x2="753.3" y2="439"/>
				<line class="st9" x1="824.7" y1="449.1" x2="753.3" y2="449.1"/>
				<line class="st9" x1="824.7" y1="459.1" x2="753.3" y2="459.1"/>
				<line class="st9" x1="824.7" y1="469.1" x2="753.3" y2="469.1"/>
			</g>
			<g>
				<line class="st9" x1="784.7" y1="364.6" x2="760.3" y2="364.6"/>
				<line class="st9" x1="784.7" y1="374.5" x2="760.3" y2="374.5"/>
				<line class="st9" x1="784.7" y1="384.5" x2="760.3" y2="384.5"/>
				<line class="st9" x1="784.7" y1="394.4" x2="760.3" y2="394.4"/>
				<line class="st9" x1="784.7" y1="404.4" x2="760.3" y2="404.4"/>
				<line class="st9" x1="784.7" y1="414.4" x2="760.3" y2="414.4"/>
				<line class="st9" x1="784.7" y1="424.3" x2="760.3" y2="424.3"/>
				<line class="st9" x1="784.7" y1="434.3" x2="760.3" y2="434.3"/>
				<line class="st9" x1="784.7" y1="444.2" x2="760.3" y2="444.2"/>
				<line class="st9" x1="784.7" y1="454.2" x2="760.3" y2="454.2"/>
				<line class="st9" x1="784.7" y1="464.1" x2="760.3" y2="464.1"/>
			</g>
			<g>
				<line class="st9" x1="817.2" y1="364.6" x2="792.8" y2="364.6"/>
				<line class="st9" x1="817.2" y1="374.5" x2="792.8" y2="374.5"/>
				<line class="st9" x1="817.2" y1="384.5" x2="792.8" y2="384.5"/>
				<line class="st9" x1="817.2" y1="394.4" x2="792.8" y2="394.4"/>
				<line class="st9" x1="817.2" y1="404.4" x2="792.8" y2="404.4"/>
				<line class="st9" x1="817.2" y1="414.4" x2="792.8" y2="414.4"/>
				<line class="st9" x1="817.2" y1="424.3" x2="792.8" y2="424.3"/>
				<line class="st9" x1="817.2" y1="434.3" x2="792.8" y2="434.3"/>
				<line class="st9" x1="817.2" y1="444.2" x2="792.8" y2="444.2"/>
				<line class="st9" x1="817.2" y1="454.2" x2="792.8" y2="454.2"/>
				<line class="st9" x1="817.2" y1="464.1" x2="792.8" y2="464.1"/>
			</g>
			<g>
				<polygon class="st39" points="825.7,727.4 752.1,727.4 752.1,615.6 752.1,605.4 825.7,605.4 				"/>
				<polygon class="st39" points="748.2,729.7 752.1,727.4 752.1,615.6 752.1,605.4 747.4,602.4 				"/>
				<polygon class="st39" points="720.9,727.9 747.4,727.4 747.1,615.6 747.1,605.4 720.2,605.2 				"/>
				<polygon class="st39" points="829.7,729.7 825.7,727.4 825.7,615.6 825.7,605.4 830.4,602.4 				"/>
				<polygon class="st39" points="856.9,727.9 829.8,727.4 830.3,615.6 830.3,605.4 857.7,605.2 				"/>
				<polyline class="st39" points="738.3,606.1 738.3,592.8 839.1,592.8 839.1,605.6 				"/>
			</g>
		</g>
	</g>
</g>
</svg>
