<?xml version="1.0" encoding="utf-8"?>
<!-- Generator: Adobe Illustrator 25.0.0, SVG Export Plug-In . SVG Version: 6.00 Build 0)  -->
<svg version="1.1" id="Layer_1" xmlns="http://www.w3.org/2000/svg" xmlns:xlink="http://www.w3.org/1999/xlink" x="0px" y="0px"
	 viewBox="0 0 160.3 160.3" style="enable-background:new 0 0 160.3 160.3;" xml:space="preserve">
<style type="text/css">
	.st0{fill:#FAFAC6;}
</style>
<path class="st0" d="M159.8,47.1c-0.4-8.5-1.8-14.4-3.7-19.5c-2.1-5.3-4.8-9.7-9.2-14.2c-4.5-4.5-8.9-7.2-14.2-9.2
	c-5.1-2-10.9-3.3-19.5-3.7c-8.5-0.4-11.3-0.5-33-0.5s-24.5,0.1-33,0.5c-8.5,0.4-14.4,1.7-19.5,3.7c-5.3,2-9.7,4.8-14.2,9.2
	C9,17.9,6.3,22.4,4.2,27.7c-2,5.1-3.3,10.9-3.7,19.5C0.1,55.7,0,58.4,0,80.2s0.1,24.5,0.5,33c0.4,8.5,1.8,14.4,3.7,19.5
	c2,5.3,4.8,9.7,9.2,14.2c4.5,4.5,10.3,7.2,15.6,9.2c5.1,2,10.9,3.3,19.5,3.7c5.4,0.2,8.4,0.4,15.3,0.4v-55.7H43.4V81.3h20.5V63.5
	c0-20.2,12-31.4,30.5-31.4c8.8,0,18.1,1.6,18.1,1.6v19.9h-10.2c-10,0-13.1,6.2-13.1,12.6v15.1h22.4l-3.6,23.3H89.1v55.8
	c15,0,18.1-0.1,25.5-0.5c8.5-0.4,12.9-1.7,18-3.7c5.3-2,9.7-4.8,14.2-9.2c4.4-4.5,7.2-8.9,9.2-14.2c2-5.1,3.3-10.9,3.7-19.5
	c0.4-8.5,0.5-11.3,0.5-33S160.2,55.7,159.8,47.1z"/>
</svg>
