<?xml version="1.0" encoding="utf-8"?>
<!-- Generator: Adobe Illustrator 25.0.0, SVG Export Plug-In . SVG Version: 6.00 Build 0)  -->
<svg version="1.1" id="Layer_1" xmlns="http://www.w3.org/2000/svg" xmlns:xlink="http://www.w3.org/1999/xlink" x="0px" y="0px"
	 viewBox="0 0 160.3 160.3" style="enable-background:new 0 0 160.3 160.3;" xml:space="preserve">
<style type="text/css">
	.st0{fill:#FAFAC6;}
</style>
<g>
	<g>
		<path class="st0" d="M80.2,0c-21.8,0-24.5,0.1-33,0.5c-8.5,0.4-14.4,1.7-19.5,3.7c-5.3,2-9.7,4.8-14.2,9.2s-7.2,8.9-9.2,14.2
			c-2,5.1-3.3,10.9-3.7,19.5C0.1,55.7,0,58.4,0,80.2c0,21.8,0.1,24.5,0.5,33c0.4,8.5,1.7,14.4,3.7,19.5c2,5.3,4.8,9.7,9.2,14.2
			s8.9,7.2,14.2,9.2c5.1,2,10.9,3.3,19.5,3.7c8.5,0.4,11.3,0.5,33,0.5c21.8,0,24.5-0.1,33-0.5c8.5-0.4,14.4-1.7,19.5-3.7
			c5.3-2,9.7-4.8,14.2-9.2s7.2-8.9,9.2-14.2c2-5.1,3.3-10.9,3.7-19.5c0.4-8.5,0.5-11.3,0.5-33c0-21.8-0.1-24.5-0.5-33
			c-0.4-8.5-1.7-14.4-3.7-19.5c-2.1-5.3-4.8-9.7-9.2-14.2c-4.5-4.5-8.9-7.2-14.2-9.2c-5.1-2-10.9-3.3-19.5-3.7
			C104.7,0.1,101.9,0,80.2,0L80.2,0L80.2,0z M80.2,14.4c21.4,0,23.9,0.1,32.4,0.5c7.8,0.4,12.1,1.7,14.9,2.8c3.7,1.5,6.4,3.2,9.2,6
			c2.8,2.8,4.5,5.5,6,9.2c1.1,2.8,2.4,7.1,2.8,14.9c0.4,8.4,0.5,11,0.5,32.4c0,21.4-0.1,23.9-0.5,32.4c-0.4,7.8-1.7,12.1-2.8,14.9
			c-1.5,3.7-3.2,6.4-6,9.2c-2.8,2.8-5.5,4.5-9.2,6c-2.8,1.1-7.1,2.4-14.9,2.8c-8.5,0.4-11,0.5-32.4,0.5s-23.9-0.1-32.4-0.5
			c-7.8-0.4-12.1-1.7-14.9-2.8c-3.7-1.5-6.4-3.2-9.2-6c-2.8-2.8-4.5-5.5-6-9.2c-1.1-2.8-2.4-7.1-2.8-14.9c-0.4-8.5-0.5-11-0.5-32.4
			s0.1-23.9,0.5-32.4c0.4-7.8,1.7-12.1,2.8-14.9c1.5-3.7,3.2-6.4,6-9.2c2.8-2.8,5.5-4.5,9.2-6c2.8-1.1,7.1-2.4,14.9-2.8
			C56.2,14.5,58.8,14.4,80.2,14.4"/>
		<path class="st0" d="M80.2,106.9c-14.8,0-26.7-12-26.7-26.7c0-14.8,12-26.7,26.7-26.7c14.8,0,26.7,12,26.7,26.7
			C106.9,94.9,94.9,106.9,80.2,106.9L80.2,106.9z M80.2,39C57.4,39,39,57.4,39,80.2s18.4,41.2,41.2,41.2s41.2-18.4,41.2-41.2
			S102.9,39,80.2,39L80.2,39z"/>
		<path class="st0" d="M132.6,37.4c0,5.3-4.3,9.6-9.6,9.6s-9.6-4.3-9.6-9.6s4.3-9.6,9.6-9.6S132.6,32.1,132.6,37.4L132.6,37.4z"/>
	</g>
</g>
</svg>
