<?xml version="1.0" encoding="utf-8"?>
<!-- Generator: Adobe Illustrator 24.1.2, SVG Export Plug-In . SVG Version: 6.00 Build 0)  -->
<svg version="1.1" id="Layer_1" xmlns="http://www.w3.org/2000/svg" xmlns:xlink="http://www.w3.org/1999/xlink" x="0px" y="0px"
	 viewBox="0 0 1920 1080" style="enable-background:new 0 0 1920 1080;" xml:space="preserve">
<style type="text/css">
	.st0{fill:#F45E39;stroke:#FFCC33;stroke-width:3;stroke-miterlimit:10;}
	.st1{fill:#F45E39;stroke:#FFCC33;stroke-width:2.4248;stroke-miterlimit:10;}
	.st2{fill:#FAFAC6;stroke:#FAFAC6;stroke-width:1.7258;stroke-miterlimit:10;}
	.st3{fill:#FAFAC6;stroke:#FAFAC6;stroke-width:1.6593;stroke-miterlimit:10;}
	.st4{fill:#FAFAC6;stroke:#FAFAC6;stroke-width:1.6612;stroke-miterlimit:10;}
	.st5{clip-path:url(#SVGID_2_);}
	.st6{fill:#FF6666;stroke:#FAFAC6;stroke-width:1.7258;stroke-miterlimit:10;}
	.st7{fill:#FF6666;stroke:#FAFAC6;stroke-width:1.6585;stroke-miterlimit:10;}
	.st8{fill:#FF6666;stroke:#FFFFFF;stroke-width:1.7258;stroke-miterlimit:10;}
	.st9{fill:none;stroke:#FFCC33;stroke-width:2.4248;stroke-miterlimit:10;}
	.st10{clip-path:url(#SVGID_6_);}
	.st11{clip-path:url(#SVGID_8_);}
	.st12{clip-path:url(#SVGID_10_);}
	.st13{clip-path:url(#SVGID_12_);}
	.st14{clip-path:url(#SVGID_14_);}
	.st15{fill:#FAFAC6;stroke:#FAFAC6;stroke-width:1.724;stroke-miterlimit:10;}
	.st16{clip-path:url(#SVGID_16_);}
	.st17{fill:#FAFAC6;}
	.st18{fill:#F45E39;}
	.st19{fill:#F45E39;stroke:#FAFAC6;stroke-width:1.5417;stroke-linecap:round;stroke-linejoin:round;stroke-miterlimit:10;}
	.st20{fill:#FAFAC6;stroke:#FAFAC6;stroke-width:1.5417;stroke-linecap:round;stroke-linejoin:round;stroke-miterlimit:10;}
	.st21{clip-path:url(#SVGID_16_);fill:none;stroke:#FAFAC6;stroke-width:2.1005;stroke-linejoin:round;stroke-miterlimit:10;}
	
		.st22{clip-path:url(#SVGID_16_);fill:none;stroke:#FAFAC6;stroke-width:2.1005;stroke-linecap:round;stroke-linejoin:round;stroke-miterlimit:10;}
	.st23{clip-path:url(#SVGID_16_);fill:#FAFAC6;stroke:#F45E39;stroke-width:2.1005;stroke-miterlimit:10;}
	.st24{clip-path:url(#SVGID_16_);fill:#FAFAC6;}
	.st25{opacity:0.5;clip-path:url(#SVGID_18_);fill:url(#SVGID_19_);}
	.st26{clip-path:url(#SVGID_21_);}
	.st27{fill:#FAFAC6;stroke:#FAFAC6;stroke-width:2.1814;stroke-linecap:round;stroke-linejoin:round;stroke-miterlimit:10;}
	.st28{fill:#F45E39;stroke:#FAFAC6;stroke-width:2.1814;stroke-linecap:round;stroke-linejoin:round;stroke-miterlimit:10;}
</style>
<g>
	<g>
		<polygon class="st0" points="1176.77,1059.93 743.55,1059.93 743.55,131.03 1176.77,19.41 		"/>
		<path class="st1" d="M860.98,474.69c-10.58,0-21.18,1.96-31.13,5.57c-11.26,4.09-20,11.09-32.53,11.09h-4.97v36.99h9.8v168.5"/>
		<path class="st1" d="M860.73,474.78c9.74,0,19.44,1.68,28.68,4.73c11.95,3.94,21.97,11.93,34.98,11.93h4.97v36.99h-9.8v168.13"/>
		<polygon class="st1" points="855.33,489.89 850.8,452.56 869.28,452.56 865.51,489.89 		"/>
		<rect x="791.23" y="696.63" class="st1" width="144.42" height="23.47"/>
		<path class="st1" d="M1060.51,205.43c-10.58,0-21.18,1.96-31.12,5.57c-11.26,4.09-20,11.09-32.53,11.09h-4.97v36.99h9.8v118.59"/>
		<path class="st1" d="M1060.51,205.43c9.74,0,19.44,1.68,28.68,4.73c11.95,3.94,21.97,11.93,34.98,11.93h4.97v36.99h-9.8V377.3"/>
		<polygon class="st1" points="1054.85,220.63 1050.33,183.3 1068.8,183.3 1065.03,220.63 		"/>
		<rect x="990.75" y="377.86" class="st1" width="144.42" height="23.47"/>
		<g>
			<line class="st2" x1="1016.01" y1="291.11" x2="1103.49" y2="291.11"/>
			<line class="st2" x1="1016.01" y1="300" x2="1103.49" y2="300"/>
			<line class="st2" x1="1016.01" y1="308.88" x2="1103.49" y2="308.88"/>
			<line class="st2" x1="1016.01" y1="317.77" x2="1103.49" y2="317.77"/>
			<line class="st2" x1="1016.01" y1="326.65" x2="1103.49" y2="326.65"/>
			<line class="st2" x1="1016.01" y1="335.54" x2="1103.49" y2="335.54"/>
			<line class="st2" x1="1016.01" y1="344.42" x2="1103.49" y2="344.42"/>
			<line class="st2" x1="1016.01" y1="353.31" x2="1103.49" y2="353.31"/>
			<line class="st2" x1="1016.01" y1="362.19" x2="1103.49" y2="362.19"/>
			<line class="st2" x1="1016.01" y1="371.07" x2="1103.49" y2="371.07"/>
		</g>
		<g>
			<line class="st3" x1="1026.19" y1="286.69" x2="1054.72" y2="286.69"/>
			<line class="st3" x1="1026.19" y1="295.58" x2="1054.72" y2="295.58"/>
			<line class="st3" x1="1026.19" y1="304.46" x2="1054.72" y2="304.46"/>
			<line class="st3" x1="1026.19" y1="313.35" x2="1054.72" y2="313.35"/>
			<line class="st3" x1="1026.19" y1="322.23" x2="1054.72" y2="322.23"/>
			<line class="st3" x1="1026.19" y1="331.12" x2="1054.72" y2="331.12"/>
			<line class="st3" x1="1026.19" y1="340" x2="1054.72" y2="340"/>
			<line class="st3" x1="1026.19" y1="348.89" x2="1054.72" y2="348.89"/>
			<line class="st3" x1="1026.19" y1="357.77" x2="1054.72" y2="357.77"/>
			<line class="st3" x1="1026.19" y1="366.65" x2="1054.72" y2="366.65"/>
		</g>
		<g>
			<line class="st4" x1="1064.77" y1="286.69" x2="1093.36" y2="286.69"/>
			<line class="st4" x1="1064.77" y1="295.58" x2="1093.36" y2="295.58"/>
			<line class="st4" x1="1064.77" y1="304.46" x2="1093.36" y2="304.46"/>
			<line class="st4" x1="1064.77" y1="313.35" x2="1093.36" y2="313.35"/>
			<line class="st4" x1="1064.77" y1="322.23" x2="1093.36" y2="322.23"/>
			<line class="st4" x1="1064.77" y1="331.12" x2="1093.36" y2="331.12"/>
			<line class="st4" x1="1064.77" y1="340" x2="1093.36" y2="340"/>
			<line class="st4" x1="1064.77" y1="348.89" x2="1093.36" y2="348.89"/>
			<line class="st4" x1="1064.77" y1="357.77" x2="1093.36" y2="357.77"/>
			<line class="st4" x1="1064.77" y1="366.65" x2="1093.36" y2="366.65"/>
		</g>
		<g>
			<defs>
				<path id="SVGID_1_" d="M1060.51,221c-25.26,0-44.49,13.2-45.62,13.57v33.56h45.62h45.62v-33.56
					C1105,234.2,1085.77,221,1060.51,221z"/>
			</defs>
			<clipPath id="SVGID_2_">
				<use xlink:href="#SVGID_1_"  style="overflow:visible;"/>
			</clipPath>
			<g class="st5">
				<line class="st2" x1="1016.01" y1="223.12" x2="1104.91" y2="223.12"/>
				<line class="st6" x1="1016.01" y1="232.01" x2="1104.91" y2="232.01"/>
				<line class="st6" x1="1016.01" y1="240.89" x2="1104.91" y2="240.89"/>
				<line class="st6" x1="1016.01" y1="249.78" x2="1104.91" y2="249.78"/>
				<line class="st2" x1="1016.01" y1="258.66" x2="1104.91" y2="258.66"/>
				<g>
					<line class="st7" x1="1026.12" y1="262.9" x2="1054.68" y2="262.9"/>
					<line class="st7" x1="1026.12" y1="236.45" x2="1054.68" y2="236.45"/>
					<line class="st7" x1="1026.12" y1="245.33" x2="1054.68" y2="245.33"/>
					<line class="st7" x1="1026.12" y1="254.22" x2="1054.68" y2="254.22"/>
				</g>
				<g>
					<line class="st7" x1="1064.8" y1="262.9" x2="1093.36" y2="262.9"/>
					<line class="st7" x1="1064.8" y1="236.45" x2="1093.36" y2="236.45"/>
					<line class="st7" x1="1064.8" y1="245.33" x2="1093.36" y2="245.33"/>
					<line class="st7" x1="1064.8" y1="254.22" x2="1093.36" y2="254.22"/>
				</g>
				<line class="st8" x1="1016.01" y1="291.11" x2="1103.49" y2="291.11"/>
				<line class="st8" x1="1016.01" y1="300" x2="1103.49" y2="300"/>
				<line class="st8" x1="1016.01" y1="308.88" x2="1103.49" y2="308.88"/>
				<line class="st8" x1="1016.01" y1="317.77" x2="1103.49" y2="317.77"/>
				<line class="st8" x1="1016.01" y1="326.65" x2="1103.49" y2="326.65"/>
				<line class="st8" x1="1016.01" y1="335.54" x2="1103.49" y2="335.54"/>
				<line class="st8" x1="1016.01" y1="344.42" x2="1103.49" y2="344.42"/>
				<line class="st8" x1="1016.01" y1="353.31" x2="1103.49" y2="353.31"/>
				<line class="st8" x1="1016.01" y1="362.19" x2="1103.49" y2="362.19"/>
				<line class="st8" x1="1016.01" y1="371.07" x2="1103.49" y2="371.07"/>
			</g>
		</g>
		<polyline class="st9" points="1014.88,378.24 1014.88,282.09 1104.62,282.09 1104.62,377.48 		"/>
		<path class="st9" d="M1060.51,221c-25.26,0-44.49,13.2-45.62,13.57v33.56h45.62h45.62v-33.56C1105,234.2,1085.77,221,1060.51,221z
			"/>
		<path class="st1" d="M1060.51,473.15c-10.58,0-21.18,1.96-31.12,5.57c-11.26,4.09-20,11.09-32.53,11.09h-4.97v36.99h9.8v168.95"/>
		<path class="st1" d="M1060.51,473.15c9.74,0,19.44,1.68,28.68,4.73c11.95,3.94,21.97,11.93,34.98,11.93h4.97v36.99h-9.8v168.58"/>
		<polygon class="st1" points="1054.85,488.35 1050.33,451.02 1068.8,451.02 1065.03,488.35 		"/>
		<rect x="990.75" y="696.62" class="st1" width="144.42" height="23.47"/>
		<polyline class="st9" points="1014.88,696.33 1014.88,549.81 1104.62,549.81 1104.62,695.57 		"/>
		<g>
			<defs>
				<polyline id="SVGID_3_" points="815.36,695.47 815.36,551.35 905.1,551.35 905.1,695.41 				"/>
			</defs>
			<clipPath id="SVGID_4_">
				<use xlink:href="#SVGID_3_"  style="overflow:visible;"/>
			</clipPath>
		</g>
		<polyline class="st9" points="815.36,697.42 815.36,551.35 905.1,551.35 905.1,696.66 		"/>
		<g>
			<path class="st2" d="M1103.49,567.72"/>
			<path class="st2" d="M1016.01,567.72"/>
			<g>
				<line class="st2" x1="1016.01" y1="558.84" x2="1103.49" y2="558.84"/>
				<line class="st2" x1="1016.01" y1="568.7" x2="1103.49" y2="568.7"/>
				<line class="st2" x1="1016.01" y1="578.56" x2="1103.49" y2="578.56"/>
				<line class="st2" x1="1016.01" y1="588.42" x2="1103.49" y2="588.42"/>
				<line class="st2" x1="1016.01" y1="598.28" x2="1103.49" y2="598.28"/>
				<line class="st2" x1="1016.01" y1="608.14" x2="1103.49" y2="608.14"/>
				<line class="st2" x1="1016.01" y1="617.99" x2="1103.49" y2="617.99"/>
				<line class="st2" x1="1016.01" y1="627.85" x2="1103.49" y2="627.85"/>
				<line class="st2" x1="1016.01" y1="637.71" x2="1103.49" y2="637.71"/>
				<line class="st2" x1="1016.01" y1="647.57" x2="1103.49" y2="647.57"/>
				<line class="st2" x1="1016.01" y1="657.43" x2="1103.49" y2="657.43"/>
				<line class="st2" x1="1016.01" y1="667.29" x2="1103.49" y2="667.29"/>
				<line class="st2" x1="1016.01" y1="677.15" x2="1103.49" y2="677.15"/>
				<line class="st2" x1="1016.01" y1="687.01" x2="1103.49" y2="687.01"/>
			</g>
		</g>
		<g>
			<defs>
				<path id="SVGID_5_" d="M1060.51,488.72c-25.26,0-44.49,13.2-45.62,13.57v33.56h45.62h45.62V502.3
					C1105,501.92,1085.77,488.72,1060.51,488.72z"/>
			</defs>
			<clipPath id="SVGID_6_">
				<use xlink:href="#SVGID_5_"  style="overflow:visible;"/>
			</clipPath>
			<g class="st10">
				<line class="st2" x1="1016.01" y1="498.23" x2="1104.91" y2="498.23"/>
				<line class="st2" x1="1016.01" y1="507.12" x2="1104.91" y2="507.12"/>
				<line class="st2" x1="1016.01" y1="516" x2="1104.91" y2="516"/>
				<line class="st2" x1="1016.01" y1="524.89" x2="1104.91" y2="524.89"/>
				<line class="st2" x1="1016.01" y1="533.77" x2="1104.91" y2="533.77"/>
			</g>
			<g class="st10">
				<line class="st2" x1="1065.26" y1="502.51" x2="1093.42" y2="502.51"/>
				<line class="st2" x1="1065.26" y1="511.45" x2="1093.42" y2="511.45"/>
				<line class="st2" x1="1065.26" y1="520.38" x2="1093.42" y2="520.38"/>
				<line class="st2" x1="1065.26" y1="529.31" x2="1093.42" y2="529.31"/>
			</g>
			<g class="st10">
				<line class="st2" x1="1026.24" y1="502.51" x2="1054.4" y2="502.51"/>
				<line class="st2" x1="1026.24" y1="511.45" x2="1054.4" y2="511.45"/>
				<line class="st2" x1="1026.24" y1="520.38" x2="1054.4" y2="520.38"/>
				<line class="st2" x1="1026.24" y1="529.31" x2="1054.4" y2="529.31"/>
			</g>
		</g>
		<path class="st9" d="M1060.51,488.72c-25.26,0-44.49,13.2-45.62,13.57v33.56h45.62h45.62V502.3
			C1105,501.92,1085.77,488.72,1060.51,488.72z"/>
		<g>
			<defs>
				<path id="SVGID_7_" d="M860.98,490.28c-25.26,0-44.49,13.2-45.62,13.57v33.56h45.62h45.62v-33.56
					C905.48,503.47,886.25,490.28,860.98,490.28z"/>
			</defs>
			<clipPath id="SVGID_8_">
				<use xlink:href="#SVGID_7_"  style="overflow:visible;"/>
			</clipPath>
			<g class="st11">
				<line class="st2" x1="816.49" y1="499.78" x2="905.38" y2="499.78"/>
				<line class="st2" x1="816.49" y1="508.67" x2="905.38" y2="508.67"/>
				<line class="st2" x1="816.49" y1="517.55" x2="905.38" y2="517.55"/>
				<line class="st2" x1="816.49" y1="526.44" x2="905.38" y2="526.44"/>
				<line class="st2" x1="816.49" y1="535.32" x2="905.38" y2="535.32"/>
			</g>
			<g class="st11">
				<line class="st2" x1="865.74" y1="504.06" x2="893.89" y2="504.06"/>
				<line class="st2" x1="865.74" y1="513" x2="893.89" y2="513"/>
				<line class="st2" x1="865.74" y1="521.93" x2="893.89" y2="521.93"/>
				<line class="st2" x1="865.74" y1="530.86" x2="893.89" y2="530.86"/>
			</g>
			<g class="st11">
				<line class="st2" x1="826.72" y1="504.06" x2="854.88" y2="504.06"/>
				<line class="st2" x1="826.72" y1="513" x2="854.88" y2="513"/>
				<line class="st2" x1="826.72" y1="521.93" x2="854.88" y2="521.93"/>
				<line class="st2" x1="826.72" y1="530.86" x2="854.88" y2="530.86"/>
			</g>
		</g>
		<path class="st9" d="M860.98,490.26c-25.26,0-44.49,13.2-45.62,13.57v33.56h45.62h45.62v-33.56
			C905.48,503.46,886.25,490.26,860.98,490.26z"/>
		<path class="st1" d="M860.68,205.43c-10.58,0-21.18,1.96-31.13,5.57c-11.26,4.09-20,11.09-32.53,11.09h-4.97v36.99h9.8v118.59"/>
		<path class="st1" d="M860.68,205.43c9.74,0,19.44,1.68,28.68,4.73c11.95,3.94,21.97,11.93,34.98,11.93h4.97v36.99h-9.8V377.3"/>
		<polygon class="st1" points="855.03,220.63 850.5,183.3 868.98,183.3 865.21,220.63 		"/>
		<rect x="790.93" y="377.86" class="st1" width="144.42" height="23.47"/>
		<g>
			<line class="st2" x1="816.19" y1="291.11" x2="903.67" y2="291.11"/>
			<line class="st2" x1="816.19" y1="300" x2="903.67" y2="300"/>
			<line class="st2" x1="816.19" y1="308.88" x2="903.67" y2="308.88"/>
			<line class="st2" x1="816.19" y1="317.77" x2="903.67" y2="317.77"/>
			<line class="st2" x1="816.19" y1="326.65" x2="903.67" y2="326.65"/>
			<line class="st2" x1="816.19" y1="335.54" x2="903.67" y2="335.54"/>
			<line class="st2" x1="816.19" y1="344.42" x2="903.67" y2="344.42"/>
			<line class="st2" x1="816.19" y1="353.31" x2="903.67" y2="353.31"/>
			<line class="st2" x1="816.19" y1="362.19" x2="903.67" y2="362.19"/>
			<line class="st2" x1="816.19" y1="371.07" x2="903.67" y2="371.07"/>
		</g>
		<g>
			<line class="st3" x1="826.37" y1="286.69" x2="854.9" y2="286.69"/>
			<line class="st3" x1="826.37" y1="295.58" x2="854.9" y2="295.58"/>
			<line class="st3" x1="826.37" y1="304.46" x2="854.9" y2="304.46"/>
			<line class="st3" x1="826.37" y1="313.35" x2="854.9" y2="313.35"/>
			<line class="st3" x1="826.37" y1="322.23" x2="854.9" y2="322.23"/>
			<line class="st3" x1="826.37" y1="331.12" x2="854.9" y2="331.12"/>
			<line class="st3" x1="826.37" y1="340" x2="854.9" y2="340"/>
			<line class="st3" x1="826.37" y1="348.89" x2="854.9" y2="348.89"/>
			<line class="st3" x1="826.37" y1="357.77" x2="854.9" y2="357.77"/>
			<line class="st3" x1="826.37" y1="366.65" x2="854.9" y2="366.65"/>
		</g>
		<g>
			<line class="st4" x1="864.94" y1="286.69" x2="893.54" y2="286.69"/>
			<line class="st4" x1="864.94" y1="295.58" x2="893.54" y2="295.58"/>
			<line class="st4" x1="864.94" y1="304.46" x2="893.54" y2="304.46"/>
			<line class="st4" x1="864.94" y1="313.35" x2="893.54" y2="313.35"/>
			<line class="st4" x1="864.94" y1="322.23" x2="893.54" y2="322.23"/>
			<line class="st4" x1="864.94" y1="331.12" x2="893.54" y2="331.12"/>
			<line class="st4" x1="864.94" y1="340" x2="893.54" y2="340"/>
			<line class="st4" x1="864.94" y1="348.89" x2="893.54" y2="348.89"/>
			<line class="st4" x1="864.94" y1="357.77" x2="893.54" y2="357.77"/>
			<line class="st4" x1="864.94" y1="366.65" x2="893.54" y2="366.65"/>
		</g>
		<g>
			<defs>
				<path id="SVGID_9_" d="M860.68,221c-25.26,0-44.49,13.2-45.62,13.57v33.56h45.62h45.62v-33.56
					C905.18,234.2,885.95,221,860.68,221z"/>
			</defs>
			<clipPath id="SVGID_10_">
				<use xlink:href="#SVGID_9_"  style="overflow:visible;"/>
			</clipPath>
			<g class="st12">
				<line class="st2" x1="816.19" y1="223.12" x2="905.08" y2="223.12"/>
				<line class="st6" x1="816.19" y1="232.01" x2="905.08" y2="232.01"/>
				<line class="st6" x1="816.19" y1="240.89" x2="905.08" y2="240.89"/>
				<line class="st6" x1="816.19" y1="249.78" x2="905.08" y2="249.78"/>
				<line class="st2" x1="816.19" y1="258.66" x2="905.08" y2="258.66"/>
				<g>
					<line class="st7" x1="826.3" y1="262.9" x2="854.86" y2="262.9"/>
					<line class="st7" x1="826.3" y1="236.45" x2="854.86" y2="236.45"/>
					<line class="st7" x1="826.3" y1="245.33" x2="854.86" y2="245.33"/>
					<line class="st7" x1="826.3" y1="254.22" x2="854.86" y2="254.22"/>
				</g>
				<g>
					<line class="st7" x1="864.98" y1="262.9" x2="893.54" y2="262.9"/>
					<line class="st7" x1="864.98" y1="236.45" x2="893.54" y2="236.45"/>
					<line class="st7" x1="864.98" y1="245.33" x2="893.54" y2="245.33"/>
					<line class="st7" x1="864.98" y1="254.22" x2="893.54" y2="254.22"/>
				</g>
				<line class="st8" x1="816.19" y1="291.11" x2="903.67" y2="291.11"/>
				<line class="st8" x1="816.19" y1="300" x2="903.67" y2="300"/>
				<line class="st8" x1="816.19" y1="308.88" x2="903.67" y2="308.88"/>
				<line class="st8" x1="816.19" y1="317.77" x2="903.67" y2="317.77"/>
				<line class="st8" x1="816.19" y1="326.65" x2="903.67" y2="326.65"/>
				<line class="st8" x1="816.19" y1="335.54" x2="903.67" y2="335.54"/>
				<line class="st8" x1="816.19" y1="344.42" x2="903.67" y2="344.42"/>
				<line class="st8" x1="816.19" y1="353.31" x2="903.67" y2="353.31"/>
				<line class="st8" x1="816.19" y1="362.19" x2="903.67" y2="362.19"/>
				<line class="st8" x1="816.19" y1="371.07" x2="903.67" y2="371.07"/>
			</g>
		</g>
		<polyline class="st9" points="815.06,378.24 815.06,282.09 904.8,282.09 904.8,377.48 		"/>
		<path class="st9" d="M860.68,221c-25.26,0-44.49,13.2-45.62,13.57v33.56h45.62h45.62v-33.56C905.18,234.2,885.95,221,860.68,221z"
			/>
		<path class="st1" d="M1060.51,794.14c-10.58,0-21.18,1.96-31.12,5.57c-11.26,4.09-20,11.09-32.53,11.09h-4.97v36.99h9.8v118.59"/>
		<path class="st1" d="M1060.51,794.14c9.74,0,19.44,1.68,28.68,4.73c11.95,3.94,21.97,11.93,34.98,11.93h4.97v36.99h-9.8V966"/>
		<polygon class="st1" points="1054.85,809.33 1050.33,772 1068.8,772 1065.03,809.33 		"/>
		<rect x="990.75" y="966.57" class="st1" width="144.42" height="23.47"/>
		<g>
			<line class="st2" x1="1016.01" y1="879.82" x2="1103.49" y2="879.82"/>
			<line class="st2" x1="1016.01" y1="888.71" x2="1103.49" y2="888.71"/>
			<line class="st2" x1="1016.01" y1="897.59" x2="1103.49" y2="897.59"/>
			<line class="st2" x1="1016.01" y1="906.48" x2="1103.49" y2="906.48"/>
			<line class="st2" x1="1016.01" y1="915.36" x2="1103.49" y2="915.36"/>
			<line class="st2" x1="1016.01" y1="924.24" x2="1103.49" y2="924.24"/>
			<line class="st2" x1="1016.01" y1="933.13" x2="1103.49" y2="933.13"/>
			<line class="st2" x1="1016.01" y1="942.01" x2="1103.49" y2="942.01"/>
			<line class="st2" x1="1016.01" y1="950.9" x2="1103.49" y2="950.9"/>
			<line class="st2" x1="1016.01" y1="959.78" x2="1103.49" y2="959.78"/>
		</g>
		<g>
			<line class="st3" x1="1026.19" y1="875.4" x2="1054.72" y2="875.4"/>
			<line class="st3" x1="1026.19" y1="884.29" x2="1054.72" y2="884.29"/>
			<line class="st3" x1="1026.19" y1="893.17" x2="1054.72" y2="893.17"/>
			<line class="st3" x1="1026.19" y1="902.06" x2="1054.72" y2="902.06"/>
			<line class="st3" x1="1026.19" y1="910.94" x2="1054.72" y2="910.94"/>
			<line class="st3" x1="1026.19" y1="919.82" x2="1054.72" y2="919.82"/>
			<line class="st3" x1="1026.19" y1="928.71" x2="1054.72" y2="928.71"/>
			<line class="st3" x1="1026.19" y1="937.59" x2="1054.72" y2="937.59"/>
			<line class="st3" x1="1026.19" y1="946.48" x2="1054.72" y2="946.48"/>
			<line class="st3" x1="1026.19" y1="955.36" x2="1054.72" y2="955.36"/>
		</g>
		<g>
			<line class="st4" x1="1064.77" y1="875.4" x2="1093.36" y2="875.4"/>
			<line class="st4" x1="1064.77" y1="884.29" x2="1093.36" y2="884.29"/>
			<line class="st4" x1="1064.77" y1="893.17" x2="1093.36" y2="893.17"/>
			<line class="st4" x1="1064.77" y1="902.06" x2="1093.36" y2="902.06"/>
			<line class="st4" x1="1064.77" y1="910.94" x2="1093.36" y2="910.94"/>
			<line class="st4" x1="1064.77" y1="919.82" x2="1093.36" y2="919.82"/>
			<line class="st4" x1="1064.77" y1="928.71" x2="1093.36" y2="928.71"/>
			<line class="st4" x1="1064.77" y1="937.59" x2="1093.36" y2="937.59"/>
			<line class="st4" x1="1064.77" y1="946.48" x2="1093.36" y2="946.48"/>
			<line class="st4" x1="1064.77" y1="955.36" x2="1093.36" y2="955.36"/>
		</g>
		<g>
			<defs>
				<path id="SVGID_11_" d="M1060.51,809.71c-25.26,0-44.49,13.2-45.62,13.57v33.56h45.62h45.62v-33.56
					C1105,822.91,1085.77,809.71,1060.51,809.71z"/>
			</defs>
			<clipPath id="SVGID_12_">
				<use xlink:href="#SVGID_11_"  style="overflow:visible;"/>
			</clipPath>
			<g class="st13">
				<line class="st2" x1="1016.01" y1="811.83" x2="1104.91" y2="811.83"/>
				<line class="st6" x1="1016.01" y1="820.72" x2="1104.91" y2="820.72"/>
				<line class="st6" x1="1016.01" y1="829.6" x2="1104.91" y2="829.6"/>
				<line class="st6" x1="1016.01" y1="838.48" x2="1104.91" y2="838.48"/>
				<line class="st2" x1="1016.01" y1="847.37" x2="1104.91" y2="847.37"/>
				<g>
					<line class="st7" x1="1026.12" y1="851.61" x2="1054.68" y2="851.61"/>
					<line class="st7" x1="1026.12" y1="825.16" x2="1054.68" y2="825.16"/>
					<line class="st7" x1="1026.12" y1="834.04" x2="1054.68" y2="834.04"/>
					<line class="st7" x1="1026.12" y1="842.93" x2="1054.68" y2="842.93"/>
				</g>
				<g>
					<line class="st7" x1="1064.8" y1="851.61" x2="1093.36" y2="851.61"/>
					<line class="st7" x1="1064.8" y1="825.16" x2="1093.36" y2="825.16"/>
					<line class="st7" x1="1064.8" y1="834.04" x2="1093.36" y2="834.04"/>
					<line class="st7" x1="1064.8" y1="842.93" x2="1093.36" y2="842.93"/>
				</g>
				<line class="st8" x1="1016.01" y1="879.82" x2="1103.49" y2="879.82"/>
				<line class="st8" x1="1016.01" y1="888.71" x2="1103.49" y2="888.71"/>
				<line class="st8" x1="1016.01" y1="897.59" x2="1103.49" y2="897.59"/>
				<line class="st8" x1="1016.01" y1="906.48" x2="1103.49" y2="906.48"/>
				<line class="st8" x1="1016.01" y1="915.36" x2="1103.49" y2="915.36"/>
				<line class="st8" x1="1016.01" y1="924.24" x2="1103.49" y2="924.24"/>
				<line class="st8" x1="1016.01" y1="933.13" x2="1103.49" y2="933.13"/>
				<line class="st8" x1="1016.01" y1="942.01" x2="1103.49" y2="942.01"/>
				<line class="st8" x1="1016.01" y1="950.9" x2="1103.49" y2="950.9"/>
				<line class="st8" x1="1016.01" y1="959.78" x2="1103.49" y2="959.78"/>
			</g>
		</g>
		<polyline class="st9" points="1014.88,966.95 1014.88,870.8 1104.62,870.8 1104.62,966.19 		"/>
		<path class="st9" d="M1060.51,809.71c-25.26,0-44.49,13.2-45.62,13.57v33.56h45.62h45.62v-33.56
			C1105,822.91,1085.77,809.71,1060.51,809.71z"/>
		<path class="st1" d="M860.68,794.14c-10.58,0-21.18,1.96-31.13,5.57c-11.26,4.09-20,11.09-32.53,11.09h-4.97v36.99h9.8v118.59"/>
		<path class="st1" d="M860.68,794.14c9.74,0,19.44,1.68,28.68,4.73c11.95,3.94,21.97,11.93,34.98,11.93h4.97v36.99h-9.8V966"/>
		<polygon class="st1" points="855.03,809.33 850.5,772 868.98,772 865.21,809.33 		"/>
		<rect x="790.93" y="966.57" class="st1" width="144.42" height="23.47"/>
		<g>
			<line class="st2" x1="816.19" y1="879.82" x2="903.67" y2="879.82"/>
			<line class="st2" x1="816.19" y1="888.71" x2="903.67" y2="888.71"/>
			<line class="st2" x1="816.19" y1="897.59" x2="903.67" y2="897.59"/>
			<line class="st2" x1="816.19" y1="906.48" x2="903.67" y2="906.48"/>
			<line class="st2" x1="816.19" y1="915.36" x2="903.67" y2="915.36"/>
			<line class="st2" x1="816.19" y1="924.24" x2="903.67" y2="924.24"/>
			<line class="st2" x1="816.19" y1="933.13" x2="903.67" y2="933.13"/>
			<line class="st2" x1="816.19" y1="942.01" x2="903.67" y2="942.01"/>
			<line class="st2" x1="816.19" y1="950.9" x2="903.67" y2="950.9"/>
			<line class="st2" x1="816.19" y1="959.78" x2="903.67" y2="959.78"/>
		</g>
		<g>
			<line class="st3" x1="826.37" y1="875.4" x2="854.9" y2="875.4"/>
			<line class="st3" x1="826.37" y1="884.29" x2="854.9" y2="884.29"/>
			<line class="st3" x1="826.37" y1="893.17" x2="854.9" y2="893.17"/>
			<line class="st3" x1="826.37" y1="902.06" x2="854.9" y2="902.06"/>
			<line class="st3" x1="826.37" y1="910.94" x2="854.9" y2="910.94"/>
			<line class="st3" x1="826.37" y1="919.82" x2="854.9" y2="919.82"/>
			<line class="st3" x1="826.37" y1="928.71" x2="854.9" y2="928.71"/>
			<line class="st3" x1="826.37" y1="937.59" x2="854.9" y2="937.59"/>
			<line class="st3" x1="826.37" y1="946.48" x2="854.9" y2="946.48"/>
			<line class="st3" x1="826.37" y1="955.36" x2="854.9" y2="955.36"/>
		</g>
		<g>
			<line class="st4" x1="864.94" y1="875.4" x2="893.54" y2="875.4"/>
			<line class="st4" x1="864.94" y1="884.29" x2="893.54" y2="884.29"/>
			<line class="st4" x1="864.94" y1="893.17" x2="893.54" y2="893.17"/>
			<line class="st4" x1="864.94" y1="902.06" x2="893.54" y2="902.06"/>
			<line class="st4" x1="864.94" y1="910.94" x2="893.54" y2="910.94"/>
			<line class="st4" x1="864.94" y1="919.82" x2="893.54" y2="919.82"/>
			<line class="st4" x1="864.94" y1="928.71" x2="893.54" y2="928.71"/>
			<line class="st4" x1="864.94" y1="937.59" x2="893.54" y2="937.59"/>
			<line class="st4" x1="864.94" y1="946.48" x2="893.54" y2="946.48"/>
			<line class="st4" x1="864.94" y1="955.36" x2="893.54" y2="955.36"/>
		</g>
		<g>
			<defs>
				<path id="SVGID_13_" d="M860.68,809.71c-25.26,0-44.49,13.2-45.62,13.57v33.56h45.62h45.62v-33.56
					C905.18,822.91,885.95,809.71,860.68,809.71z"/>
			</defs>
			<clipPath id="SVGID_14_">
				<use xlink:href="#SVGID_13_"  style="overflow:visible;"/>
			</clipPath>
			<g class="st14">
				<line class="st2" x1="816.19" y1="811.83" x2="905.08" y2="811.83"/>
				<line class="st6" x1="816.19" y1="820.72" x2="905.08" y2="820.72"/>
				<line class="st6" x1="816.19" y1="829.6" x2="905.08" y2="829.6"/>
				<line class="st6" x1="816.19" y1="838.48" x2="905.08" y2="838.48"/>
				<line class="st2" x1="816.19" y1="847.37" x2="905.08" y2="847.37"/>
				<g>
					<line class="st7" x1="826.3" y1="851.61" x2="854.86" y2="851.61"/>
					<line class="st7" x1="826.3" y1="825.16" x2="854.86" y2="825.16"/>
					<line class="st7" x1="826.3" y1="834.04" x2="854.86" y2="834.04"/>
					<line class="st7" x1="826.3" y1="842.93" x2="854.86" y2="842.93"/>
				</g>
				<g>
					<line class="st7" x1="864.98" y1="851.61" x2="893.54" y2="851.61"/>
					<line class="st7" x1="864.98" y1="825.16" x2="893.54" y2="825.16"/>
					<line class="st7" x1="864.98" y1="834.04" x2="893.54" y2="834.04"/>
					<line class="st7" x1="864.98" y1="842.93" x2="893.54" y2="842.93"/>
				</g>
				<line class="st8" x1="816.19" y1="879.82" x2="903.67" y2="879.82"/>
				<line class="st8" x1="816.19" y1="888.71" x2="903.67" y2="888.71"/>
				<line class="st8" x1="816.19" y1="897.59" x2="903.67" y2="897.59"/>
				<line class="st8" x1="816.19" y1="906.48" x2="903.67" y2="906.48"/>
				<line class="st8" x1="816.19" y1="915.36" x2="903.67" y2="915.36"/>
				<line class="st8" x1="816.19" y1="924.24" x2="903.67" y2="924.24"/>
				<line class="st8" x1="816.19" y1="933.13" x2="903.67" y2="933.13"/>
				<line class="st8" x1="816.19" y1="942.01" x2="903.67" y2="942.01"/>
				<line class="st8" x1="816.19" y1="950.9" x2="903.67" y2="950.9"/>
				<line class="st8" x1="816.19" y1="959.78" x2="903.67" y2="959.78"/>
			</g>
		</g>
		<polyline class="st9" points="815.06,966.95 815.06,870.8 904.8,870.8 904.8,966.19 		"/>
		<path class="st9" d="M860.68,809.71c-25.26,0-44.49,13.2-45.62,13.57v33.56h45.62h45.62v-33.56
			C905.18,822.91,885.95,809.71,860.68,809.71z"/>
		<g>
			<path class="st2" d="M1093.36,562.72"/>
			<path class="st2" d="M1065.15,562.72"/>
			<g>
				<line class="st2" x1="1065.15" y1="553.84" x2="1093.36" y2="553.84"/>
				<line class="st2" x1="1065.15" y1="563.69" x2="1093.36" y2="563.69"/>
				<line class="st2" x1="1065.15" y1="573.55" x2="1093.36" y2="573.55"/>
				<line class="st2" x1="1065.15" y1="583.41" x2="1093.36" y2="583.41"/>
				<line class="st2" x1="1065.15" y1="593.26" x2="1093.36" y2="593.26"/>
				<line class="st2" x1="1065.15" y1="603.12" x2="1093.36" y2="603.12"/>
				<line class="st2" x1="1065.15" y1="612.98" x2="1093.36" y2="612.98"/>
				<line class="st2" x1="1065.15" y1="622.84" x2="1093.36" y2="622.84"/>
				<line class="st2" x1="1065.15" y1="632.69" x2="1093.36" y2="632.69"/>
				<line class="st2" x1="1065.15" y1="642.55" x2="1093.36" y2="642.55"/>
				<line class="st2" x1="1065.15" y1="652.41" x2="1093.36" y2="652.41"/>
				<line class="st2" x1="1065.15" y1="662.27" x2="1093.36" y2="662.27"/>
				<line class="st2" x1="1065.15" y1="672.12" x2="1093.36" y2="672.12"/>
				<line class="st2" x1="1065.15" y1="681.98" x2="1093.36" y2="681.98"/>
				<line class="st2" x1="1065.15" y1="691.84" x2="1093.36" y2="691.84"/>
			</g>
		</g>
		<g>
			<path class="st2" d="M1054.79,562.72"/>
			<path class="st2" d="M1026.58,562.72"/>
			<g>
				<line class="st2" x1="1026.58" y1="553.84" x2="1054.79" y2="553.84"/>
				<line class="st2" x1="1026.58" y1="563.69" x2="1054.79" y2="563.69"/>
				<line class="st2" x1="1026.58" y1="573.55" x2="1054.79" y2="573.55"/>
				<line class="st2" x1="1026.58" y1="583.41" x2="1054.79" y2="583.41"/>
				<line class="st2" x1="1026.58" y1="593.26" x2="1054.79" y2="593.26"/>
				<line class="st2" x1="1026.58" y1="603.12" x2="1054.79" y2="603.12"/>
				<line class="st2" x1="1026.58" y1="612.98" x2="1054.79" y2="612.98"/>
				<line class="st2" x1="1026.58" y1="622.84" x2="1054.79" y2="622.84"/>
				<line class="st2" x1="1026.58" y1="632.69" x2="1054.79" y2="632.69"/>
				<line class="st2" x1="1026.58" y1="642.55" x2="1054.79" y2="642.55"/>
				<line class="st2" x1="1026.58" y1="652.41" x2="1054.79" y2="652.41"/>
				<line class="st2" x1="1026.58" y1="662.27" x2="1054.79" y2="662.27"/>
				<line class="st2" x1="1026.58" y1="672.12" x2="1054.79" y2="672.12"/>
				<line class="st2" x1="1026.58" y1="681.98" x2="1054.79" y2="681.98"/>
				<line class="st2" x1="1026.58" y1="691.84" x2="1054.79" y2="691.84"/>
			</g>
		</g>
		<g>
			<g>
				<path class="st15" d="M903.87,567.35"/>
			</g>
			<g>
				<path class="st15" d="M816.58,567.35"/>
			</g>
			<g>
				<line class="st15" x1="816.58" y1="558.46" x2="903.87" y2="558.46"/>
				<line class="st15" x1="816.58" y1="568.32" x2="903.87" y2="568.32"/>
				<line class="st15" x1="816.58" y1="578.18" x2="903.87" y2="578.18"/>
				<path class="st15" d="M903.87,686.64"/>
				<path class="st15" d="M816.58,686.64"/>
			</g>
		</g>
		<g>
			<g>
				<path class="st15" d="M893.76,562.35"/>
			</g>
			<g>
				<path class="st15" d="M865.61,562.35"/>
			</g>
			<g>
				<line class="st15" x1="865.61" y1="553.46" x2="893.76" y2="553.46"/>
				<line class="st15" x1="865.61" y1="563.32" x2="893.76" y2="563.32"/>
				<line class="st15" x1="865.61" y1="573.18" x2="893.76" y2="573.18"/>
			</g>
		</g>
		<g>
			<g>
				<path class="st15" d="M855.27,562.35"/>
			</g>
			<g>
				<path class="st15" d="M827.12,562.35"/>
			</g>
			<g>
				<line class="st15" x1="827.12" y1="553.46" x2="855.27" y2="553.46"/>
				<line class="st15" x1="827.12" y1="563.32" x2="855.27" y2="563.32"/>
				<line class="st15" x1="827.12" y1="573.18" x2="855.27" y2="573.18"/>
			</g>
		</g>
	</g>
	<g>
		<defs>
			<polyline id="SVGID_15_" points="809.66,695.63 809.66,543.79 903.91,543.79 903.91,695.41 			"/>
		</defs>
		<clipPath id="SVGID_16_">
			<use xlink:href="#SVGID_15_"  style="overflow:visible;"/>
		</clipPath>
		<g class="st16">
			<path class="st17" d="M829.41,585.7l7.66,27.14c0.23,0.75,0.75,1.37,1.45,1.72l4.03,2.21l-4.42,10.32l-9.75-6.06
				c-1.66-0.98-2.73-2.71-2.85-4.63l-2.09-29.96"/>
			<path class="st18" d="M838.61,628.63l-10.79-6.7c-1.94-1.14-3.2-3.18-3.35-5.45l-2.09-29.95l2.12-0.62l2.07,30.43
				c0.1,1.58,0.98,3,2.34,3.8l8.74,5.43l3.56-8.32l-3.2-1.75c-0.91-0.46-1.64-1.32-1.95-2.33l-7.77-27.6l2.13-0.13l7.66,27.14
				c0.14,0.45,0.47,0.84,0.91,1.07l4.9,2.69L838.61,628.63z"/>
		</g>
		<g class="st16">
			<circle class="st19" cx="868.04" cy="606.76" r="12.21"/>
			<path class="st20" d="M857.12,600.93c0,0,4.57-5.22,7.36-5.91c0,0,1.89,11.46,12.58,11.45c0,0,0.69,5.66-3.6,5.1l0.67,11.02
				c0,0,10.52,1.31,11.26-12.45c0.5-9.26-7.36-16.78-12.56-20.72c-3.46-2.62-7.84-3.84-12.11-3.07c-2.56,0.46-4.85,1.63-5.19,4.28
				C854.7,596.97,857.12,600.93,857.12,600.93z"/>
			<circle class="st20" cx="883.13" cy="591.87" r="7.5"/>
		</g>
		<path class="st21" d="M865.78,622.97c0.13,3.16,1.6,5.01,4.28,4.9s4.24-2.15,4.1-5.31l7.23-0.08c3-0.04,5.89,1.08,8.07,3.13
			l11.16,10.5l-8.32,13.35l-4.16-4.33l3.12,22.89l-31.56,4.16l-2.43-29.65L838.9,630.4l5.55-12.83l11.64,4.43
			c2.83,1.08,5.88,1.41,8.88,0.98H865.78z"/>
		<line class="st21" x1="860.7" y1="672.36" x2="855.5" y2="724.77"/>
		<path class="st22" d="M890.51,714.93"/>
		<path class="st21" d="M891.26,668.02c0,0,7.67,9.93,9.88,25.01c2.21,15.09,4.68,27.7,4.68,27.7"/>
		<path class="st23" d="M918.59,671.2c-9.23-5.33-23.36-21.34-23.88-21.47l6.05-9.72l13.62,15.6L918.59,671.2z"/>
		<line class="st21" x1="865.78" y1="622.97" x2="865.78" y2="618.71"/>
		<path class="st24" d="M822.97,584.18c0,0-2.55-2.05-2.63-4.11c-0.08-2.05,1.15-2.14,1.15-2.14s-0.25-1.89,1.72-1.89
			c0,0,0.41-2.3,2.3-0.49s1.89,1.81,1.89,1.81s0.41-1.72,1.64,0.33c1.23,2.05,0.49,6.08,0.49,6.08l-0.94,3.05l-4.02-0.06
			L822.97,584.18z"/>
	</g>
	<g>
		<defs>
			<path id="SVGID_17_" d="M815.36,697.42V551.35h89.74v145.31L815.36,697.42z M1104.62,695.57V549.81h-89.74v146.52L1104.62,695.57
				z"/>
		</defs>
		<clipPath id="SVGID_18_">
			<use xlink:href="#SVGID_17_"  style="overflow:visible;"/>
		</clipPath>
		
			<linearGradient id="SVGID_19_" gradientUnits="userSpaceOnUse" x1="-5353.064" y1="5060.2993" x2="-5353.064" y2="4664.042" gradientTransform="matrix(-1 0 0 -1 -4380.1543 5681.1108)">
			<stop  offset="0.1977" style="stop-color:#FFCC33"/>
			<stop  offset="0.8337" style="stop-color:#F45E39"/>
		</linearGradient>
		<circle class="st25" cx="972.91" cy="818.94" r="198.13"/>
	</g>
	<g>
		<defs>
			<rect id="SVGID_20_" x="802.16" y="649.97" width="40.16" height="45.55"/>
		</defs>
		<clipPath id="SVGID_21_">
			<use xlink:href="#SVGID_20_"  style="overflow:visible;"/>
		</clipPath>
		<g class="st26">
			<path class="st27" d="M820.66,684.86c0,0-13.42-8.07-14.6-22.49c0,0,6.44,11.33,12.79,14.87c0,0-5.87-10.65-6.32-16.27
				c0,0,4.96,9.74,8.68,13.37c0,0-3.38-12.66-2.74-17.73c0,0,2.83,6.4,5.64,15.29c0.09-0.45,2.57-13.3,7.28-17.38
				c0,0-0.66,12.85-3.93,19.19c0,0,4.69-5.04,7.59-9.94c0,0-1.15,9.3-5.33,12.93c0,0,8.98-6.44,11.06-13.51
				c0,0,0.91,13.51-12.42,22.03L820.66,684.86z"/>
			<path class="st28" d="M827.97,684.04h-6.84c-0.92,0-1.66,0.74-1.66,1.66v10.28c0,0.92,0.74,1.66,1.66,1.66h6.84
				c0.92,0,1.66-0.74,1.66-1.66V685.7C829.63,684.78,828.89,684.04,827.97,684.04z"/>
		</g>
	</g>
</g>
</svg>
