<?xml version="1.0" encoding="utf-8"?>
<!-- Generator: Adobe Illustrator 25.0.1, SVG Export Plug-In . SVG Version: 6.00 Build 0)  -->
<svg version="1.1" id="Layer_1" xmlns="http://www.w3.org/2000/svg" xmlns:xlink="http://www.w3.org/1999/xlink" x="0px" y="0px"
	 viewBox="0 0 500 417.6" style="enable-background:new 0 0 500 417.6;" xml:space="preserve">
<style type="text/css">
	.st0{fill:#FAFAC6;}
</style>
<g>
	<path class="st0" d="M160.5,404.4c181.8,0,281-150.4,281-281c0-4.3,0-8.5-0.3-12.8c19.3-14,36.1-31.3,49.4-51.1
		c-17.8,7.8-36.9,13-56.7,15.5c20.3-12.3,36.1-31.6,43.4-54.7c-19.1,11.3-40.1,19.6-62.7,24.1c-18.1-19.3-43.6-31.1-72.2-31.1
		c-54.7,0-98.8,44.1-98.8,98.8c0,7.8,0.8,15.3,2.5,22.6c-82-4-154.9-43.4-203.6-103.3C34.1,45.9,29.4,62.9,29.4,81
		c0,34.3,17.5,64.4,43.9,82.2c-16.3-0.5-31.3-5-44.6-12.3c0,0.5,0,0.8,0,1.3c0,47.9,34.1,87.7,79.2,96.8c-8.3,2.3-17,3.5-26.1,3.5
		c-6.3,0-12.5-0.8-18.6-1.8c12.5,39.4,49.1,67.7,92.3,68.7c-33.8,26.6-76.5,42.4-122.6,42.4c-8,0-15.8-0.5-23.6-1.3
		C52.7,388.1,104.6,404.4,160.5,404.4"/>
</g>
</svg>
