<?xml version="1.0" encoding="utf-8"?>
<!-- Generator: Adobe Illustrator 25.0.0, SVG Export Plug-In . SVG Version: 6.00 Build 0)  -->
<svg version="1.1" id="Layer_1" xmlns="http://www.w3.org/2000/svg" xmlns:xlink="http://www.w3.org/1999/xlink" x="0px" y="0px"
	 viewBox="0 0 97.1 97.1" style="enable-background:new 0 0 97.1 97.1;" xml:space="preserve">
<style type="text/css">
	.st0{fill:#FFFFFF;}
</style>
<g>
	<path class="st0" d="M48.6,24.8c-13.1,0-23.8,10.7-23.8,23.8s10.7,23.8,23.8,23.8s23.8-10.7,23.8-23.8S61.7,24.8,48.6,24.8z
		 M48.6,68.4c-10.9,0-19.8-8.9-19.8-19.8s8.9-19.8,19.8-19.8s19.8,8.9,19.8,19.8S59.5,68.4,48.6,68.4z"/>
	<path class="st0" d="M48.4,17.7L48.4,17.7c1.1,0,2-0.9,2-2l0-12.6c0-1.1-0.9-2-2-2l0,0c-1.1,0-2,0.9-2,2l0,12.6
		C46.4,16.8,47.2,17.7,48.4,17.7z"/>
	<path class="st0" d="M23.7,26.9c0.4,0.4,0.9,0.6,1.4,0.6c0.5,0,1-0.2,1.4-0.6c0.8-0.8,0.8-2,0-2.8l-9-8.9c-0.8-0.8-2-0.8-2.8,0
		s-0.8,2,0,2.8L23.7,26.9z"/>
	<path class="st0" d="M17.7,48.8c0-1.1-0.9-2-2-2l0,0L3,46.8c-1.1,0-2,0.9-2,2s0.9,2,2,2l0,0l12.6,0C16.8,50.8,17.7,49.9,17.7,48.8z
		"/>
	<path class="st0" d="M24,70.6l-8.9,9c-0.8,0.8-0.8,2,0,2.8c0.4,0.4,0.9,0.6,1.4,0.6c0.5,0,1-0.2,1.4-0.6l8.9-9c0.8-0.8,0.8-2,0-2.8
		C26.1,69.8,24.8,69.8,24,70.6z"/>
	<path class="st0" d="M48.8,79.5L48.8,79.5c-1.1,0-2,0.9-2,2l0,12.6c0,1.1,0.9,2,2,2l0,0c1.1,0,2-0.9,2-2l0-12.6
		C50.8,80.3,49.9,79.5,48.8,79.5z"/>
	<path class="st0" d="M73.4,70.3c-0.8-0.8-2-0.8-2.8,0s-0.8,2,0,2.8l9,8.9c0.4,0.4,0.9,0.6,1.4,0.6c0.5,0,1-0.2,1.4-0.6
		c0.8-0.8,0.8-2,0-2.8L73.4,70.3z"/>
	<path class="st0" d="M94.1,46.3C94.1,46.3,94.1,46.3,94.1,46.3l-12.6,0c-1.1,0-2,0.9-2,2s0.9,2,2,2l0,0l12.6,0c1.1,0,2-0.9,2-2
		C96.1,47.2,95.2,46.3,94.1,46.3z"/>
	<path class="st0" d="M71.7,27.2c0.5,0,1-0.2,1.4-0.6l8.9-9c0.8-0.8,0.8-2,0-2.8s-2-0.8-2.8,0l-8.9,8.9c-0.8,0.8-0.8,2,0,2.8
		C70.6,27,71.2,27.2,71.7,27.2z"/>
	<path class="st0" d="M55.5,36.7H43.8c-1.1,0-2,0.9-2,2v20.6c0,1.1,0.9,2,2,2s2-0.9,2-2v-8.5h8.3c1.1,0,2-0.9,2-2s-0.9-2-2-2h-8.3
		v-6.2h9.7c1.1,0,2-0.9,2-2S56.6,36.7,55.5,36.7z"/>
</g>
</svg>
