<?xml version="1.0" encoding="utf-8"?>
<!-- Generator: Adobe Illustrator 24.1.2, SVG Export Plug-In . SVG Version: 6.00 Build 0)  -->
<svg version="1.1" id="Layer_1" xmlns="http://www.w3.org/2000/svg" xmlns:xlink="http://www.w3.org/1999/xlink" x="0px" y="0px"
	 viewBox="0 0 1920 1080" style="enable-background:new 0 0 1920 1080;" xml:space="preserve">
<style type="text/css">
	.st0{fill:#FAFAC6;}
</style>
<path class="st0" d="M1039.68,506.95c-0.39-8.53-1.75-14.36-3.73-19.46c-2.05-5.27-4.79-9.74-9.24-14.2
	c-4.46-4.46-8.93-7.2-14.2-9.25c-5.1-1.98-10.92-3.34-19.46-3.73c-8.55-0.39-11.28-0.48-33.05-0.48s-24.5,0.09-33.05,0.48
	c-8.53,0.39-14.36,1.74-19.46,3.73c-5.27,2.05-9.74,4.79-14.2,9.25c-4.45,4.46-7.19,8.93-9.24,14.2c-1.98,5.1-3.33,10.93-3.73,19.46
	c-0.39,8.55-0.48,11.28-0.48,33.05s0.09,24.5,0.48,33.05c0.39,8.53,1.75,14.36,3.73,19.46c2.05,5.27,4.79,9.74,9.24,14.2
	c4.46,4.46,10.35,7.2,15.62,9.24c5.1,1.98,10.92,3.34,19.46,3.73c5.36,0.24,8.44,0.37,15.35,0.43V564.4h-20.48v-23.32h20.48v-17.77
	c0-20.22,12.04-31.38,30.47-31.38c8.83,0,18.06,1.58,18.06,1.58v19.85h-10.17c-10.02,0-13.14,6.22-13.14,12.6v15.13h22.37
	l-3.57,23.32h-18.79v55.76c15.04-0.02,18.09-0.14,25.54-0.48c8.53-0.39,12.94-1.74,18.04-3.73c5.27-2.05,9.74-4.79,14.2-9.24
	c4.45-4.46,7.19-8.93,9.24-14.2c1.98-5.1,3.33-10.93,3.73-19.46c0.39-8.55,0.48-11.28,0.48-33.05S1040.07,515.5,1039.68,506.95z"/>
</svg>
