<svg enable-background="new 0 0 92.8 95.8" viewBox="0 0 92.8 95.8" xmlns="http://www.w3.org/2000/svg"><g fill="#f45e39"><path d="m90.9 70.8h-3.5c-.9 0-1.9-.2-2.8-.5l-2.2-.8c.6-.8 1.2-1.5 1.7-2.3 5-7.2 7.7-15.7 7.7-24.5.1-23.5-19.1-42.7-42.6-42.7s-42.8 19.2-42.8 42.8c0 8.5 2.5 16.7 7.1 23.5.6.9 1.2 1.8 1.8 2.6-1.5-.1-2.9.4-4.1 1.4-1.1 1-1.8 2.3-2 3.8l-2.9-.2s-.1 0-.2 0-.2 0-.3 0-.2 0-.3 0-.2 0-.3 0-.2 0-.2 0c-.1 0-.2 0-.3 0s-.2 0-.3.1c-.1 0-.2 0-.3.1-.1 0-.2.1-.2.1-.1 0-.2.1-.3.1s-.2.1-.2.1l-.2.1c-.1 0-.2.1-.2.1-.1 0-.2.1-.2.2-.1 0-.2.1-.2.2-.1.1-.2.1-.2.2-.1.1-.1.1-.2.2s-.1.1-.2.2l-.2.2c-.1.1-.1.1-.2.2-.3 0-.3 0-.4.1s-.1.2-.2.2c0 .1-.1.2-.2.2 0 .1-.1.2-.1.2 0 .1-.1.2-.2.3 0 .1-.1.2-.1.2 0 .1-.1.2-.1.3s0 .2-.1.2c0 .1-.1.2-.1.3v.2.2c0 .1 0 .2-.1.3s0 .3 0 .3v.2.1.3.3.3.3.3c0 .1 0 .2.1.3 0 .1 0 .2.1.2 0 .1.1.2.1.3s.1.2.1.2c0 .1.1.2.1.3s.1.2.1.2c0 .1.1.2.2.3 0 .1.1.2.2.2 0 .1.1.2.2.2 0 .1.1.2.2.3l.1.2c.1.1.1.2.2.2l.2.2c0 .1.1.2.2.3.1 0 .1.1.2.2s.2.1.2.2.2.1.2.2c.1.1.2.1.3.2.1 0 .2.1.3.1.1-.1.1-.1.2-.1s.2.1.3.1.2.1.2.1c.1 0 .2.1.3.1h.2l37.6 8.9c3.2.8 6.5.9 9.7.5h22.2l13.2 1h.1c.9 0 1.7-.7 1.8-1.7s-.7-1.9-1.7-2h-1.4l-6.4-.5-5.4-.4h-.1-22.4c-.1 0-.2 0-.3 0-2.8.4-5.7.3-8.5-.4l-37.5-8.8h-.1-.1-.1-.1-.1l-.1-.1h-.1l-.3-.3s-.1-.1-.1-.1l-.1-.1s-.1-.1-.1-.1l-.3-.6v-.1l-.1-.7v-.1s0 0 0-.1c0 0 0 0 0-.1v-.2l.1-.3v-.1l.4-.6.2-.3s.1-.1.1-.1l.5-.3.2-.1h.1l.7-.1 4.2.3 2.6.2 22.5 1.7c.2.3.4.5.6.7l.1.1s.1 0 .1.1c.2.2.4.4.6.5l.1.1c.3.2.5.3.9.5l.1.1c.3.1.6.2 1 .3h.1c.3.1.7.1 1 .1h.2l8.8.2h1.9l18 .3h.1c1 0 1.8-.8 1.8-1.8 0-.2 0-.4-.1-.6-.3-.7-.9-1.2-1.7-1.2l-17.2-.3h-1.9-2l-7.8-.1h-.1c-.1 0-.3 0-.5-.1-.1 0-.2-.1-.4-.1-.1 0-.2-.1-.4-.2-.1-.1-.2-.2-.3-.3s-.2-.2-.3-.3-.1-.2-.2-.4c0-.1-.1-.2-.1-.2s0 0 0-.1v-.1c0-.1 0-.3 0-.4 0-.1 0-.3.1-.5 0-.1.1-.2.1-.4.7-.7 2-1.5 4.5-1.8 6.3-.7 20.5-3.9 22.9-4.4l8.6 1.1c.1 0 .3.1.4.1l9.2 3.3c.9.3 1.8.5 2.8.6.4 0 .8.1 1.2.1h1.6 1.9c1 0 1.8-.8 1.8-1.8s-.9-1.9-1.9-1.9zm-71.6-48.1c0-.4.2-.8.4-1 .3-.3.6-.4 1-.4h7.5c.4 0 .8.2 1 .4.3.3.4.6.4 1l-.2 37.6c0 .4-.2.8-.4 1-.1.1-.2.2-.3.2-.2.1-.4.2-.7.2h-5.2-2.3c-.8 0-1.4-.7-1.4-1.4l.1-34.8zm58.2 22.9c0-2.2 1.8-3.9 3.9-3.9 2.2 0 3.9 1.8 3.9 3.9 0 1-.4 2-1.2 2.8s-1.7 1.1-2.8 1.1c-1 0-2-.4-2.8-1.2-.6-.7-1-1.7-1-2.7zm3.1-10-8.5 13.9c-.3.4-.7.7-1.2.7-.2 0-.5-.1-.7-.2-.7-.4-.9-1.3-.5-1.9l8.5-13.9c.4-.7 1.3-.9 1.9-.5.7.3.9 1.2.5 1.9zm-7.7 2.6c0 2.2-1.8 3.9-3.9 3.9-2.2 0-3.9-1.8-3.9-3.9 0-1 .4-2 1.2-2.8.7-.7 1.7-1.1 2.8-1.1 2 0 3.8 1.7 3.8 3.9zm-11.1 6.7c0 5.5-1.2 9.8-3.6 12.8-2.4 3.1-6 4.6-10.5 4.6 0 0 0 0-.1 0-4.5 0-8.1-1.6-10.5-4.6-2.3-3-3.6-7.2-3.6-12.5v-6.9c0-5.6 1.2-9.9 3.6-12.8 2.5-3 6-4.6 10.5-4.6s8.1 1.6 10.5 4.6c2.3 3 3.6 7.2 3.6 12.5zm-49 29.4c.1-.5.3-.9.7-1.3.4-.3.9-.5 1.4-.5h.2l3.5.3c.7.7 1.5 1.4 2.2 2.1z"/><path d="m47.8 29.7c-.1 0-.1 0 0 0-1.3 0-2.1.4-2.7 1.3-.7 1.1-1.1 3-1.1 5.6v9.1c0 2.8.3 4.9 1 6.1.6 1 1.4 1.5 2.8 1.5 1.3 0 2.1-.4 2.7-1.4.7-1.2 1.1-3.2 1.1-5.9v-8.9c0-3.5-.6-5.3-1-6.1-.7-.8-1.6-1.3-2.8-1.3z"/><path d="m68.9 37.1c-.3 0-.6.1-.8.3s-.3.5-.3.8c0 .6.5 1.1 1.1 1.1.6 0 1.1-.5 1.1-1.1.1-.6-.4-1.1-1.1-1.1z"/><path d="m81.4 46.7c.3 0 .6-.1.8-.3s.3-.5.3-.8c0-.6-.5-1.1-1.1-1.1-.6 0-1.1.5-1.1 1.1 0 .3.1.6.3.8s.5.3.8.3z"/></g></svg>