<?xml version="1.0" encoding="utf-8"?>
<!-- Generator: Adobe Illustrator 24.1.2, SVG Export Plug-In . SVG Version: 6.00 Build 0)  -->
<svg version="1.1" id="Layer_1" xmlns="http://www.w3.org/2000/svg" xmlns:xlink="http://www.w3.org/1999/xlink" x="0px" y="0px"
	 viewBox="0 0 1920 1080" style="enable-background:new 0 0 1920 1080;" xml:space="preserve">
<style type="text/css">
	.st0{fill:#FAFAC6;}
</style>
<g>
	<g>
		<path class="st0" d="M960,459.84c-21.77,0-24.5,0.09-33.05,0.48c-8.53,0.39-14.36,1.74-19.46,3.73c-5.27,2.05-9.74,4.79-14.2,9.25
			c-4.46,4.46-7.2,8.93-9.25,14.2c-1.98,5.1-3.34,10.93-3.73,19.46c-0.39,8.55-0.48,11.28-0.48,33.05c0,21.77,0.09,24.5,0.48,33.05
			c0.39,8.53,1.74,14.36,3.73,19.46c2.05,5.27,4.79,9.74,9.25,14.2c4.46,4.46,8.93,7.2,14.2,9.25c5.1,1.98,10.93,3.34,19.46,3.73
			c8.55,0.39,11.28,0.48,33.05,0.48c21.77,0,24.5-0.09,33.05-0.48c8.53-0.39,14.36-1.74,19.46-3.73c5.27-2.05,9.74-4.79,14.2-9.25
			c4.46-4.46,7.2-8.93,9.25-14.2c1.98-5.1,3.34-10.93,3.73-19.46c0.39-8.55,0.48-11.28,0.48-33.05c0-21.77-0.09-24.5-0.48-33.05
			c-0.39-8.53-1.74-14.36-3.73-19.46c-2.05-5.27-4.79-9.74-9.25-14.2c-4.46-4.46-8.93-7.2-14.2-9.25
			c-5.1-1.98-10.93-3.34-19.46-3.73C984.5,459.93,981.77,459.84,960,459.84L960,459.84L960,459.84z M960,474.28
			c21.4,0,23.94,0.08,32.39,0.47c7.82,0.36,12.06,1.66,14.88,2.76c3.74,1.45,6.41,3.19,9.22,6c2.81,2.8,4.54,5.48,6,9.22
			c1.1,2.82,2.4,7.07,2.76,14.88c0.39,8.45,0.47,10.99,0.47,32.39c0,21.4-0.08,23.94-0.47,32.39c-0.36,7.82-1.66,12.06-2.76,14.88
			c-1.45,3.74-3.19,6.41-6,9.22c-2.8,2.81-5.48,4.54-9.22,6c-2.82,1.1-7.07,2.4-14.88,2.76c-8.45,0.39-10.99,0.47-32.39,0.47
			c-21.4,0-23.94-0.08-32.39-0.47c-7.82-0.36-12.06-1.66-14.88-2.76c-3.74-1.45-6.41-3.19-9.22-6c-2.8-2.8-4.54-5.48-6-9.22
			c-1.1-2.82-2.4-7.07-2.76-14.88c-0.39-8.45-0.47-10.99-0.47-32.39c0-21.4,0.08-23.94,0.47-32.39c0.36-7.82,1.66-12.06,2.76-14.88
			c1.45-3.74,3.19-6.41,6-9.22c2.8-2.81,5.48-4.54,9.22-6c2.82-1.1,7.07-2.4,14.88-2.76C936.06,474.37,938.6,474.28,960,474.28"/>
		<path class="st0" d="M960,566.72c-14.76,0-26.72-11.96-26.72-26.72c0-14.76,11.96-26.72,26.72-26.72
			c14.76,0,26.72,11.96,26.72,26.72C986.72,554.76,974.76,566.72,960,566.72L960,566.72z M960,498.84
			c-22.73,0-41.16,18.43-41.16,41.16c0,22.73,18.43,41.16,41.16,41.16c22.73,0,41.16-18.43,41.16-41.16
			C1001.16,517.27,982.73,498.84,960,498.84L960,498.84z"/>
		<path class="st0" d="M1012.41,497.21c0,5.31-4.31,9.62-9.62,9.62c-5.31,0-9.62-4.31-9.62-9.62c0-5.31,4.31-9.62,9.62-9.62
			C1008.1,487.59,1012.41,491.9,1012.41,497.21L1012.41,497.21z"/>
	</g>
</g>
</svg>
