<?xml version="1.0" encoding="utf-8"?>
<!-- Generator: Adobe Illustrator 24.1.2, SVG Export Plug-In . SVG Version: 6.00 Build 0)  -->
<svg version="1.1" id="Layer_1" xmlns="http://www.w3.org/2000/svg" xmlns:xlink="http://www.w3.org/1999/xlink" x="0px" y="0px"
	 viewBox="0 0 1920 1080" style="enable-background:new 0 0 1920 1080;" xml:space="preserve">
<style type="text/css">
	.st0{fill:#FAFAC6;}
</style>
<g>
	<path class="st0" d="M951.67,576.65h24.28c0.99,0,1.78-0.8,1.78-1.78v-29.83c0-0.99-0.8-1.78-1.78-1.78h-24.28
		c-0.99,0-1.78,0.8-1.78,1.78v29.83C949.89,575.85,950.69,576.65,951.67,576.65z M974.16,561.35h-20.71v-2.56h20.71V561.35z
		 M953.45,564.91h20.71v2.57h-20.71V564.91z M974.16,555.21h-20.71v-2.57h20.71V555.21z M974.16,573.08h-20.71v-2.03h20.71V573.08z
		 M953.45,546.82h20.71v2.25h-20.71V546.82z"/>
	<path class="st0" d="M1015.4,532.78c-0.05-0.25-0.14-0.5-0.29-0.72l-17.99-27.41c-0.37-0.56-1-0.9-1.67-0.9h-9.2v-9.64
		c0-1.1-0.9-2-2-2h-7.98c-1.1,0-2,0.9-2,2v9.64h-47.4c-0.17,0-0.33,0.03-0.49,0.07c-0.16-0.04-0.33-0.07-0.5-0.07c0,0,0,0,0,0
		c-0.65,0-1.27,0.32-1.64,0.86l-19.7,28.27c0,0,0,0.01-0.01,0.01c-0.09,0.14-0.17,0.29-0.22,0.44c-0.01,0.04-0.03,0.08-0.04,0.12
		c-0.04,0.12-0.06,0.25-0.07,0.37c0,0.04-0.01,0.09-0.01,0.13c0,0.02-0.01,0.05-0.01,0.07c0,0.14,0.02,0.28,0.04,0.42
		c0,0.02,0.01,0.03,0.01,0.04c0.03,0.15,0.09,0.29,0.16,0.42c0.01,0.02,0.01,0.04,0.02,0.06c0.01,0.02,0.03,0.04,0.04,0.06
		c0.07,0.12,0.15,0.23,0.24,0.33c0.02,0.02,0.03,0.04,0.05,0.06c0.11,0.11,0.24,0.21,0.37,0.29c0.03,0.02,0.07,0.04,0.11,0.06
		c0.11,0.06,0.22,0.11,0.34,0.15c0.04,0.01,0.08,0.03,0.12,0.04c0.16,0.04,0.32,0.07,0.49,0.07h3.59v49.88c0,1.1,0.9,2,2,2h30.26
		h65.16c1.1,0,2-0.9,2-2v-49.88h4.65c1.1,0,2-0.9,2-2C1015.83,533.55,1015.67,533.12,1015.4,532.78z M978.27,496.11h3.98v6.97h-3.98
		V496.11z M918.76,546.65c0-1.1,0.9-2,2-2h13.97c1.1,0,2,0.9,2,2s-0.9,2-2,2h-11.97v8.14h10.3c1.1,0,2,0.9,2,2s-0.9,2-2,2h-10.3
		v10.47c0,1.1-0.9,2-2,2s-2-0.9-2-2V546.65z M994.89,583.67h-9.82v-36.84h9.82V583.67z M1005.18,583.89h-4.28v-38.85
		c0-0.99-0.8-1.78-1.78-1.78h-2.44h-13.38c-0.99,0-1.78,0.8-1.78,1.78v38.85h-37.49v-47.88h61.16V583.89z M1007.18,532.01H946.5
		l-16.81-24.27h64.68l15.92,24.27H1007.18z"/>
</g>
</svg>
